<?xml version="1.0" encoding="UTF-8" standalone="no"?>
<!-- Creator: CorelDRAW X6 -->

<svg
   xml:space="preserve"
   width="100mm"
   height="100mm"
   version="1.1"
   style="shape-rendering:geometricPrecision; text-rendering:geometricPrecision; image-rendering:optimizeQuality; fill-rule:evenodd; clip-rule:evenodd"
   viewBox="0 0 10000 10000"
   id="svg3"
   sodipodi:docname="trace_letter_positive.svg"
   inkscape:version="1.3 (0e150ed6c4, 2023-07-21)"
   xmlns:inkscape="http://www.inkscape.org/namespaces/inkscape"
   xmlns:sodipodi="http://sodipodi.sourceforge.net/DTD/sodipodi-0.dtd"
   xmlns="http://www.w3.org/2000/svg"
   xmlns:svg="http://www.w3.org/2000/svg"><sodipodi:namedview
   id="namedview3"
   pagecolor="#ffffff"
   bordercolor="#000000"
   borderopacity="0.25"
   inkscape:showpageshadow="2"
   inkscape:pageopacity="0.0"
   inkscape:pagecheckerboard="0"
   inkscape:deskcolor="#d1d1d1"
   inkscape:document-units="mm"
   inkscape:zoom="5.5175957"
   inkscape:cx="172.35768"
   inkscape:cy="146.89369"
   inkscape:window-width="1979"
   inkscape:window-height="987"
   inkscape:window-x="156"
   inkscape:window-y="684"
   inkscape:window-maximized="0"
   inkscape:current-layer="Layer_x0020_1" />&#10; <defs
   id="defs1">&#10;  <style
   type="text/css"
   id="style1">&#10;   <![CDATA[
    .str0 {stroke:black;stroke-width:7.62;stroke-linecap:round;stroke-linejoin:round}
    .fil0 {fill:none}
   ]]>&#10;  </style>&#10; </defs>&#10; <g
   id="Layer_x0020_1"
   inkscape:label="Layer 1">&#10;  <metadata
   id="CorelCorpID_0Corel-Layer" />&#10;  <path
   class="fil0 str0"
   d="M6019 2676l6 2197c0,74 26,118 98,118l352 0c121,0 88,-173 88,-342l-2 -1056 238 555c39,96 77,184 114,276 54,131 65,196 225,196 136,0 149,-108 190,-211 39,-96 80,-188 118,-282l176 -420c18,-43 41,-110 61,-143l1 1329c0,136 152,98 274,98 314,0 257,57 258,-537l-3 -1914c0,-87 -31,-108 -118,-108 -679,0 -518,-82 -749,531l-172 472c-16,44 -42,128 -65,164 -24,-33 -44,-110 -58,-152 -18,-54 -37,-101 -56,-158l-215 -625c-81,-222 -85,-232 -276,-232 -516,0 -484,-38 -485,245z"
   id="path1" />&#10;  <path
   class="fil0 str0"
   d="m 4306,3603 c -443,258 -525,859 -233,1171 45,48 62,67 112,103 247,179 569,213 849,78 58,-28 91,-46 138,-77 48,-32 84,-68 131,-94 157,260 132,204 430,206 163,1 137,-23 137,-176 0,-152 -9,-151 -79,-244 -169,-224 -158,-145 -54,-415 29,-75 58,-148 88,-224 113,-282 92,-278 -142,-277 -255,1 -224,-35 -299,149 -24,59 -42,105 -63,164 l -252,-295 c 86,-71 179,-98 280,-256 254,-397 10,-944 -438,-992 -365,-40 -597,145 -720,362 -121,212 -99,427 15,645 50.3475,95.1009 28.8061,24.7454 100,172 z"
   id="path2"
   sodipodi:nodetypes="cccccccscccccccccccc" />&#10;  <path
   class="fil0 str0"
   d="M2949 3048l-163 236c-125,171 -792,1107 -815,1186 -15,51 -10,321 -7,394 6,165 121,124 274,127 264,5 527,7 791,6 133,0 267,0 400,0 435,-1 360,42 362,-437 1,-177 11,-166 -235,-166 -259,0 -541,3 -799,-8 105,-188 984,-1348 1008,-1393 31,-59 15,-296 15,-386 1,-206 -28,-176 -225,-176l-1201 0c-107,0 -301,-22 -359,42 -57,62 -41,256 -42,359 -1,158 23,213 186,215 269,4 541,-5 810,1z"
   id="path3" />&#10; </g>&#10;</svg>
