<?xml version="1.0" encoding="UTF-8" standalone="no"?>
<!-- Creator: CorelDRAW X6 -->

<svg
   xml:space="preserve"
   width="100mm"
   height="100mm"
   version="1.1"
   style="shape-rendering:geometricPrecision; text-rendering:geometricPrecision; image-rendering:optimizeQuality; fill-rule:evenodd; clip-rule:evenodd"
   viewBox="0 0 10000 10000"
   id="svg2"
   sodipodi:docname="trace_border_negative.svg"
   inkscape:version="1.3 (0e150ed6c4, 2023-07-21)"
   xmlns:inkscape="http://www.inkscape.org/namespaces/inkscape"
   xmlns:sodipodi="http://sodipodi.sourceforge.net/DTD/sodipodi-0.dtd"
   xmlns="http://www.w3.org/2000/svg"
   xmlns:svg="http://www.w3.org/2000/svg"><sodipodi:namedview
   id="namedview2"
   pagecolor="#ffffff"
   bordercolor="#000000"
   borderopacity="0.25"
   inkscape:showpageshadow="2"
   inkscape:pageopacity="0.0"
   inkscape:pagecheckerboard="0"
   inkscape:deskcolor="#d1d1d1"
   inkscape:document-units="mm"
   inkscape:zoom="4.0005"
   inkscape:cx="137.73278"
   inkscape:cy="264.21697"
   inkscape:window-width="1979"
   inkscape:window-height="988"
   inkscape:window-x="156"
   inkscape:window-y="2756"
   inkscape:window-maximized="0"
   inkscape:current-layer="Layer_x0020_1" />&#10; <defs
   id="defs1">&#10;  <style
   type="text/css"
   id="style1">&#10;   <![CDATA[
    .str0 {stroke:black;stroke-width:7.62;stroke-linecap:round;stroke-linejoin:round}
    .fil0 {fill:none}
   ]]>&#10;  </style>&#10; </defs>&#10; <g
   id="Layer_x0020_1"
   inkscape:label="Layer 1">&#10;  <metadata
   id="CorelCorpID_0Corel-Layer" />&#10;  &#10;  <path
   class="fil0 str0"
   d="m 4132,8211 c 30,-136 396,-632 72,-842 -114,-74 -201,-44 -310,-6 23,-125 347,-791 -71,-911 -129,-37 -232,49 -325,81 24,-249 27,-850 -313,-850 -160,0 -213,116 -252,146 -311,-826 -1020,-709 -862,109 17,86 47,173 59,258 -711,-113 -256,784 -256,784 -212,6 -264,-29 -378,220 -71,-62 -266,-451 -317,-574 C 518,5041 896,3158 2163,1976 4324,-39 8011,800 8949,3708 9953,6820 7132,9750 4156,9054 c -29,-7 561,-808 -23,-843 z"
   id="path2" />&#10; </g>&#10;</svg>
