<?xml version="1.0" encoding="UTF-8"?>
<!DOCTYPE svg PUBLIC "-//W3C//DTD SVG 1.1//EN" "http://www.w3.org/Graphics/SVG/1.1/DTD/svg11.dtd">
<!-- Creator: CorelDRAW X6 -->
<svg xmlns="http://www.w3.org/2000/svg" xml:space="preserve" width="100mm" height="100mm" version="1.1" style="shape-rendering:geometricPrecision; text-rendering:geometricPrecision; image-rendering:optimizeQuality; fill-rule:evenodd; clip-rule:evenodd"
viewBox="0 0 10000 10000"
 xmlns:xlink="http://www.w3.org/1999/xlink">
 <defs>
  <style type="text/css">
   <![CDATA[
    .str0 {stroke:black;stroke-width:7.62;stroke-linecap:round;stroke-linejoin:round}
    .fil0 {fill:none}
   ]]>
  </style>
 </defs>
 <g id="Layer_x0020_1">
  <metadata id="CorelCorpID_0Corel-Layer"/>
  <path class="fil0 str0" d="M1631 7880c-501,142 -51,692 116,879 -60,47 -242,116 -150,317 127,278 546,525 554,259 4,-112 -215,-209 -235,-291 165,77 517,-1 280,-224 -125,-118 -529,-461 -514,-636 18,-217 563,376 658,73 62,-198 -688,-601 -558,-1016 237,-39 405,414 596,304 261,-151 -382,-560 -386,-1069 72,29 715,596 493,-55 -57,-167 -294,-758 -93,-891 284,89 337,804 445,872 201,128 204,-345 339,-429 191,546 -160,1205 125,1207 170,1 182,-329 430,-450 135,184 -189,795 -275,964 -136,268 96,323 214,195 56,-61 259,-273 373,-283 1,473 -461,767 -469,950 -13,300 406,-13 537,-68 -20,353 -516,657 -452,833 24,66 145,131 251,28 52,-51 167,1 312,25 2993,500 5625,-1986 5166,-5059 -488,-3267 -4320,-4806 -6952,-2934 -1638,1165 -2279,3294 -1591,5187 180,495 466,914 786,1314z"/>
  <path class="fil0 str0" d="M4132 8211c30,-136 396,-632 72,-842 -114,-74 -201,-44 -310,-6 23,-125 347,-791 -71,-911 -129,-37 -232,49 -325,81 24,-249 27,-850 -313,-850 -160,0 -213,116 -252,146 -311,-826 -1020,-709 -862,109 17,86 47,173 59,258 -711,-113 -256,784 -256,784 -212,6 -264,-29 -378,220 -71,-62 -266,-451 -317,-574 -661,-1585 -283,-3468 984,-4650 2161,-2015 5848,-1176 6786,1732 1004,3112 -1817,6042 -4793,5346 -29,-7 561,-808 -23,-843z"/>
 </g>
</svg>
