<?xml version="1.0" encoding="UTF-8" standalone="no"?>
<!-- Creator: CorelDRAW X6 -->

<svg
   xml:space="preserve"
   width="100mm"
   height="100mm"
   version="1.1"
   style="shape-rendering:geometricPrecision; text-rendering:geometricPrecision; image-rendering:optimizeQuality; fill-rule:evenodd; clip-rule:evenodd"
   viewBox="0 0 10000 10000"
   id="svg2"
   sodipodi:docname="trace_border_positive.svg"
   inkscape:version="1.3 (0e150ed6c4, 2023-07-21)"
   xmlns:inkscape="http://www.inkscape.org/namespaces/inkscape"
   xmlns:sodipodi="http://sodipodi.sourceforge.net/DTD/sodipodi-0.dtd"
   xmlns="http://www.w3.org/2000/svg"
   xmlns:svg="http://www.w3.org/2000/svg"><sodipodi:namedview
   id="namedview2"
   pagecolor="#ffffff"
   bordercolor="#000000"
   borderopacity="0.25"
   inkscape:showpageshadow="2"
   inkscape:pageopacity="0.0"
   inkscape:pagecheckerboard="0"
   inkscape:deskcolor="#d1d1d1"
   inkscape:document-units="mm"
   inkscape:zoom="4.0005"
   inkscape:cx="137.73278"
   inkscape:cy="264.21697"
   inkscape:window-width="1979"
   inkscape:window-height="988"
   inkscape:window-x="156"
   inkscape:window-y="2756"
   inkscape:window-maximized="0"
   inkscape:current-layer="Layer_x0020_1" />&#10; <defs
   id="defs1">&#10;  <style
   type="text/css"
   id="style1">&#10;   <![CDATA[
    .str0 {stroke:black;stroke-width:7.62;stroke-linecap:round;stroke-linejoin:round}
    .fil0 {fill:none}
   ]]>&#10;  </style>&#10; </defs>&#10; <g
   id="Layer_x0020_1"
   inkscape:label="Layer 1">&#10;  <metadata
   id="CorelCorpID_0Corel-Layer" />&#10;  <path
   class="fil0 str0"
   d="m 1631,7880 c -501,142 -51,692 116,879 -60,47 -242,116 -150,317 127,278 546,525 554,259 4,-112 -215,-209 -235,-291 165,77 517,-1 280,-224 -125,-118 -529,-461 -514,-636 18,-217 563,376 658,73 62,-198 -688,-601 -558,-1016 237,-39 405,414 596,304 261,-151 -382,-560 -386,-1069 72,29 715,596 493,-55 -57,-167 -294,-758 -93,-891 284,89 337,804 445,872 201,128 204,-345 339,-429 191,546 -160,1205 125,1207 170,1 182,-329 430,-450 135,184 -189,795 -275,964 -136,268 96,323 214,195 56,-61 259,-273 373,-283 1,473 -461,767 -469,950 -13,300 406,-13 537,-68 -20,353 -516,657 -452,833 24,66 145,131 251,28 52,-51 167,1 312,25 C 7215,9874 9847,7388 9388,4315 8900,1048 5068,-491 2436,1381 798,2546 157,4675 845,6568 Z"
   id="path1"
   sodipodi:nodetypes="ccccccccccccccccccccccscccccc" />&#10;  &#10; </g>&#10;</svg>
