<?xml version="1.0" encoding="UTF-8" standalone="no"?>
<!-- Creator: CorelDRAW X6 -->

<svg
   xml:space="preserve"
   width="100mm"
   height="100mm"
   version="1.1"
   style="shape-rendering:geometricPrecision; text-rendering:geometricPrecision; image-rendering:optimizeQuality; fill-rule:evenodd; clip-rule:evenodd"
   viewBox="0 0 10000 10000"
   id="svg1"
   xmlns="http://www.w3.org/2000/svg"
   xmlns:svg="http://www.w3.org/2000/svg">&#10; <defs
   id="defs1">&#10;  <style
   type="text/css"
   id="style1">&#10;   <![CDATA[
    .str0 {stroke:black;stroke-width:7.62;stroke-linecap:round;stroke-linejoin:round}
    .fil0 {fill:black}
   ]]>&#10;  </style>&#10; </defs>&#10; <g
   id="Layer_x0020_1">&#10;  <metadata
   id="CorelCorpID_0Corel-Layer" />&#10;  <path
   class="fil0 str0"
   d="M1970 4470c-15,51 -10,321 -7,394 6,165 121,124 274,127l1191 6c435,-1 360,42 362,-437 1,-177 11,-166 -235,-166 -259,0 -541,3 -799,-8 105,-188 984,-1348 1008,-1393 31,-59 15,-296 15,-386 1,-206 -28,-176 -225,-176l-1201 0c-410,0 -399,-8 -401,401 -1,158 23,213 186,215 267,4 537,-5 804,1 30,1 -920,1242 -973,1422zm2162 3741c30,-136 396,-632 72,-842 -114,-74 -201,-44 -310,-6 23,-125 347,-791 -71,-911 -129,-37 -232,49 -325,81 24,-249 27,-850 -313,-850 -160,0 -213,116 -252,146 -311,-826 -1020,-709 -862,109 17,86 47,173 59,258 -380,-60 -477,225 -357,549 31,84 98,194 101,235 -212,6 -264,-29 -378,220 -71,-62 -266,-451 -317,-574 -299,-717 -390,-1521 -263,-2313 144,-896 588,-1723 1247,-2337 2161,-2015 5848,-1176 6786,1732 607,1882 -185,3948 -1880,4884 -873,482 -1895,702 -2913,463 -29,-7 561,-808 -23,-843zm-2501 -330c-210,60 -271,224 -184,457 73,193 192,301 299,422 -60,47 -242,116 -150,317 127,278 546,525 554,259 4,-112 -215,-209 -235,-291 32,15 158,22 205,27 120,12 220,-115 75,-251 -125,-118 -529,-461 -514,-636 12,-141 395,120 449,146 90,43 183,10 209,-73 31,-100 -63,-166 -105,-208 -119,-119 -541,-525 -453,-808 237,-39 405,414 596,304 261,-151 -382,-560 -386,-1069 186,74 195,142 330,236 58,40 285,65 163,-291 -57,-167 -294,-758 -93,-891 284,89 337,804 445,872 201,128 204,-345 339,-429 191,546 -160,1205 125,1207 170,1 182,-329 430,-450 135,184 -189,795 -275,964 -136,268 96,323 214,195 56,-61 259,-273 373,-283 1,473 -461,767 -469,950 -4,89 59,150 155,127 41,-9 300,-161 382,-195 -20,353 -516,657 -452,833 24,66 145,131 251,28 52,-51 167,1 312,25 2993,500 5625,-1986 5166,-5059 -199,-1335 -987,-2442 -2112,-3122 -1465,-885 -3435,-810 -4840,188 -1638,1165 -2279,3294 -1591,5187 180,495 466,914 786,1314zm4394 -3007c0,172 191,118 450,118 121,0 88,-173 88,-342l-2 -1056 353 831c54,131 65,196 225,196 136,0 149,-108 190,-211 68,-169 288,-735 355,-845l1 1329c0,136 152,98 274,98 314,0 257,57 258,-537l-3 -1914c0,-87 -31,-108 -118,-108 -693,0 -498,-165 -921,1003 -16,44 -42,128 -65,164 -52,-72 -303,-858 -330,-935 -81,-222 -85,-232 -276,-232 -511,0 -484,-38 -485,238 0,735 4,1470 6,2204zm-1723 -1267c-500,295 -520,979 -117,1272 296,215 687,200 987,1 48,-32 84,-68 131,-94 157,260 132,204 430,206 163,1 137,-23 137,-176 0,-152 -9,-151 -79,-244 -193,-256 -150,-177 34,-639 113,-282 92,-278 -142,-277 -307,2 -245,-8 -362,313l-252 -295c86,-71 179,-98 280,-256 254,-397 10,-944 -438,-992 -609,-66 -969,503 -704,1007 10,20 110,167 95,176z"
   id="path1" />&#10; </g>&#10;</svg>
