  0
SECTION
  2
HEADER
  9
$ACADVER
  1
AC1014
  9
$ACADMAINTVER
 70
     9
  9
$DWGCODEPAGE
  3
ANSI_1252
  9
$INSBASE
 10
0.0
 20
0.0
 30
0.0
  9
$EXTMIN
 10
-4.43191
 20
-4.45345
 30
0.0
  9
$EXTMAX
 10
4.44154
 20
4.42733
 30
0.0
  9
$LIMMIN
 10
0.0
 20
0.0
  9
$LIMMAX
 10
12.0
 20
9.0
  9
$ORTHOMODE
 70
     0
  9
$REGENMODE
 70
     1
  9
$FILLMODE
 70
     1
  9
$QTEXTMODE
 70
     0
  9
$MIRRTEXT
 70
     1
  9
$DRAGMODE
 70
     2
  9
$LTSCALE
 40
1.0
  9
$OSMODE
 70
    37
  9
$ATTMODE
 70
     1
  9
$TEXTSIZE
 40
0.2
  9
$TRACEWID
 40
0.05
  9
$TEXTSTYLE
  7
STANDARD
  9
$CLAYER
  8
0
  9
$CELTYPE
  6
BYLAYER
  9
$CECOLOR
 62
   256
  9
$CELTSCALE
 40
1.0
  9
$DELOBJ
 70
     1
  9
$DISPSILH
 70
     0
  9
$DIMSCALE
 40
1.0
  9
$DIMASZ
 40
0.18
  9
$DIMEXO
 40
0.0625
  9
$DIMDLI
 40
0.38
  9
$DIMRND
 40
0.0
  9
$DIMDLE
 40
0.0
  9
$DIMEXE
 40
0.18
  9
$DIMTP
 40
0.0
  9
$DIMTM
 40
0.0
  9
$DIMTXT
 40
0.18
  9
$DIMCEN
 40
0.09
  9
$DIMTSZ
 40
0.0
  9
$DIMTOL
 70
     0
  9
$DIMLIM
 70
     0
  9
$DIMTIH
 70
     1
  9
$DIMTOH
 70
     1
  9
$DIMSE1
 70
     0
  9
$DIMSE2
 70
     0
  9
$DIMTAD
 70
     0
  9
$DIMZIN
 70
     0
  9
$DIMBLK
  1

  9
$DIMASO
 70
     1
  9
$DIMSHO
 70
     1
  9
$DIMPOST
  1

  9
$DIMAPOST
  1

  9
$DIMALT
 70
     0
  9
$DIMALTD
 70
     2
  9
$DIMALTF
 40
25.4
  9
$DIMLFAC
 40
1.0
  9
$DIMTOFL
 70
     0
  9
$DIMTVP
 40
0.0
  9
$DIMTIX
 70
     0
  9
$DIMSOXD
 70
     0
  9
$DIMSAH
 70
     0
  9
$DIMBLK1
  1

  9
$DIMBLK2
  1

  9
$DIMSTYLE
  2
STANDARD
  9
$DIMCLRD
 70
     0
  9
$DIMCLRE
 70
     0
  9
$DIMCLRT
 70
     0
  9
$DIMTFAC
 40
1.0
  9
$DIMGAP
 40
0.09
  9
$DIMJUST
 70
     0
  9
$DIMSD1
 70
     0
  9
$DIMSD2
 70
     0
  9
$DIMTOLJ
 70
     1
  9
$DIMTZIN
 70
     0
  9
$DIMALTZ
 70
     0
  9
$DIMALTTZ
 70
     0
  9
$DIMFIT
 70
     3
  9
$DIMUPT
 70
     0
  9
$DIMUNIT
 70
     2
  9
$DIMDEC
 70
     4
  9
$DIMTDEC
 70
     4
  9
$DIMALTU
 70
     2
  9
$DIMALTTD
 70
     2
  9
$DIMTXSTY
  7
STANDARD
  9
$DIMAUNIT
 70
     0
  9
$LUNITS
 70
     2
  9
$LUPREC
 70
     4
  9
$SKETCHINC
 40
0.1
  9
$FILLETRAD
 40
0.5
  9
$AUNITS
 70
     0
  9
$AUPREC
 70
     0
  9
$MENU
  1
.
  9
$ELEVATION
 40
0.0
  9
$PELEVATION
 40
0.0
  9
$THICKNESS
 40
0.0
  9
$LIMCHECK
 70
     0
  9
$CHAMFERA
 40
0.5
  9
$CHAMFERB
 40
0.5
  9
$CHAMFERC
 40
1.0
  9
$CHAMFERD
 40
0.0
  9
$SKPOLY
 70
     0
  9
$TDCREATE
 40
2460801.888886227
  9
$TDUPDATE
 40
2460801.888886227
  9
$TDINDWG
 40
0.0000000116
  9
$TDUSRTIMER
 40
0.0000000116
  9
$USRTIMER
 70
     1
  9
$ANGBASE
 50
0.0
  9
$ANGDIR
 70
     0
  9
$PDMODE
 70
     0
  9
$PDSIZE
 40
0.0
  9
$PLINEWID
 40
0.0
  9
$COORDS
 70
     1
  9
$SPLFRAME
 70
     0
  9
$SPLINETYPE
 70
     6
  9
$SPLINESEGS
 70
     8
  9
$ATTDIA
 70
     0
  9
$ATTREQ
 70
     1
  9
$HANDLING
 70
     1
  9
$HANDSEED
  5
71
  9
$SURFTAB1
 70
     6
  9
$SURFTAB2
 70
     6
  9
$SURFTYPE
 70
     6
  9
$SURFU
 70
     6
  9
$SURFV
 70
     6
  9
$UCSNAME
  2

  9
$UCSORG
 10
0.0
 20
0.0
 30
0.0
  9
$UCSXDIR
 10
1.0
 20
0.0
 30
0.0
  9
$UCSYDIR
 10
0.0
 20
1.0
 30
0.0
  9
$PUCSNAME
  2

  9
$PUCSORG
 10
0.0
 20
0.0
 30
0.0
  9
$PUCSXDIR
 10
1.0
 20
0.0
 30
0.0
  9
$PUCSYDIR
 10
0.0
 20
1.0
 30
0.0
  9
$USERI1
 70
     0
  9
$USERI2
 70
     0
  9
$USERI3
 70
     0
  9
$USERI4
 70
     0
  9
$USERI5
 70
     0
  9
$USERR1
 40
0.0
  9
$USERR2
 40
0.0
  9
$USERR3
 40
0.0
  9
$USERR4
 40
0.0
  9
$USERR5
 40
0.0
  9
$WORLDVIEW
 70
     1
  9
$SHADEDGE
 70
     3
  9
$SHADEDIF
 70
    70
  9
$TILEMODE
 70
     1
  9
$MAXACTVP
 70
    64
  9
$PINSBASE
 10
0.0
 20
0.0
 30
0.0
  9
$PLIMCHECK
 70
     0
  9
$PEXTMIN
 10
1.000000000000000E+20
 20
1.000000000000000E+20
 30
1.000000000000000E+20
  9
$PEXTMAX
 10
-1.000000000000000E+20
 20
-1.000000000000000E+20
 30
-1.000000000000000E+20
  9
$PLIMMIN
 10
0.0
 20
0.0
  9
$PLIMMAX
 10
12.0
 20
9.0
  9
$UNITMODE
 70
     0
  9
$VISRETAIN
 70
     1
  9
$PLINEGEN
 70
     0
  9
$PSLTSCALE
 70
     1
  9
$TREEDEPTH
 70
  3020
  9
$PICKSTYLE
 70
     1
  9
$CMLSTYLE
  2
STANDARD
  9
$CMLJUST
 70
     0
  9
$CMLSCALE
 40
1.0
  9
$PROXYGRAPHICS
 70
     1
  9
$MEASUREMENT
 70
     0
  0
ENDSEC
  0
SECTION
  2
CLASSES
  0
CLASS
  1
ACDBDICTIONARYWDFLT
  2
AcDbDictionaryWithDefault
  3
ObjectDBX Classes
 90
        0
280
     0
281
     0
  0
CLASS
  1
VISUALSTYLE
  2
AcDbVisualStyle
  3
ObjectDBX Classes
 90
     4095
280
     0
281
     0
  0
CLASS
  1
MATERIAL
  2
AcDbMaterial
  3
ObjectDBX Classes
 90
     1153
280
     0
281
     0
  0
CLASS
  1
DICTIONARYVAR
  2
AcDbDictionaryVar
  3
ObjectDBX Classes
 90
        0
280
     0
281
     0
  0
CLASS
  1
XRECORD
  2
AcDbXrecord
  3
AutoCAD 2000
 90
        0
280
     0
281
     0
  0
CLASS
  1
LWPOLYLINE
  2
AcDbPolyline
  3
AutoCAD 2000
 90
        0
280
     0
281
     1
  0
CLASS
  1
HATCH
  2
AcDbHatch
  3
AutoCAD 2000
 90
        0
280
     0
281
     1
  0
CLASS
  1
ACDBPLACEHOLDER
  2
AcDbPlaceHolder
  3
ObjectDBX Classes
 90
        0
280
     0
281
     0
  0
CLASS
  1
LAYOUT
  2
AcDbLayout
  3
ObjectDBX Classes
 90
        0
280
     0
281
     0
  0
ENDSEC
  0
SECTION
  2
TABLES
  0
TABLE
  2
VPORT
  5
8
330
0
100
AcDbSymbolTable
 70
     1
  0
VPORT
  5
29
330
8
100
AcDbSymbolTableRecord
100
AcDbViewportTableRecord
  2
*ACTIVE
 70
     0
 10
0.0
 20
0.0
 11
1.0
 21
1.0
 12
10.42990654205607
 22
4.5
 13
0.0
 23
0.0
 14
0.5
 24
0.5
 15
0.5
 25
0.5
 16
0.0
 26
0.0
 36
1.0
 17
0.0
 27
0.0
 37
0.0
 40
9.0
 41
1.972972972850329
 42
50.0
 43
0.0
 44
0.0
 50
0.0
 51
0.0
 71
     0
 72
   100
 73
     1
 74
     3
 75
     0
 76
     0
 77
     0
 78
     0
  0
ENDTAB
  0
TABLE
  2
LTYPE
  5
5
330
0
100
AcDbSymbolTable
 70
     1
  0
LTYPE
  5
14
330
5
100
AcDbSymbolTableRecord
100
AcDbLinetypeTableRecord
  2
BYBLOCK
 70
     0
  3

 72
    65
 73
     0
 40
0.0
  0
LTYPE
  5
15
330
5
100
AcDbSymbolTableRecord
100
AcDbLinetypeTableRecord
  2
BYLAYER
 70
     0
  3

 72
    65
 73
     0
 40
0.0
  0
LTYPE
  5
16
330
5
100
AcDbSymbolTableRecord
100
AcDbLinetypeTableRecord
  2
CONTINUOUS
 70
     0
  3
Solid line
 72
    65
 73
     0
 40
0.0
  0
ENDTAB
  0
TABLE
  2
LAYER
  5
2
330
0
100
AcDbSymbolTable
 70
     2
  0
LAYER
  5
10
330
2
100
AcDbSymbolTableRecord
100
AcDbLayerTableRecord
  2
0
 70
     0
 62
     7
  6
CONTINUOUS
  0
LAYER
  5
40
330
2
100
AcDbSymbolTableRecord
100
AcDbLayerTableRecord
  2
LAYER_1
 70
     0
 62
     7
  6
CONTINUOUS
  0
ENDTAB
  0
TABLE
  2
STYLE
  5
3
330
0
100
AcDbSymbolTable
 70
     1
  0
STYLE
  5
11
330
3
100
AcDbSymbolTableRecord
100
AcDbTextStyleTableRecord
  2
STANDARD
 70
     0
 40
0.0
 41
1.0
 50
0.0
 71
     0
 42
0.2
  3
txt
  4

  0
ENDTAB
  0
TABLE
  2
VIEW
  5
6
330
0
100
AcDbSymbolTable
 70
     0
  0
ENDTAB
  0
TABLE
  2
UCS
  5
7
330
0
100
AcDbSymbolTable
 70
     0
  0
ENDTAB
  0
TABLE
  2
APPID
  5
9
330
0
100
AcDbSymbolTable
 70
     2
  0
APPID
  5
12
330
9
100
AcDbSymbolTableRecord
100
AcDbRegAppTableRecord
  2
ACAD
 70
     0
  0
APPID
  5
3F
330
9
100
AcDbSymbolTableRecord
100
AcDbRegAppTableRecord
  2
ODA
 70
     0
  0
ENDTAB
  0
TABLE
  2
DIMSTYLE
  5
A
330
0
100
AcDbSymbolTable
 70
     1
  0
DIMSTYLE
105
27
330
A
100
AcDbSymbolTableRecord
100
AcDbDimStyleTableRecord
  2
STANDARD
 70
     0
  3

  4

  5

  6

  7

 40
1.0
 41
0.18
 42
0.0625
 43
0.38
 44
0.18
 45
0.0
 46
0.0
 47
0.0
 48
0.0
140
0.18
141
0.09
142
0.0
143
25.4
144
1.0
145
0.0
146
1.0
147
0.09
 71
     0
 72
     0
 73
     1
 74
     1
 75
     0
 76
     0
 77
     0
 78
     0
170
     0
171
     2
172
     0
173
     0
174
     0
175
     0
176
     0
177
     0
178
     0
270
     2
271
     4
272
     4
273
     2
274
     2
340
11
275
     0
280
     0
281
     0
282
     0
283
     1
284
     0
285
     0
286
     0
287
     3
288
     0
  0
ENDTAB
  0
TABLE
  2
BLOCK_RECORD
  5
1
330
0
100
AcDbSymbolTable
 70
     1
  0
BLOCK_RECORD
  5
1F
330
1
100
AcDbSymbolTableRecord
100
AcDbBlockTableRecord
  2
*MODEL_SPACE
  0
BLOCK_RECORD
  5
1B
330
1
100
AcDbSymbolTableRecord
100
AcDbBlockTableRecord
  2
*PAPER_SPACE
  0
ENDTAB
  0
ENDSEC
  0
SECTION
  2
BLOCKS
  0
BLOCK
  5
20
330
1F
100
AcDbEntity
  8
0
100
AcDbBlockBegin
  2
*MODEL_SPACE
 70
     0
 10
0.0
 20
0.0
 30
0.0
  3
*MODEL_SPACE
  1

  0
ENDBLK
  5
21
330
1F
100
AcDbEntity
  8
0
100
AcDbBlockEnd
  0
BLOCK
  5
1C
330
1B
100
AcDbEntity
 67
     1
  8
0
100
AcDbBlockBegin
  2
*PAPER_SPACE
 70
     0
 10
0.0
 20
0.0
 30
0.0
  3
*PAPER_SPACE
  1

  0
ENDBLK
  5
1D
330
1B
100
AcDbEntity
 67
     1
  8
0
100
AcDbBlockEnd
  0
ENDSEC
  0
SECTION
  2
ENTITIES
  0
SPLINE
  5
41
330
1F
100
AcDbEntity
  8
LAYER_1
100
AcDbSpline
210
0.0
220
0.0
230
1.0
 70
    11
 71
     3
 72
    60
 73
    56
 74
     0
 42
0.0000000001
 43
0.0000000001
 12
1.0
 22
0.0
 32
0.0
 13
1.0
 23
0.0
 33
0.0
 40
0.0
 40
0.0
 40
0.0
 40
0.0
 40
0.0666666666666667
 40
0.0666666666666667
 40
0.0666666666666667
 40
0.0666666666666667
 40
0.1333333333333333
 40
0.1333333333333333
 40
0.1333333333333333
 40
0.1333333333333333
 40
0.2
 40
0.2
 40
0.2
 40
0.2
 40
0.2666666666666667
 40
0.2666666666666667
 40
0.2666666666666667
 40
0.2666666666666667
 40
0.3333333333333333
 40
0.3333333333333333
 40
0.3333333333333333
 40
0.3333333333333333
 40
0.4
 40
0.4
 40
0.4
 40
0.4
 40
0.4666666666666667
 40
0.4666666666666667
 40
0.4666666666666667
 40
0.4666666666666667
 40
0.5333333333333333
 40
0.5333333333333333
 40
0.5333333333333333
 40
0.5333333333333333
 40
0.6
 40
0.6
 40
0.6
 40
0.6
 40
0.6666666666666666
 40
0.6666666666666666
 40
0.6666666666666666
 40
0.6666666666666666
 40
0.7333333333333333
 40
0.7333333333333333
 40
0.7333333333333333
 40
0.7333333333333333
 40
0.8
 40
0.8
 40
0.8
 40
0.8
 40
0.8666666666666667
 40
0.8666666666666667
 40
0.8666666666666667
 40
0.8666666666666667
 40
1.0
 40
1.0
 40
1.0
 40
1.0
 10
-2.05147
 20
1.9521
 30
0.0
 10
-2.2412
 20
1.67767
 30
0.0
 10
-2.98863
 20
0.67225
 30
0.0
 10
-3.02997
 20
0.52978
 30
0.0
 10
-3.02997
 20
0.52978
 30
0.0
 10
-3.04468
 20
0.47909
 30
0.0
 10
-3.04002
 20
0.20906
 30
0.0
 10
-3.03746
 20
0.13628
 30
0.0
 10
-3.03746
 20
0.13628
 30
0.0
 10
-3.03166
 20
-0.02869
 30
0.0
 10
-2.91608
 20
0.012
 30
0.0
 10
-2.76367
 20
0.00894
 30
0.0
 10
-2.76367
 20
0.00894
 30
0.0
 10
-2.76367
 20
0.00894
 30
0.0
 10
-1.57227
 20
0.00276
 30
0.0
 10
-1.57227
 20
0.00276
 30
0.0
 10
-1.57227
 20
0.00276
 30
0.0
 10
-1.13743
 20
0.00353
 30
0.0
 10
-1.21247
 20
-0.03953
 30
0.0
 10
-1.21047
 20
0.43946
 30
0.0
 10
-1.21047
 20
0.43946
 30
0.0
 10
-1.20972
 20
0.61687
 30
0.0
 10
-1.19956
 20
0.60582
 30
0.0
 10
-1.44531
 20
0.60582
 30
0.0
 10
-1.44531
 20
0.60582
 30
0.0
 10
-1.70456
 20
0.60581
 30
0.0
 10
-1.98636
 20
0.60292
 30
0.0
 10
-2.24384
 20
0.61392
 30
0.0
 10
-2.24384
 20
0.61392
 30
0.0
 10
-2.13916
 20
0.80202
 30
0.0
 10
-1.25936
 20
1.96152
 30
0.0
 10
-1.23552
 20
2.00696
 30
0.0
 10
-1.23552
 20
2.00696
 30
0.0
 10
-1.20462
 20
2.06585
 30
0.0
 10
-1.22056
 20
2.30344
 30
0.0
 10
-1.22032
 20
2.39259
 30
0.0
 10
-1.22032
 20
2.39259
 30
0.0
 10
-1.21977
 20
2.59901
 30
0.0
 10
-1.24851
 20
2.56858
 30
0.0
 10
-1.44531
 20
2.56868
 30
0.0
 10
-1.44531
 20
2.56868
 30
0.0
 10
-1.44531
 20
2.56868
 30
0.0
 10
-2.64649
 20
2.56868
 30
0.0
 10
-2.64649
 20
2.56868
 30
0.0
 10
-2.64649
 20
2.56868
 30
0.0
 10
-3.0562
 20
2.56893
 30
0.0
 10
-3.0457
 20
2.57691
 30
0.0
 10
-3.04733
 20
2.16795
 30
0.0
 10
-3.04733
 20
2.16795
 30
0.0
 10
-3.04796
 20
2.01033
 30
0.0
 10
-3.02468
 20
1.95533
 30
0.0
 10
-2.86172
 20
1.95302
 30
0.0
 10
-2.86172
 20
1.95302
 30
0.0
 10
-2.59236
 20
1.94922
 30
0.0
 10
-2.3204
 20
1.95831
 30
0.0
 10
-2.05147
 20
1.9521
 30
0.0
  0
SPLINE
  5
42
330
1F
100
AcDbEntity
  8
LAYER_1
100
AcDbSpline
210
0.0
220
0.0
230
1.0
 70
    11
 71
     3
 72
    76
 73
    72
 74
     0
 42
0.0000000001
 43
0.0000000001
 12
1.0
 22
0.0
 32
0.0
 13
1.0
 23
0.0
 33
0.0
 40
0.0
 40
0.0
 40
0.0
 40
0.0
 40
0.0526315789473684
 40
0.0526315789473684
 40
0.0526315789473684
 40
0.0526315789473684
 40
0.1052631578947368
 40
0.1052631578947368
 40
0.1052631578947368
 40
0.1052631578947368
 40
0.1578947368421053
 40
0.1578947368421053
 40
0.1578947368421053
 40
0.1578947368421053
 40
0.2105263157894737
 40
0.2105263157894737
 40
0.2105263157894737
 40
0.2105263157894737
 40
0.2631578947368421
 40
0.2631578947368421
 40
0.2631578947368421
 40
0.2631578947368421
 40
0.3157894736842105
 40
0.3157894736842105
 40
0.3157894736842105
 40
0.3157894736842105
 40
0.3684210526315789
 40
0.3684210526315789
 40
0.3684210526315789
 40
0.3684210526315789
 40
0.4210526315789473
 40
0.4210526315789473
 40
0.4210526315789473
 40
0.4210526315789473
 40
0.4736842105263158
 40
0.4736842105263158
 40
0.4736842105263158
 40
0.4736842105263158
 40
0.5263157894736842
 40
0.5263157894736842
 40
0.5263157894736842
 40
0.5263157894736842
 40
0.5789473684210527
 40
0.5789473684210527
 40
0.5789473684210527
 40
0.5789473684210527
 40
0.631578947368421
 40
0.631578947368421
 40
0.631578947368421
 40
0.631578947368421
 40
0.6842105263157895
 40
0.6842105263157895
 40
0.6842105263157895
 40
0.6842105263157895
 40
0.7368421052631579
 40
0.7368421052631579
 40
0.7368421052631579
 40
0.7368421052631579
 40
0.7894736842105263
 40
0.7894736842105263
 40
0.7894736842105263
 40
0.7894736842105263
 40
0.8421052631578947
 40
0.8421052631578947
 40
0.8421052631578947
 40
0.8421052631578947
 40
0.8947368421052632
 40
0.8947368421052632
 40
0.8947368421052632
 40
0.8947368421052632
 40
1.0
 40
1.0
 40
1.0
 40
1.0
 10
-0.85765
 20
-4.05146
 30
0.0
 10
-0.71473
 20
-3.84839
 30
0.0
 10
-0.3763
 20
-3.24034
 30
0.0
 10
-0.86827
 20
-3.21095
 30
0.0
 10
-0.86827
 20
-3.21095
 30
0.0
 10
-0.83836
 20
-3.07523
 30
0.0
 10
-0.47259
 20
-2.57894
 30
0.0
 10
-0.79674
 20
-2.36893
 30
0.0
 10
-0.79674
 20
-2.36893
 30
0.0
 10
-0.91086
 20
-2.29499
 30
0.0
 10
-0.99732
 20
-2.32465
 30
0.0
 10
-1.10709
 20
-2.36286
 30
0.0
 10
-1.10709
 20
-2.36286
 30
0.0
 10
-1.08431
 20
-2.23771
 30
0.0
 10
-0.75967
 20
-1.57146
 30
0.0
 10
-1.17822
 20
-1.45147
 30
0.0
 10
-1.17822
 20
-1.45147
 30
0.0
 10
-1.30672
 20
-1.41463
 30
0.0
 10
-1.40986
 20
-1.50011
 30
0.0
 10
-1.50312
 20
-1.53274
 30
0.0
 10
-1.50312
 20
-1.53274
 30
0.0
 10
-1.47867
 20
-1.28368
 30
0.0
 10
-1.47662
 20
-0.68271
 30
0.0
 10
-1.81637
 20
-0.68253
 30
0.0
 10
-1.81637
 20
-0.68253
 30
0.0
 10
-1.97601
 20
-0.68244
 30
0.0
 10
-2.0291
 20
-0.79843
 30
0.0
 10
-2.06872
 20
-0.82852
 30
0.0
 10
-2.06872
 20
-0.82852
 30
0.0
 10
-2.37998
 20
-0.00293
 30
0.0
 10
-3.08855
 20
-0.11944
 30
0.0
 10
-2.93037
 20
-0.93787
 30
0.0
 10
-2.93037
 20
-0.93787
 30
0.0
 10
-2.91378
 20
-1.02372
 30
0.0
 10
-2.88347
 20
-1.11091
 30
0.0
 10
-2.87152
 20
-1.19558
 30
0.0
 10
-2.87152
 20
-1.19558
 30
0.0
 10
-3.25124
 20
-1.13547
 30
0.0
 10
-3.34896
 20
-1.42018
 30
0.0
 10
-3.22896
 20
-1.74429
 30
0.0
 10
-3.22896
 20
-1.74429
 30
0.0
 10
-3.19793
 20
-1.82809
 30
0.0
 10
-3.1312
 20
-1.93817
 30
0.0
 10
-3.12775
 20
-1.97967
 30
0.0
 10
-3.12775
 20
-1.97967
 30
0.0
 10
-3.34014
 20
-1.98614
 30
0.0
 10
-3.39163
 20
-1.95062
 30
0.0
 10
-3.50586
 20
-2.1997
 30
0.0
 10
-3.50586
 20
-2.1997
 30
0.0
 10
-3.57675
 20
-2.13755
 30
0.0
 10
-3.77141
 20
-1.74858
 30
0.0
 10
-3.82264
 20
-1.62568
 30
0.0
 10
-3.82264
 20
-1.62568
 30
0.0
 10
-4.12151
 20
-0.90879
 30
0.0
 10
-4.21263
 20
-0.10437
 30
0.0
 10
-4.08514
 20
0.68696
 30
0.0
 10
-4.08514
 20
0.68696
 30
0.0
 10
-3.94076
 20
1.58315
 30
0.0
 10
-3.49737
 20
2.40981
 30
0.0
 10
-2.83837
 20
3.02417
 30
0.0
 10
-2.83837
 20
3.02417
 30
0.0
 10
-0.67716
 20
5.03896
 30
0.0
 10
3.00963
 20
4.20005
 30
0.0
 10
3.94767
 20
1.29214
 30
0.0
 10
3.94767
 20
1.29214
 30
0.0
 10
4.55482
 20
-0.59001
 30
0.0
 10
3.76293
 20
-2.65592
 30
0.0
 10
2.06791
 20
-3.59142
 30
0.0
 10
2.06791
 20
-3.59142
 30
0.0
 10
1.1915
 20
-4.07512
 30
0.0
 10
0.16504
 20
-4.29503
 30
0.0
 10
-0.85765
 20
-4.05146
 30
0.0
  0
SPLINE
  5
43
330
1F
100
AcDbEntity
  8
LAYER_1
100
AcDbSpline
210
0.0
220
0.0
230
1.0
 70
    11
 71
     3
 72
   144
 73
   140
 74
     0
 42
0.0000000001
 43
0.0000000001
 12
1.0
 22
0.0
 32
0.0
 13
1.0
 23
0.0
 33
0.0
 40
0.0
 40
0.0
 40
0.0
 40
0.0
 40
0.0277777777777778
 40
0.0277777777777778
 40
0.0277777777777778
 40
0.0277777777777778
 40
0.0555555555555556
 40
0.0555555555555556
 40
0.0555555555555556
 40
0.0555555555555556
 40
0.0833333333333333
 40
0.0833333333333333
 40
0.0833333333333333
 40
0.0833333333333333
 40
0.1111111111111111
 40
0.1111111111111111
 40
0.1111111111111111
 40
0.1111111111111111
 40
0.1388888888888889
 40
0.1388888888888889
 40
0.1388888888888889
 40
0.1388888888888889
 40
0.1666666666666667
 40
0.1666666666666667
 40
0.1666666666666667
 40
0.1666666666666667
 40
0.1944444444444444
 40
0.1944444444444444
 40
0.1944444444444444
 40
0.1944444444444444
 40
0.2222222222222222
 40
0.2222222222222222
 40
0.2222222222222222
 40
0.2222222222222222
 40
0.25
 40
0.25
 40
0.25
 40
0.25
 40
0.2777777777777778
 40
0.2777777777777778
 40
0.2777777777777778
 40
0.2777777777777778
 40
0.3055555555555556
 40
0.3055555555555556
 40
0.3055555555555556
 40
0.3055555555555556
 40
0.3333333333333333
 40
0.3333333333333333
 40
0.3333333333333333
 40
0.3333333333333333
 40
0.3611111111111111
 40
0.3611111111111111
 40
0.3611111111111111
 40
0.3611111111111111
 40
0.3888888888888889
 40
0.3888888888888889
 40
0.3888888888888889
 40
0.3888888888888889
 40
0.4166666666666667
 40
0.4166666666666667
 40
0.4166666666666667
 40
0.4166666666666667
 40
0.4444444444444444
 40
0.4444444444444444
 40
0.4444444444444444
 40
0.4444444444444444
 40
0.4722222222222222
 40
0.4722222222222222
 40
0.4722222222222222
 40
0.4722222222222222
 40
0.5
 40
0.5
 40
0.5
 40
0.5
 40
0.5277777777777778
 40
0.5277777777777778
 40
0.5277777777777778
 40
0.5277777777777778
 40
0.5555555555555556
 40
0.5555555555555556
 40
0.5555555555555556
 40
0.5555555555555556
 40
0.5833333333333334
 40
0.5833333333333334
 40
0.5833333333333334
 40
0.5833333333333334
 40
0.6111111111111112
 40
0.6111111111111112
 40
0.6111111111111112
 40
0.6111111111111112
 40
0.6388888888888888
 40
0.6388888888888888
 40
0.6388888888888888
 40
0.6388888888888888
 40
0.6666666666666666
 40
0.6666666666666666
 40
0.6666666666666666
 40
0.6666666666666666
 40
0.6944444444444444
 40
0.6944444444444444
 40
0.6944444444444444
 40
0.6944444444444444
 40
0.7222222222222222
 40
0.7222222222222222
 40
0.7222222222222222
 40
0.7222222222222222
 40
0.75
 40
0.75
 40
0.75
 40
0.75
 40
0.7777777777777778
 40
0.7777777777777778
 40
0.7777777777777778
 40
0.7777777777777778
 40
0.8055555555555556
 40
0.8055555555555556
 40
0.8055555555555556
 40
0.8055555555555556
 40
0.8333333333333334
 40
0.8333333333333334
 40
0.8333333333333334
 40
0.8333333333333334
 40
0.8611111111111112
 40
0.8611111111111112
 40
0.8611111111111112
 40
0.8611111111111112
 40
0.8888888888888888
 40
0.8888888888888888
 40
0.8888888888888888
 40
0.8888888888888888
 40
0.9166666666666666
 40
0.9166666666666666
 40
0.9166666666666666
 40
0.9166666666666666
 40
0.9444444444444444
 40
0.9444444444444444
 40
0.9444444444444444
 40
0.9444444444444444
 40
1.0
 40
1.0
 40
1.0
 40
1.0
 10
-3.36905
 20
-2.88046
 30
0.0
 10
-3.57907
 20
-2.94003
 30
0.0
 10
-3.64025
 20
-3.10422
 30
0.0
 10
-3.55257
 20
-3.33761
 30
0.0
 10
-3.55257
 20
-3.33761
 30
0.0
 10
-3.48002
 20
-3.53073
 30
0.0
 10
-3.36091
 20
-3.63886
 30
0.0
 10
-3.25318
 20
-3.75976
 30
0.0
 10
-3.25318
 20
-3.75976
 30
0.0
 10
-3.31313
 20
-3.8066
 30
0.0
 10
-3.49494
 20
-3.87558
 30
0.0
 10
-3.40313
 20
-4.07703
 30
0.0
 10
-3.40313
 20
-4.07703
 30
0.0
 10
-3.27642
 20
-4.35506
 30
0.0
 10
-2.85754
 20
-4.60194
 30
0.0
 10
-2.84891
 20
-4.33559
 30
0.0
 10
-2.84891
 20
-4.33559
 30
0.0
 10
-2.84526
 20
-4.22322
 30
0.0
 10
-3.06422
 20
-4.12662
 30
0.0
 10
-3.08434
 20
-4.04459
 30
0.0
 10
-3.08434
 20
-4.04459
 30
0.0
 10
-3.05269
 20
-4.05932
 30
0.0
 10
-2.92605
 20
-4.06687
 30
0.0
 10
-2.87955
 20
-4.07165
 30
0.0
 10
-2.87955
 20
-4.07165
 30
0.0
 10
-2.75965
 20
-4.08396
 30
0.0
 10
-2.65998
 20
-3.95641
 30
0.0
 10
-2.80453
 20
-3.82024
 30
0.0
 10
-2.80453
 20
-3.82024
 30
0.0
 10
-2.92927
 20
-3.70272
 30
0.0
 10
-3.33323
 20
-3.35927
 30
0.0
 10
-3.31877
 20
-3.18378
 30
0.0
 10
-3.31877
 20
-3.18378
 30
0.0
 10
-3.30717
 20
-3.04301
 30
0.0
 10
-2.92375
 20
-3.30359
 30
0.0
 10
-2.87
 20
-3.32951
 30
0.0
 10
-2.87
 20
-3.32951
 30
0.0
 10
-2.78013
 20
-3.37285
 30
0.0
 10
-2.68685
 20
-3.33925
 30
0.0
 10
-2.66095
 20
-3.25693
 30
0.0
 10
-2.66095
 20
-3.25693
 30
0.0
 10
-2.62953
 20
-3.15705
 30
0.0
 10
-2.72395
 20
-3.09081
 30
0.0
 10
-2.76581
 20
-3.04899
 30
0.0
 10
-2.76581
 20
-3.04899
 30
0.0
 10
-2.8851
 20
-2.92983
 30
0.0
 10
-3.30728
 20
-2.52413
 30
0.0
 10
-3.21845
 20
-2.24054
 30
0.0
 10
-3.21845
 20
-2.24054
 30
0.0
 10
-2.98135
 20
-2.20146
 30
0.0
 10
-2.81373
 20
-2.65493
 30
0.0
 10
-2.62212
 20
-2.54419
 30
0.0
 10
-2.62212
 20
-2.54419
 30
0.0
 10
-2.36088
 20
-2.39321
 30
0.0
 10
-3.00391
 20
-1.98387
 30
0.0
 10
-3.00765
 20
-1.47497
 30
0.0
 10
-3.00765
 20
-1.47497
 30
0.0
 10
-2.82162
 20
-1.54927
 30
0.0
 10
-2.81304
 20
-1.61679
 30
0.0
 10
-2.67765
 20
-1.71129
 30
0.0
 10
-2.67765
 20
-1.71129
 30
0.0
 10
-2.61974
 20
-1.75171
 30
0.0
 10
-2.3926
 20
-1.77676
 30
0.0
 10
-2.51418
 20
-1.4202
 30
0.0
 10
-2.51418
 20
-1.4202
 30
0.0
 10
-2.57113
 20
-1.25317
 30
0.0
 10
-2.80838
 20
-0.66214
 30
0.0
 10
-2.60742
 20
-0.52874
 30
0.0
 10
-2.60742
 20
-0.52874
 30
0.0
 10
-2.32357
 20
-0.61748
 30
0.0
 10
-2.27009
 20
-1.33251
 30
0.0
 10
-2.1626
 20
-1.40067
 30
0.0
 10
-2.1626
 20
-1.40067
 30
0.0
 10
-1.9613
 20
-1.5283
 30
0.0
 10
-1.95892
 20
-1.05566
 30
0.0
 10
-1.82374
 20
-0.97189
 30
0.0
 10
-1.82374
 20
-0.97189
 30
0.0
 10
-1.6327
 20
-1.5176
 30
0.0
 10
-1.98405
 20
-2.17657
 30
0.0
 10
-1.69903
 20
-2.17893
 30
0.0
 10
-1.69903
 20
-2.17893
 30
0.0
 10
-1.52899
 20
-2.18034
 30
0.0
 10
-1.51706
 20
-1.84979
 30
0.0
 10
-1.26953
 20
-1.72893
 30
0.0
 10
-1.26953
 20
-1.72893
 30
0.0
 10
-1.13438
 20
-1.9132
 30
0.0
 10
-1.45834
 20
-2.52359
 30
0.0
 10
-1.54469
 20
-2.69329
 30
0.0
 10
-1.54469
 20
-2.69329
 30
0.0
 10
-1.68107
 20
-2.96129
 30
0.0
 10
-1.44852
 20
-3.01656
 30
0.0
 10
-1.33022
 20
-2.88856
 30
0.0
 10
-1.33022
 20
-2.88856
 30
0.0
 10
-1.27391
 20
-2.82764
 30
0.0
 10
-1.07099
 20
-2.61507
 30
0.0
 10
-0.95744
 20
-2.60555
 30
0.0
 10
-0.95744
 20
-2.60555
 30
0.0
 10
-0.95647
 20
-3.07893
 30
0.0
 10
-1.41851
 20
-3.37238
 30
0.0
 10
-1.42668
 20
-3.55511
 30
0.0
 10
-1.42668
 20
-3.55511
 30
0.0
 10
-1.43065
 20
-3.64398
 30
0.0
 10
-1.36784
 20
-3.70469
 30
0.0
 10
-1.27127
 20
-3.68218
 30
0.0
 10
-1.27127
 20
-3.68218
 30
0.0
 10
-1.23067
 20
-3.67271
 30
0.0
 10
-0.97117
 20
-3.52152
 30
0.0
 10
-0.88958
 20
-3.48718
 30
0.0
 10
-0.88958
 20
-3.48718
 30
0.0
 10
-0.90936
 20
-3.84033
 30
0.0
 10
-1.40524
 20
-4.14435
 30
0.0
 10
-1.3418
 20
-4.31988
 30
0.0
 10
-1.3418
 20
-4.31988
 30
0.0
 10
-1.31811
 20
-4.38542
 30
0.0
 10
-1.19719
 20
-4.45129
 30
0.0
 10
-1.0912
 20
-4.34778
 30
0.0
 10
-1.0912
 20
-4.34778
 30
0.0
 10
-1.03879
 20
-4.29659
 30
0.0
 10
-0.92447
 20
-4.34858
 30
0.0
 10
-0.77901
 20
-4.37288
 30
0.0
 10
-0.77901
 20
-4.37288
 30
0.0
 10
2.2141
 20
-4.87291
 30
0.0
 10
4.84591
 20
-2.38657
 30
0.0
 10
4.38729
 20
0.68584
 30
0.0
 10
4.38729
 20
0.68584
 30
0.0
 10
4.18799
 20
2.02102
 30
0.0
 10
3.39996
 20
3.12808
 30
0.0
 10
2.27494
 20
3.80791
 30
0.0
 10
2.27494
 20
3.80791
 30
0.0
 10
0.8104
 20
4.69291
 30
0.0
 10
-1.16048
 20
4.61818
 30
0.0
 10
-2.56472
 20
3.61979
 30
0.0
 10
-2.56472
 20
3.61979
 30
0.0
 10
-4.20295
 20
2.45503
 30
0.0
 10
-4.84364
 20
0.32543
 30
0.0
 10
-4.15535
 20
-1.56693
 30
0.0
 10
-4.15535
 20
-1.56693
 30
0.0
 10
-3.9754
 20
-2.06169
 30
0.0
 10
-3.68892
 20
-2.4808
 30
0.0
 10
-3.36905
 20
-2.88046
 30
0.0
  0
SPLINE
  5
44
330
1F
100
AcDbEntity
  8
LAYER_1
100
AcDbSpline
210
0.0
220
0.0
230
1.0
 70
    11
 71
     3
 72
    76
 73
    72
 74
     0
 42
0.0000000001
 43
0.0000000001
 12
1.0
 22
0.0
 32
0.0
 13
1.0
 23
0.0
 33
0.0
 40
0.0
 40
0.0
 40
0.0
 40
0.0
 40
0.0526315789473684
 40
0.0526315789473684
 40
0.0526315789473684
 40
0.0526315789473684
 40
0.1052631578947368
 40
0.1052631578947368
 40
0.1052631578947368
 40
0.1052631578947368
 40
0.1578947368421053
 40
0.1578947368421053
 40
0.1578947368421053
 40
0.1578947368421053
 40
0.2105263157894737
 40
0.2105263157894737
 40
0.2105263157894737
 40
0.2105263157894737
 40
0.2631578947368421
 40
0.2631578947368421
 40
0.2631578947368421
 40
0.2631578947368421
 40
0.3157894736842105
 40
0.3157894736842105
 40
0.3157894736842105
 40
0.3157894736842105
 40
0.3684210526315789
 40
0.3684210526315789
 40
0.3684210526315789
 40
0.3684210526315789
 40
0.4210526315789473
 40
0.4210526315789473
 40
0.4210526315789473
 40
0.4210526315789473
 40
0.4736842105263158
 40
0.4736842105263158
 40
0.4736842105263158
 40
0.4736842105263158
 40
0.5263157894736842
 40
0.5263157894736842
 40
0.5263157894736842
 40
0.5263157894736842
 40
0.5789473684210527
 40
0.5789473684210527
 40
0.5789473684210527
 40
0.5789473684210527
 40
0.631578947368421
 40
0.631578947368421
 40
0.631578947368421
 40
0.631578947368421
 40
0.6842105263157895
 40
0.6842105263157895
 40
0.6842105263157895
 40
0.6842105263157895
 40
0.7368421052631579
 40
0.7368421052631579
 40
0.7368421052631579
 40
0.7368421052631579
 40
0.7894736842105263
 40
0.7894736842105263
 40
0.7894736842105263
 40
0.7894736842105263
 40
0.8421052631578947
 40
0.8421052631578947
 40
0.8421052631578947
 40
0.8421052631578947
 40
0.8947368421052632
 40
0.8947368421052632
 40
0.8947368421052632
 40
0.8947368421052632
 40
1.0
 40
1.0
 40
1.0
 40
1.0
 10
1.01937
 20
2.32422
 30
0.0
 10
1.01937
 20
2.32422
 30
0.0
 10
1.02505
 20
0.12695
 30
0.0
 10
1.02505
 20
0.12695
 30
0.0
 10
1.02505
 20
0.12695
 30
0.0
 10
1.02525
 20
-0.04522
 30
0.0
 10
1.21636
 20
0.00939
 30
0.0
 10
1.47461
 20
0.0094
 30
0.0
 10
1.47461
 20
0.0094
 30
0.0
 10
1.59573
 20
0.00941
 30
0.0
 10
1.56294
 20
0.18212
 30
0.0
 10
1.56278
 20
0.35156
 30
0.0
 10
1.56278
 20
0.35156
 30
0.0
 10
1.56278
 20
0.35156
 30
0.0
 10
1.56125
 20
1.40751
 30
0.0
 10
1.56125
 20
1.40751
 30
0.0
 10
1.56125
 20
1.40751
 30
0.0
 10
1.56125
 20
1.40751
 30
0.0
 10
1.91404
 20
0.5763
 30
0.0
 10
1.91404
 20
0.5763
 30
0.0
 10
1.91404
 20
0.5763
 30
0.0
 10
1.96761
 20
0.44578
 30
0.0
 10
1.97855
 20
0.37995
 30
0.0
 10
2.13867
 20
0.38046
 30
0.0
 10
2.13867
 20
0.38046
 30
0.0
 10
2.27449
 20
0.38087
 30
0.0
 10
2.28758
 20
0.48843
 30
0.0
 10
2.32907
 20
0.59136
 30
0.0
 10
2.32907
 20
0.59136
 30
0.0
 10
2.397
 20
0.75992
 30
0.0
 10
2.61673
 20
1.3262
 30
0.0
 10
2.68382
 20
1.43661
 30
0.0
 10
2.68382
 20
1.43661
 30
0.0
 10
2.68382
 20
1.43661
 30
0.0
 10
2.68518
 20
0.10742
 30
0.0
 10
2.68518
 20
0.10742
 30
0.0
 10
2.68518
 20
0.10742
 30
0.0
 10
2.68518
 20
-0.02843
 30
0.0
 10
2.837
 20
0.0093
 30
0.0
 10
2.95899
 20
0.00941
 30
0.0
 10
2.95899
 20
0.00941
 30
0.0
 10
3.27339
 20
0.0095
 30
0.0
 10
3.21641
 20
-0.04766
 30
0.0
 10
3.21656
 20
0.54687
 30
0.0
 10
3.21656
 20
0.54687
 30
0.0
 10
3.21656
 20
0.54687
 30
0.0
 10
3.21328
 20
2.46094
 30
0.0
 10
3.21328
 20
2.46094
 30
0.0
 10
3.21328
 20
2.46094
 30
0.0
 10
3.21325
 20
2.54812
 30
0.0
 10
3.18277
 20
2.56872
 30
0.0
 10
3.0957
 20
2.56872
 30
0.0
 10
3.0957
 20
2.56872
 30
0.0
 10
2.40232
 20
2.56872
 30
0.0
 10
2.59802
 20
2.73381
 30
0.0
 10
2.17469
 20
1.56568
 30
0.0
 10
2.17469
 20
1.56568
 30
0.0
 10
2.15887
 20
1.52183
 30
0.0
 10
2.13294
 20
1.43771
 30
0.0
 10
2.10938
 20
1.40147
 30
0.0
 10
2.10938
 20
1.40147
 30
0.0
 10
2.05732
 20
1.47307
 30
0.0
 10
1.80671
 20
2.25992
 30
0.0
 10
1.77968
 20
2.33635
 30
0.0
 10
1.77968
 20
2.33635
 30
0.0
 10
1.69894
 20
2.55875
 30
0.0
 10
1.69492
 20
2.5687
 30
0.0
 10
1.50391
 20
2.56878
 30
0.0
 10
1.50391
 20
2.56878
 30
0.0
 10
0.98814
 20
2.56901
 30
0.0
 10
1.02024
 20
2.60717
 30
0.0
 10
1.01937
 20
2.32422
 30
0.0
  0
SPLINE
  5
45
330
1F
100
AcDbEntity
  8
LAYER_1
100
AcDbSpline
210
0.0
220
0.0
230
1.0
 70
    11
 71
     3
 72
    60
 73
    56
 74
     0
 42
0.0000000001
 43
0.0000000001
 12
1.0
 22
0.0
 32
0.0
 13
1.0
 23
0.0
 33
0.0
 40
0.0
 40
0.0
 40
0.0
 40
0.0
 40
0.0666666666666667
 40
0.0666666666666667
 40
0.0666666666666667
 40
0.0666666666666667
 40
0.1333333333333333
 40
0.1333333333333333
 40
0.1333333333333333
 40
0.1333333333333333
 40
0.2
 40
0.2
 40
0.2
 40
0.2
 40
0.2666666666666667
 40
0.2666666666666667
 40
0.2666666666666667
 40
0.2666666666666667
 40
0.3333333333333333
 40
0.3333333333333333
 40
0.3333333333333333
 40
0.3333333333333333
 40
0.4
 40
0.4
 40
0.4
 40
0.4
 40
0.4666666666666667
 40
0.4666666666666667
 40
0.4666666666666667
 40
0.4666666666666667
 40
0.5333333333333333
 40
0.5333333333333333
 40
0.5333333333333333
 40
0.5333333333333333
 40
0.6
 40
0.6
 40
0.6
 40
0.6
 40
0.6666666666666666
 40
0.6666666666666666
 40
0.6666666666666666
 40
0.6666666666666666
 40
0.7333333333333333
 40
0.7333333333333333
 40
0.7333333333333333
 40
0.7333333333333333
 40
0.8
 40
0.8
 40
0.8
 40
0.8
 40
0.8666666666666667
 40
0.8666666666666667
 40
0.8666666666666667
 40
0.8666666666666667
 40
1.0
 40
1.0
 40
1.0
 40
1.0
 10
-0.6937
 20
1.39653
 30
0.0
 10
-1.19749
 20
1.10291
 30
0.0
 10
-1.21938
 20
0.41549
 30
0.0
 10
-0.81507
 20
0.12232
 30
0.0
 10
-0.81507
 20
0.12232
 30
0.0
 10
-0.51873
 20
-0.09256
 30
0.0
 10
-0.12832
 20
-0.07765
 30
0.0
 10
0.17177
 20
0.12103
 30
0.0
 10
0.17177
 20
0.12103
 30
0.0
 10
0.21944
 20
0.15259
 30
0.0
 10
0.25556
 20
0.18859
 30
0.0
 10
0.30252
 20
0.21527
 30
0.0
 10
0.30252
 20
0.21527
 30
0.0
 10
0.45913
 20
-0.04482
 30
0.0
 10
0.43415
 20
0.01151
 30
0.0
 10
0.73248
 20
0.00933
 30
0.0
 10
0.73248
 20
0.00933
 30
0.0
 10
0.89516
 20
0.00814
 30
0.0
 10
0.86934
 20
0.03231
 30
0.0
 10
0.86962
 20
0.18556
 30
0.0
 10
0.86962
 20
0.18556
 30
0.0
 10
0.8699
 20
0.338
 30
0.0
 10
0.86108
 20
0.33669
 30
0.0
 10
0.79105
 20
0.42957
 30
0.0
 10
0.79105
 20
0.42957
 30
0.0
 10
0.59805
 20
0.68552
 30
0.0
 10
0.64078
 20
0.60633
 30
0.0
 10
0.82548
 20
1.06905
 30
0.0
 10
0.82548
 20
1.06905
 30
0.0
 10
0.93814
 20
1.3513
 30
0.0
 10
0.91786
 20
1.34705
 30
0.0
 10
0.6836
 20
1.34584
 30
0.0
 10
0.6836
 20
1.34584
 30
0.0
 10
0.37706
 20
1.34426
 30
0.0
 10
0.43832
 20
1.35401
 30
0.0
 10
0.32172
 20
1.03323
 30
0.0
 10
0.32172
 20
1.03323
 30
0.0
 10
0.32172
 20
1.03323
 30
0.0
 10
0.06935
 20
1.32813
 30
0.0
 10
0.06935
 20
1.32813
 30
0.0
 10
0.06935
 20
1.32813
 30
0.0
 10
0.15568
 20
1.39887
 30
0.0
 10
0.24795
 20
1.4262
 30
0.0
 10
0.34942
 20
1.58452
 30
0.0
 10
0.34942
 20
1.58452
 30
0.0
 10
0.60383
 20
1.98149
 30
0.0
 10
0.35986
 20
2.52813
 30
0.0
 10
-0.0888
 20
2.57671
 30
0.0
 10
-0.0888
 20
2.57671
 30
0.0
 10
-0.69783
 20
2.64266
 30
0.0
 10
-1.05772
 20
2.07342
 30
0.0
 10
-0.79323
 20
1.56984
 30
0.0
 10
-0.79323
 20
1.56984
 30
0.0
 10
-0.7662
 20
1.51837
 30
0.0
 10
-0.71136
 20
1.44307
 30
0.0
 10
-0.6937
 20
1.39653
 30
0.0
  0
ENDSEC
  0
SECTION
  2
OBJECTS
  0
DICTIONARY
  5
C
330
0
100
AcDbDictionary
  3
ACAD_GROUP
350
D
  3
ACAD_LAYOUT
350
1A
  3
ACAD_MATERIAL
350
3B
  3
ACAD_MLEADERSTYLE
350
68
  3
ACAD_MLINESTYLE
350
17
  3
ACAD_PLOTSETTINGS
350
19
  3
ACAD_VISUALSTYLE
350
2A
  3
ACDBHEADERROUNDTRIPXREC
350
46
  3
ACDBVARIABLEDICTIONARY
350
66
  0
DICTIONARY
  5
D
102
{ACAD_REACTORS
330
C
102
}
330
C
100
AcDbDictionary
  0
DICTIONARY
  5
1A
102
{ACAD_REACTORS
330
C
102
}
330
C
100
AcDbDictionary
  0
DICTIONARY
  5
3B
102
{ACAD_REACTORS
330
C
102
}
330
C
100
AcDbDictionary
  3
BYBLOCK
350
3D
  3
BYLAYER
350
3C
  3
GLOBAL
350
3E
  0
DICTIONARY
  5
68
102
{ACAD_REACTORS
330
C
102
}
330
C
100
AcDbDictionary
  0
DICTIONARY
  5
17
102
{ACAD_REACTORS
330
C
102
}
330
C
100
AcDbDictionary
  3
STANDARD
350
18
  0
DICTIONARY
  5
19
102
{ACAD_REACTORS
330
C
102
}
330
C
100
AcDbDictionary
  0
DICTIONARY
  5
2A
102
{ACAD_REACTORS
330
C
102
}
330
C
100
AcDbDictionary
  3
2DWIREFRAME
350
2F
  3
3D_HIDDEN
350
31
  3
3DWIREFRAME
350
30
  3
BASIC
350
32
  3
BRIGHTEN
350
36
  3
COLORCHANGE
350
3A
  3
CONCEPTUAL
350
34
  3
DIM
350
35
  3
FACEPATTERN
350
39
  3
FLAT
350
2B
  3
FLATWITHEDGES
350
2C
  3
GOURAUD
350
2D
  3
GOURAUDWITHEDGES
350
2E
  3
LINEPATTERN
350
38
  3
REALISTIC
350
33
  3
THICKEN
350
37
  0
DICTIONARY
  5
46
102
{ACAD_REACTORS
330
C
102
}
330
C
100
AcDbDictionary
  3
CEPSNTYPE
350
4F
  3
DIMSTYLEDATA
350
65
  3
FINGERPRINTGUID
350
50
  3
HYPERLINKBASE
350
49
  3
INSUNITS
350
4E
  3
LAYOUTDICT
350
4B
  3
LWETCUNION
350
4D
  3
PLOTSETDICT
350
4C
  3
PSVPSCALE
350
52
  3
PUCSBASE
350
55
  3
PUCSORGBACK
350
5B
  3
PUCSORGBOTTOM
350
57
  3
PUCSORGFRONT
350
5A
  3
PUCSORGLEFT
350
58
  3
PUCSORGRIGHT
350
59
  3
PUCSORGTOP
350
56
  3
PUCSORTHOREF
350
53
  3
PUCSORTHOVIEW
350
54
  3
STYLESHEET
350
4A
  3
TSTACKALIGN
350
47
  3
TSTACKSIZE
350
48
  3
UCSBASE
350
5E
  3
UCSORGBACK
350
64
  3
UCSORGBOTTOM
350
60
  3
UCSORGFRONT
350
63
  3
UCSORGLEFT
350
61
  3
UCSORGRIGHT
350
62
  3
UCSORGTOP
350
5F
  3
UCSORTHOREF
350
5C
  3
UCSORTHOVIEW
350
5D
  3
VERSIONGUID
350
51
  0
DICTIONARY
  5
66
102
{ACAD_REACTORS
330
C
102
}
330
C
100
AcDbDictionary
  3
DIMASSOC
350
69
  3
HIDETEXT
350
6A
  0
MATERIAL
  5
3D
102
{ACAD_REACTORS
330
3B
102
}
102
{ACAD_XDICTIONARY
360
6D
102
}
330
3B
100
AcDbMaterial
  1
ByBlock
  0
MATERIAL
  5
3C
102
{ACAD_REACTORS
330
3B
102
}
102
{ACAD_XDICTIONARY
360
6B
102
}
330
3B
100
AcDbMaterial
  1
ByLayer
  0
MATERIAL
  5
3E
102
{ACAD_REACTORS
330
3B
102
}
102
{ACAD_XDICTIONARY
360
6F
102
}
330
3B
100
AcDbMaterial
  1
Global
  0
MLINESTYLE
  5
18
102
{ACAD_REACTORS
330
17
102
}
330
17
100
AcDbMlineStyle
  2
Standard
 70
     0
  3

 62
   256
 51
90.0
 52
90.0
 71
     2
 49
0.5
 62
   256
  6
BYLAYER
 49
-0.5
 62
   256
  6
BYLAYER
  0
ACAD_PROXY_OBJECT
  5
2F
102
{ACAD_REACTORS
330
2A
102
}
330
2A
100
AcDbProxyObject
 90
      499
 91
      501
 93
      436
310
42CC9915DA5C99599C985B595049028333333333333E3BF0000000000000FB0107901411070040501600405405064090741402480A0340
1001
ACAD
1000
AcDbSavedByObjectVersion
1070
     0
  0
ACAD_PROXY_OBJECT
  5
31
102
{ACAD_REACTORS
330
2A
102
}
330
2A
100
AcDbProxyObject
 90
      499
 91
      501
 93
      500
310
424CD108121A5919195B90640502408333333333333E3BF0000000000000FB01079024090700405020000000000001110200405405064090740C02480A0340
1001
ACAD
1000
AcDbSavedByObjectVersion
1070
     0
  0
ACAD_PROXY_OBJECT
  5
30
102
{ACAD_REACTORS
330
2A
102
}
330
2A
100
AcDbProxyObject
 90
      499
 91
      501
 93
      436
310
42CCD915DA5C99599C985B595059028333333333333E3BF0000000000000FB0107901411070040501600405405064090741402480A0340
1001
ACAD
1000
AcDbSavedByObjectVersion
1070
     0
  0
ACAD_PROXY_OBJECT
  5
32
102
{ACAD_REACTORS
330
2A
102
}
330
2A
100
AcDbProxyObject
 90
      499
 91
      501
 93
      388
310
4150985CDA58D07406404333333333333E3BF0000000000000FB0107A41107004050150841D405064090741402480A0350
1001
ACAD
1000
AcDbSavedByObjectVersion
1070
     0
  0
ACAD_PROXY_OBJECT
  5
36
102
{ACAD_REACTORS
330
2A
102
}
330
2A
100
AcDbProxyObject
 90
      499
 91
      501
 93
      428
310
42109C9A59DA1D195B90C409028333333333333E3BF0000000000000FB010790141107004050150841D405064090741402480A029950
1001
ACAD
1000
AcDbSavedByObjectVersion
1070
     0
  0
ACAD_PROXY_OBJECT
  5
3A
102
{ACAD_REACTORS
330
2A
102
}
330
2A
100
AcDbProxyObject
 90
      499
 91
      501
 93
      452
310
42D0DBDB1BDC90DA185B99D95104090240C333333333333E3BF0000000000000FB0108901411070040501508421405064090741402480A0350
1001
ACAD
1000
AcDbSavedByObjectVersion
1070
     0
  0
ACAD_PROXY_OBJECT
  5
34
102
{ACAD_REACTORS
330
2A
102
}
330
2A
100
AcDbProxyObject
 90
      499
 91
      501
 93
      500
310
4290DBDB98D95C1D1D585B10940D028333333333333E3BF0000000000000FB0107902409070040501000000000000111010841D405064090740C02480A0340
1001
ACAD
1000
AcDbSavedByObjectVersion
1070
     0
  0
ACAD_PROXY_OBJECT
  5
35
102
{ACAD_REACTORS
330
2A
102
}
330
2A
100
AcDbProxyObject
 90
      499
 91
      501
 93
      412
310
40D11A5B50B409028333333333333E3BF0000000000000FB010790141107004050150841D405064090741402480A02677FFFFFD0
1001
ACAD
1000
AcDbSavedByObjectVersion
1070
     0
  0
ACAD_PROXY_OBJECT
  5
39
102
{ACAD_REACTORS
330
2A
102
}
330
2A
100
AcDbProxyObject
 90
      499
 91
      501
 93
      444
310
42D19858D95C185D1D195C9B90F409028333333333333E3BF0000000000000FB010790141107004050150841D405064090741402480A0350
1001
ACAD
1000
AcDbSavedByObjectVersion
1070
     0
  0
ACAD_PROXY_OBJECT
  5
2B
102
{ACAD_REACTORS
330
2A
102
}
330
2A
100
AcDbProxyObject
 90
      499
 91
      501
 93
      388
310
41119B185D240901404333333333333E3BF0000000000000F9010740A41107004050150841D405064090741402480A1B50
1001
ACAD
1000
AcDbSavedByObjectVersion
1070
     0
  0
ACAD_PROXY_OBJECT
  5
2C
102
{ACAD_REACTORS
330
2A
102
}
330
2A
100
AcDbProxyObject
 90
      499
 91
      501
 93
      476
310
43519B185D15DA5D1A115919D95CD0140901404333333333333E3BF0000000000000F9010740901411070040501600405405064090741402480A1B50
1001
ACAD
1000
AcDbSavedByObjectVersion
1070
     0
  0
ACAD_PROXY_OBJECT
  5
2D
102
{ACAD_REACTORS
330
2A
102
}
330
2A
100
AcDbProxyObject
 90
      499
 91
      501
 93
      412
310
41D1DBDD5C985D5910240902404333333333333E3BF0000000000000F9010740A411070040501641D405064090741402480A1B50
1001
ACAD
1000
AcDbSavedByObjectVersion
1070
     0
  0
ACAD_PROXY_OBJECT
  5
2E
102
{ACAD_REACTORS
330
2A
102
}
330
2A
100
AcDbProxyObject
 90
      499
 91
      501
 93
      500
310
4411DBDD5C985D5915DA5D1A115919D95CD0340902404333333333333E3BF0000000000000F9010740901411070040501600405405064090741402480A1B50
1001
ACAD
1000
AcDbSavedByObjectVersion
1070
     0
  0
ACAD_PROXY_OBJECT
  5
38
102
{ACAD_REACTORS
330
2A
102
}
330
2A
100
AcDbProxyObject
 90
      499
 91
      501
 93
      444
310
42D31A5B995C185D1D195C9B90E409028333333333333E3BF0000000000000FB010790141107004050750841D405064090741402483A0350
1001
ACAD
1000
AcDbSavedByObjectVersion
1070
     0
  0
ACAD_PROXY_OBJECT
  5
33
102
{ACAD_REACTORS
330
2A
102
}
330
2A
100
AcDbProxyObject
 90
      499
 91
      501
 93
      420
310
425499585B1A5CDD1A58D08409028333333333333E3BF0000000000000FB01079019070040501508421405064090741402480A1B40
1001
ACAD
1000
AcDbSavedByObjectVersion
1070
     0
  0
ACAD_PROXY_OBJECT
  5
37
102
{ACAD_REACTORS
330
2A
102
}
330
2A
100
AcDbProxyObject
 90
      499
 91
      501
 93
      412
310
41D51A1A58DAD95B90D409028333333333333E3BF0000000000000FB010790141107004050150C41D405064090741402480A0350
1001
ACAD
1000
AcDbSavedByObjectVersion
1070
     0
  0
XRECORD
  5
4F
102
{ACAD_REACTORS
330
46
102
}
330
46
100
AcDbXrecord
 90
        0
  0
XRECORD
  5
65
102
{ACAD_REACTORS
330
46
102
}
330
46
100
AcDbXrecord
1000
DSTYLE
1002
{
1070
   340
340
11
1002
}
  0
XRECORD
  5
50
102
{ACAD_REACTORS
330
46
102
}
330
46
100
AcDbXrecord
  1
{B4D7B65B-F88B-4C6E-83B4-EF73B5652530}
  0
XRECORD
  5
49
102
{ACAD_REACTORS
330
46
102
}
330
46
100
AcDbXrecord
  1

  0
XRECORD
  5
4E
102
{ACAD_REACTORS
330
46
102
}
330
46
100
AcDbXrecord
 90
        5
  0
XRECORD
  5
4B
102
{ACAD_REACTORS
330
46
102
}
330
46
100
AcDbXrecord
340
1A
  0
XRECORD
  5
4D
102
{ACAD_REACTORS
330
46
102
}
330
46
100
AcDbXrecord
 90
    10781
  0
XRECORD
  5
4C
102
{ACAD_REACTORS
330
46
102
}
330
46
100
AcDbXrecord
340
19
  0
XRECORD
  5
52
102
{ACAD_REACTORS
330
46
102
}
330
46
100
AcDbXrecord
 40
0.0
  0
XRECORD
  5
55
102
{ACAD_REACTORS
330
46
102
}
330
46
100
AcDbXrecord
340
0
  0
XRECORD
  5
5B
102
{ACAD_REACTORS
330
46
102
}
330
46
100
AcDbXrecord
 10
0.0
 20
0.0
 30
0.0
  0
XRECORD
  5
57
102
{ACAD_REACTORS
330
46
102
}
330
46
100
AcDbXrecord
 10
0.0
 20
0.0
 30
0.0
  0
XRECORD
  5
5A
102
{ACAD_REACTORS
330
46
102
}
330
46
100
AcDbXrecord
 10
0.0
 20
0.0
 30
0.0
  0
XRECORD
  5
58
102
{ACAD_REACTORS
330
46
102
}
330
46
100
AcDbXrecord
 10
0.0
 20
0.0
 30
0.0
  0
XRECORD
  5
59
102
{ACAD_REACTORS
330
46
102
}
330
46
100
AcDbXrecord
 10
0.0
 20
0.0
 30
0.0
  0
XRECORD
  5
56
102
{ACAD_REACTORS
330
46
102
}
330
46
100
AcDbXrecord
 10
0.0
 20
0.0
 30
0.0
  0
XRECORD
  5
53
102
{ACAD_REACTORS
330
46
102
}
330
46
100
AcDbXrecord
340
0
  0
XRECORD
  5
54
102
{ACAD_REACTORS
330
46
102
}
330
46
100
AcDbXrecord
 70
     0
  0
XRECORD
  5
4A
102
{ACAD_REACTORS
330
46
102
}
330
46
100
AcDbXrecord
  1

  0
XRECORD
  5
47
102
{ACAD_REACTORS
330
46
102
}
330
46
100
AcDbXrecord
 90
        1
  0
XRECORD
  5
48
102
{ACAD_REACTORS
330
46
102
}
330
46
100
AcDbXrecord
 90
       70
  0
XRECORD
  5
5E
102
{ACAD_REACTORS
330
46
102
}
330
46
100
AcDbXrecord
340
0
  0
XRECORD
  5
64
102
{ACAD_REACTORS
330
46
102
}
330
46
100
AcDbXrecord
 10
0.0
 20
0.0
 30
0.0
  0
XRECORD
  5
60
102
{ACAD_REACTORS
330
46
102
}
330
46
100
AcDbXrecord
 10
0.0
 20
0.0
 30
0.0
  0
XRECORD
  5
63
102
{ACAD_REACTORS
330
46
102
}
330
46
100
AcDbXrecord
 10
0.0
 20
0.0
 30
0.0
  0
XRECORD
  5
61
102
{ACAD_REACTORS
330
46
102
}
330
46
100
AcDbXrecord
 10
0.0
 20
0.0
 30
0.0
  0
XRECORD
  5
62
102
{ACAD_REACTORS
330
46
102
}
330
46
100
AcDbXrecord
 10
0.0
 20
0.0
 30
0.0
  0
XRECORD
  5
5F
102
{ACAD_REACTORS
330
46
102
}
330
46
100
AcDbXrecord
 10
0.0
 20
0.0
 30
0.0
  0
XRECORD
  5
5C
102
{ACAD_REACTORS
330
46
102
}
330
46
100
AcDbXrecord
340
0
  0
XRECORD
  5
5D
102
{ACAD_REACTORS
330
46
102
}
330
46
100
AcDbXrecord
 70
     0
  0
XRECORD
  5
51
102
{ACAD_REACTORS
330
46
102
}
330
46
100
AcDbXrecord
  1
{FAEB1C32-E019-11D5-929B-00C0DF256EC4}
  0
DICTIONARYVAR
  5
69
102
{ACAD_REACTORS
330
66
102
}
330
66
100
DictionaryVariables
280
     0
  1
2
  0
DICTIONARYVAR
  5
6A
102
{ACAD_REACTORS
330
66
102
}
330
66
100
DictionaryVariables
280
     0
  1
1
  0
DICTIONARY
  5
6D
330
3D
100
AcDbDictionary
280
     1
  3
ACAD_XREC_ROUNDTRIP
360
6E
  0
DICTIONARY
  5
6B
330
3C
100
AcDbDictionary
280
     1
  3
ACAD_XREC_ROUNDTRIP
360
6C
  0
DICTIONARY
  5
6F
330
3E
100
AcDbDictionary
280
     1
  3
ACAD_XREC_ROUNDTRIP
360
70
  0
XRECORD
  5
6E
102
{ACAD_REACTORS
330
6D
102
}
330
6D
100
AcDbXrecord
102
MATERIAL
148
0.0
149
0.0
149
0.0
 93
        0
 94
      127
282
     0
 72
     1
 77
     1
171
     1
175
     1
179
     1
273
     0
  0
XRECORD
  5
6C
102
{ACAD_REACTORS
330
6B
102
}
330
6B
100
AcDbXrecord
102
MATERIAL
148
0.0
149
0.0
149
0.0
 93
        0
 94
      127
282
     0
 72
     1
 77
     1
171
     1
175
     1
179
     1
273
     0
  0
XRECORD
  5
70
102
{ACAD_REACTORS
330
6F
102
}
330
6F
100
AcDbXrecord
102
MATERIAL
148
0.0
149
0.0
149
0.0
 93
        0
 94
      127
282
     0
 72
     1
 77
     1
171
     1
175
     1
179
     1
273
     0
  0
ENDSEC
  0
EOF
