solid OpenSCAD_Model
  facet normal -1 0 0
    outer loop
      vertex -37 24.5 0
      vertex -37 19.5 1.5
      vertex -37 24.5 4.5
    endloop
  endfacet
  facet normal -1 0 0
    outer loop
      vertex -37 -24.5 0
      vertex -37 19.5 1.5
      vertex -37 24.5 0
    endloop
  endfacet
  facet normal -1 -0 0
    outer loop
      vertex -37 19.5 1.5
      vertex -37 -24.5 0
      vertex -37 -24.5 1.5
    endloop
  endfacet
  facet normal -1 -0 0
    outer loop
      vertex -37 24.5 4.5
      vertex -37 19.5 1.5
      vertex -37 19.5 4.5
    endloop
  endfacet
  facet normal 1 0 0
    outer loop
      vertex 37 19.5 1.5
      vertex 37 24.5 4.5
      vertex 37 19.5 4.5
    endloop
  endfacet
  facet normal 1 0 0
    outer loop
      vertex 37 24.5 4.5
      vertex 37 19.5 1.5
      vertex 37 24.5 0
    endloop
  endfacet
  facet normal 1 0 0
    outer loop
      vertex 37 -24.5 0
      vertex 37 19.5 1.5
      vertex 37 -24.5 1.5
    endloop
  endfacet
  facet normal 1 0 0
    outer loop
      vertex 37 19.5 1.5
      vertex 37 -24.5 0
      vertex 37 24.5 0
    endloop
  endfacet
  facet normal 0 0 1
    outer loop
      vertex 30 23.5 1.5
      vertex -30 23.5 1.5
      vertex 30 19.5 1.5
    endloop
  endfacet
  facet normal -0 0 1
    outer loop
      vertex 30 19.5 1.5
      vertex 37 -24.5 1.5
      vertex 37 19.5 1.5
    endloop
  endfacet
  facet normal 0 -0 1
    outer loop
      vertex 32.314 -29.4901 1.5
      vertex 37 -24.5 1.5
      vertex 30 19.5 1.5
    endloop
  endfacet
  facet normal 0 0 1
    outer loop
      vertex 37 -24.5 1.5
      vertex 32.314 -29.4901 1.5
      vertex 36.9606 -25.1267 1.5
    endloop
  endfacet
  facet normal 0 0 1
    outer loop
      vertex 36.9606 -25.1267 1.5
      vertex 32.314 -29.4901 1.5
      vertex 36.8429 -25.7435 1.5
    endloop
  endfacet
  facet normal 0 0 1
    outer loop
      vertex 36.8429 -25.7435 1.5
      vertex 32.314 -29.4901 1.5
      vertex 36.6489 -26.3406 1.5
    endloop
  endfacet
  facet normal 0 0 1
    outer loop
      vertex 36.6489 -26.3406 1.5
      vertex 32.314 -29.4901 1.5
      vertex 36.3815 -26.9088 1.5
    endloop
  endfacet
  facet normal 0 0 1
    outer loop
      vertex 36.3815 -26.9088 1.5
      vertex 32.314 -29.4901 1.5
      vertex 36.0451 -27.4389 1.5
    endloop
  endfacet
  facet normal 0 0 1
    outer loop
      vertex 36.0451 -27.4389 1.5
      vertex 32.314 -29.4901 1.5
      vertex 35.6448 -27.9227 1.5
    endloop
  endfacet
  facet normal 0 0 1
    outer loop
      vertex 35.6448 -27.9227 1.5
      vertex 32.314 -29.4901 1.5
      vertex 35.1871 -28.3526 1.5
    endloop
  endfacet
  facet normal 0 0 1
    outer loop
      vertex 35.1871 -28.3526 1.5
      vertex 32.314 -29.4901 1.5
      vertex 34.6791 -28.7216 1.5
    endloop
  endfacet
  facet normal 0 0 1
    outer loop
      vertex 34.6791 -28.7216 1.5
      vertex 32.314 -29.4901 1.5
      vertex 34.1289 -29.0241 1.5
    endloop
  endfacet
  facet normal 0 0 1
    outer loop
      vertex 34.1289 -29.0241 1.5
      vertex 32.314 -29.4901 1.5
      vertex 33.5451 -29.2553 1.5
    endloop
  endfacet
  facet normal 0 0 1
    outer loop
      vertex 33.5451 -29.2553 1.5
      vertex 32.314 -29.4901 1.5
      vertex 32.9369 -29.4114 1.5
    endloop
  endfacet
  facet normal 0 0 1
    outer loop
      vertex -30 19.5 1.5
      vertex 30 19.5 1.5
      vertex -30 23.5 1.5
    endloop
  endfacet
  facet normal 0 0 1
    outer loop
      vertex 30 19.5 1.5
      vertex -30 19.5 1.5
      vertex 32.314 -29.4901 1.5
    endloop
  endfacet
  facet normal 0 0 1
    outer loop
      vertex -30 19.5 1.5
      vertex -32.314 -29.4901 1.5
      vertex 32.314 -29.4901 1.5
    endloop
  endfacet
  facet normal -0 0 1
    outer loop
      vertex -37 -24.5 1.5
      vertex -32.314 -29.4901 1.5
      vertex -30 19.5 1.5
    endloop
  endfacet
  facet normal 0 0 1
    outer loop
      vertex -32.314 -29.4901 1.5
      vertex -37 -24.5 1.5
      vertex -32.9369 -29.4114 1.5
    endloop
  endfacet
  facet normal 0 0 1
    outer loop
      vertex -32.9369 -29.4114 1.5
      vertex -37 -24.5 1.5
      vertex -33.5451 -29.2553 1.5
    endloop
  endfacet
  facet normal 0 0 1
    outer loop
      vertex -33.5451 -29.2553 1.5
      vertex -37 -24.5 1.5
      vertex -34.1289 -29.0241 1.5
    endloop
  endfacet
  facet normal 0 0 1
    outer loop
      vertex -34.1289 -29.0241 1.5
      vertex -37 -24.5 1.5
      vertex -34.6791 -28.7216 1.5
    endloop
  endfacet
  facet normal 0 0 1
    outer loop
      vertex -34.6791 -28.7216 1.5
      vertex -37 -24.5 1.5
      vertex -35.1871 -28.3526 1.5
    endloop
  endfacet
  facet normal 0 0 1
    outer loop
      vertex -35.1871 -28.3526 1.5
      vertex -37 -24.5 1.5
      vertex -35.6448 -27.9227 1.5
    endloop
  endfacet
  facet normal 0 0 1
    outer loop
      vertex -35.6448 -27.9227 1.5
      vertex -37 -24.5 1.5
      vertex -36.0451 -27.4389 1.5
    endloop
  endfacet
  facet normal 0 0 1
    outer loop
      vertex -36.0451 -27.4389 1.5
      vertex -37 -24.5 1.5
      vertex -36.3815 -26.9088 1.5
    endloop
  endfacet
  facet normal 0 0 1
    outer loop
      vertex -36.3815 -26.9088 1.5
      vertex -37 -24.5 1.5
      vertex -36.6489 -26.3406 1.5
    endloop
  endfacet
  facet normal 0 0 1
    outer loop
      vertex -36.6489 -26.3406 1.5
      vertex -37 -24.5 1.5
      vertex -36.8429 -25.7435 1.5
    endloop
  endfacet
  facet normal 0 0 1
    outer loop
      vertex -37 -24.5 1.5
      vertex -30 19.5 1.5
      vertex -37 19.5 1.5
    endloop
  endfacet
  facet normal 0 0 1
    outer loop
      vertex -36.8429 -25.7435 1.5
      vertex -37 -24.5 1.5
      vertex -36.9606 -25.1267 1.5
    endloop
  endfacet
  facet normal 0 -1 0
    outer loop
      vertex 30 19.5 1.5
      vertex 37 19.5 4.5
      vertex 30 19.5 4.5
    endloop
  endfacet
  facet normal 0 -1 -0
    outer loop
      vertex 37 19.5 4.5
      vertex 30 19.5 1.5
      vertex 37 19.5 1.5
    endloop
  endfacet
  facet normal 0 -1 0
    outer loop
      vertex -37 19.5 1.5
      vertex -30 19.5 4.5
      vertex -37 19.5 4.5
    endloop
  endfacet
  facet normal 0 -1 -0
    outer loop
      vertex -30 19.5 4.5
      vertex -37 19.5 1.5
      vertex -30 19.5 1.5
    endloop
  endfacet
  facet normal 1 -0 0
    outer loop
      vertex -30 19.5 4.5
      vertex -30 23.5 1.5
      vertex -30 23.5 4.5
    endloop
  endfacet
  facet normal 1 0 0
    outer loop
      vertex -30 23.5 1.5
      vertex -30 19.5 4.5
      vertex -30 19.5 1.5
    endloop
  endfacet
  facet normal -1 0 0
    outer loop
      vertex 30 19.5 1.5
      vertex 30 23.5 4.5
      vertex 30 23.5 1.5
    endloop
  endfacet
  facet normal -1 -0 0
    outer loop
      vertex 30 23.5 4.5
      vertex 30 19.5 1.5
      vertex 30 19.5 4.5
    endloop
  endfacet
  facet normal 0 -1 0
    outer loop
      vertex -30 23.5 4.5
      vertex -2.97634 23.5 4.124
      vertex -3 23.5 4.5
    endloop
  endfacet
  facet normal 0 -1 0
    outer loop
      vertex -30 23.5 1.5
      vertex -2.97634 23.5 4.124
      vertex -30 23.5 4.5
    endloop
  endfacet
  facet normal 0 -1 -0
    outer loop
      vertex -2.97634 23.5 4.124
      vertex -30 23.5 1.5
      vertex -2.90575 23.5 3.75393
    endloop
  endfacet
  facet normal 0 -1 -0
    outer loop
      vertex -2.90575 23.5 3.75393
      vertex -30 23.5 1.5
      vertex -2.78933 23.5 3.39563
    endloop
  endfacet
  facet normal 0 -1 -0
    outer loop
      vertex -2.78933 23.5 3.39563
      vertex -30 23.5 1.5
      vertex -2.62892 23.5 3.05474
    endloop
  endfacet
  facet normal 0 -1 -0
    outer loop
      vertex -2.62892 23.5 3.05474
      vertex -30 23.5 1.5
      vertex -2.42705 23.5 2.73664
    endloop
  endfacet
  facet normal 0 -1 -0
    outer loop
      vertex -2.42705 23.5 2.73664
      vertex -30 23.5 1.5
      vertex -2.18691 23.5 2.44636
    endloop
  endfacet
  facet normal 0 -1 -0
    outer loop
      vertex -2.18691 23.5 2.44636
      vertex -30 23.5 1.5
      vertex -1.91227 23.5 2.18846
    endloop
  endfacet
  facet normal 0 -1 -0
    outer loop
      vertex -1.91227 23.5 2.18846
      vertex -30 23.5 1.5
      vertex -1.60748 23.5 1.96702
    endloop
  endfacet
  facet normal 0 -1 -0
    outer loop
      vertex -1.60748 23.5 1.96702
      vertex -30 23.5 1.5
      vertex -1.27734 23.5 1.78552
    endloop
  endfacet
  facet normal 0 -1 -0
    outer loop
      vertex -1.27734 23.5 1.78552
      vertex -30 23.5 1.5
      vertex -0.927051 23.5 1.64683
    endloop
  endfacet
  facet normal 0 -1 -0
    outer loop
      vertex -0.927051 23.5 1.64683
      vertex -30 23.5 1.5
      vertex -0.562143 23.5 1.55314
    endloop
  endfacet
  facet normal 0 -1 -0
    outer loop
      vertex -0.188371 23.5 1.50592
      vertex -30 23.5 1.5
      vertex 0.188371 23.5 1.50592
    endloop
  endfacet
  facet normal 0 -1 -0
    outer loop
      vertex -0.562143 23.5 1.55314
      vertex -30 23.5 1.5
      vertex -0.188371 23.5 1.50592
    endloop
  endfacet
  facet normal 0 -1 0
    outer loop
      vertex 2.97634 23.5 4.124
      vertex 30 23.5 4.5
      vertex 3 23.5 4.5
    endloop
  endfacet
  facet normal 0 -1 0
    outer loop
      vertex 30 23.5 1.5
      vertex 2.97634 23.5 4.124
      vertex 2.90575 23.5 3.75393
    endloop
  endfacet
  facet normal 0 -1 0
    outer loop
      vertex 30 23.5 1.5
      vertex 2.90575 23.5 3.75393
      vertex 2.78933 23.5 3.39563
    endloop
  endfacet
  facet normal 0 -1 0
    outer loop
      vertex 30 23.5 1.5
      vertex 2.78933 23.5 3.39563
      vertex 2.62892 23.5 3.05474
    endloop
  endfacet
  facet normal 0 -1 0
    outer loop
      vertex 30 23.5 1.5
      vertex 2.62892 23.5 3.05474
      vertex 2.42705 23.5 2.73664
    endloop
  endfacet
  facet normal 0 -1 0
    outer loop
      vertex 30 23.5 1.5
      vertex 2.42705 23.5 2.73664
      vertex 2.18691 23.5 2.44636
    endloop
  endfacet
  facet normal 0 -1 0
    outer loop
      vertex 30 23.5 1.5
      vertex 2.18691 23.5 2.44636
      vertex 1.91227 23.5 2.18846
    endloop
  endfacet
  facet normal 0 -1 0
    outer loop
      vertex 30 23.5 1.5
      vertex 1.91227 23.5 2.18846
      vertex 1.60748 23.5 1.96702
    endloop
  endfacet
  facet normal 0 -1 0
    outer loop
      vertex 30 23.5 1.5
      vertex 1.60748 23.5 1.96702
      vertex 1.27734 23.5 1.78552
    endloop
  endfacet
  facet normal 0 -1 0
    outer loop
      vertex 30 23.5 1.5
      vertex 1.27734 23.5 1.78552
      vertex 0.927051 23.5 1.64683
    endloop
  endfacet
  facet normal 0 -1 0
    outer loop
      vertex 30 23.5 1.5
      vertex 0.927051 23.5 1.64683
      vertex 0.562143 23.5 1.55314
    endloop
  endfacet
  facet normal 0 -1 0
    outer loop
      vertex 30 23.5 1.5
      vertex 0.562143 23.5 1.55314
      vertex 0.188371 23.5 1.50592
    endloop
  endfacet
  facet normal 0 -1 0
    outer loop
      vertex 2.97634 23.5 4.124
      vertex 30 23.5 1.5
      vertex 30 23.5 4.5
    endloop
  endfacet
  facet normal 0 -1 0
    outer loop
      vertex 30 23.5 1.5
      vertex 0.188371 23.5 1.50592
      vertex -30 23.5 1.5
    endloop
  endfacet
  facet normal -0.951056 0 0.30902
    outer loop
      vertex 2.78933 23.5 3.39563
      vertex 2.90575 29.4901 3.75393
      vertex 2.78933 29.4901 3.39563
    endloop
  endfacet
  facet normal -0.951056 0 0.30902
    outer loop
      vertex 2.90575 29.4901 3.75393
      vertex 2.78933 23.5 3.39563
      vertex 2.90575 23.5 3.75393
    endloop
  endfacet
  facet normal -0.248684 0 0.968585
    outer loop
      vertex 0.562143 29.4901 1.55314
      vertex 0.927051 23.5 1.64683
      vertex 0.927051 29.4901 1.64683
    endloop
  endfacet
  facet normal -0.248684 0 0.968585
    outer loop
      vertex 0.927051 23.5 1.64683
      vertex 0.562143 29.4901 1.55314
      vertex 0.562143 23.5 1.55314
    endloop
  endfacet
  facet normal 0.998026 -0 0.0628013
    outer loop
      vertex -3 23.5 4.5
      vertex -2.97634 29.4901 4.124
      vertex -3 29.4901 4.5
    endloop
  endfacet
  facet normal 0.998026 0 0.0628013
    outer loop
      vertex -2.97634 29.4901 4.124
      vertex -3 23.5 4.5
      vertex -2.97634 23.5 4.124
    endloop
  endfacet
  facet normal -0.844331 0 0.535822
    outer loop
      vertex 2.42705 23.5 2.73664
      vertex 2.62892 29.4901 3.05474
      vertex 2.42705 29.4901 2.73664
    endloop
  endfacet
  facet normal -0.844331 0 0.535822
    outer loop
      vertex 2.62892 29.4901 3.05474
      vertex 2.42705 23.5 2.73664
      vertex 2.62892 23.5 3.05474
    endloop
  endfacet
  facet normal 0.684541 0 0.728974
    outer loop
      vertex -2.18691 29.4901 2.44636
      vertex -1.91227 23.5 2.18846
      vertex -1.91227 29.4901 2.18846
    endloop
  endfacet
  facet normal 0.684541 0 0.728974
    outer loop
      vertex -1.91227 23.5 2.18846
      vertex -2.18691 29.4901 2.44636
      vertex -2.18691 23.5 2.44636
    endloop
  endfacet
  facet normal 0.904828 -0 0.425778
    outer loop
      vertex -2.78933 23.5 3.39563
      vertex -2.62892 29.4901 3.05474
      vertex -2.78933 29.4901 3.39563
    endloop
  endfacet
  facet normal 0.904828 0 0.425778
    outer loop
      vertex -2.62892 29.4901 3.05474
      vertex -2.78933 23.5 3.39563
      vertex -2.62892 23.5 3.05474
    endloop
  endfacet
  facet normal 0.98229 -0 0.187369
    outer loop
      vertex -2.97634 23.5 4.124
      vertex -2.90575 29.4901 3.75393
      vertex -2.97634 29.4901 4.124
    endloop
  endfacet
  facet normal 0.98229 0 0.187369
    outer loop
      vertex -2.90575 29.4901 3.75393
      vertex -2.97634 23.5 4.124
      vertex -2.90575 23.5 3.75393
    endloop
  endfacet
  facet normal -0.125337 0 0.992114
    outer loop
      vertex 0.188371 29.4901 1.50592
      vertex 0.562143 23.5 1.55314
      vertex 0.562143 29.4901 1.55314
    endloop
  endfacet
  facet normal -0.125337 0 0.992114
    outer loop
      vertex 0.562143 23.5 1.55314
      vertex 0.188371 29.4901 1.50592
      vertex 0.188371 23.5 1.50592
    endloop
  endfacet
  facet normal -0.481762 0 0.876302
    outer loop
      vertex 1.27734 29.4901 1.78552
      vertex 1.60748 23.5 1.96702
      vertex 1.60748 29.4901 1.96702
    endloop
  endfacet
  facet normal -0.481762 0 0.876302
    outer loop
      vertex 1.60748 23.5 1.96702
      vertex 1.27734 29.4901 1.78552
      vertex 1.27734 23.5 1.78552
    endloop
  endfacet
  facet normal -0.904828 0 0.425778
    outer loop
      vertex 2.62892 23.5 3.05474
      vertex 2.78933 29.4901 3.39563
      vertex 2.62892 29.4901 3.05474
    endloop
  endfacet
  facet normal -0.904828 0 0.425778
    outer loop
      vertex 2.78933 29.4901 3.39563
      vertex 2.62892 23.5 3.05474
      vertex 2.78933 23.5 3.39563
    endloop
  endfacet
  facet normal -0.98229 0 0.187369
    outer loop
      vertex 2.90575 23.5 3.75393
      vertex 2.97634 29.4901 4.124
      vertex 2.90575 29.4901 3.75393
    endloop
  endfacet
  facet normal -0.98229 0 0.187369
    outer loop
      vertex 2.97634 29.4901 4.124
      vertex 2.90575 23.5 3.75393
      vertex 2.97634 23.5 4.124
    endloop
  endfacet
  facet normal -0.998026 0 0.0628013
    outer loop
      vertex 2.97634 23.5 4.124
      vertex 3 29.4901 4.5
      vertex 2.97634 29.4901 4.124
    endloop
  endfacet
  facet normal -0.998026 0 0.0628013
    outer loop
      vertex 3 29.4901 4.5
      vertex 2.97634 23.5 4.124
      vertex 3 23.5 4.5
    endloop
  endfacet
  facet normal 0.368126 0 0.929776
    outer loop
      vertex -1.27734 29.4901 1.78552
      vertex -0.927051 23.5 1.64683
      vertex -0.927051 29.4901 1.64683
    endloop
  endfacet
  facet normal 0.368126 0 0.929776
    outer loop
      vertex -0.927051 23.5 1.64683
      vertex -1.27734 29.4901 1.78552
      vertex -1.27734 23.5 1.78552
    endloop
  endfacet
  facet normal 0.248684 0 0.968585
    outer loop
      vertex -0.927051 29.4901 1.64683
      vertex -0.562143 23.5 1.55314
      vertex -0.562143 29.4901 1.55314
    endloop
  endfacet
  facet normal 0.248684 0 0.968585
    outer loop
      vertex -0.562143 23.5 1.55314
      vertex -0.927051 29.4901 1.64683
      vertex -0.927051 23.5 1.64683
    endloop
  endfacet
  facet normal 0.770514 -0 0.637423
    outer loop
      vertex -2.42705 23.5 2.73664
      vertex -2.18691 29.4901 2.44636
      vertex -2.42705 29.4901 2.73664
    endloop
  endfacet
  facet normal 0.770514 0 0.637423
    outer loop
      vertex -2.18691 29.4901 2.44636
      vertex -2.42705 23.5 2.73664
      vertex -2.18691 23.5 2.44636
    endloop
  endfacet
  facet normal 0.844331 -0 0.535822
    outer loop
      vertex -2.62892 23.5 3.05474
      vertex -2.42705 29.4901 2.73664
      vertex -2.62892 29.4901 3.05474
    endloop
  endfacet
  facet normal 0.844331 0 0.535822
    outer loop
      vertex -2.42705 29.4901 2.73664
      vertex -2.62892 23.5 3.05474
      vertex -2.42705 23.5 2.73664
    endloop
  endfacet
  facet normal 0.951056 -0 0.30902
    outer loop
      vertex -2.90575 23.5 3.75393
      vertex -2.78933 29.4901 3.39563
      vertex -2.90575 29.4901 3.75393
    endloop
  endfacet
  facet normal 0.951056 0 0.30902
    outer loop
      vertex -2.78933 29.4901 3.39563
      vertex -2.90575 23.5 3.75393
      vertex -2.78933 23.5 3.39563
    endloop
  endfacet
  facet normal -0.58778 0 0.809021
    outer loop
      vertex 1.60748 29.4901 1.96702
      vertex 1.91227 23.5 2.18846
      vertex 1.91227 29.4901 2.18846
    endloop
  endfacet
  facet normal -0.58778 0 0.809021
    outer loop
      vertex 1.91227 23.5 2.18846
      vertex 1.60748 29.4901 1.96702
      vertex 1.60748 23.5 1.96702
    endloop
  endfacet
  facet normal -0.368126 0 0.929776
    outer loop
      vertex 0.927051 29.4901 1.64683
      vertex 1.27734 23.5 1.78552
      vertex 1.27734 29.4901 1.78552
    endloop
  endfacet
  facet normal -0.368126 0 0.929776
    outer loop
      vertex 1.27734 23.5 1.78552
      vertex 0.927051 29.4901 1.64683
      vertex 0.927051 23.5 1.64683
    endloop
  endfacet
  facet normal 0.58778 0 0.809021
    outer loop
      vertex -1.91227 29.4901 2.18846
      vertex -1.60748 23.5 1.96702
      vertex -1.60748 29.4901 1.96702
    endloop
  endfacet
  facet normal 0.58778 0 0.809021
    outer loop
      vertex -1.60748 23.5 1.96702
      vertex -1.91227 29.4901 2.18846
      vertex -1.91227 23.5 2.18846
    endloop
  endfacet
  facet normal 0.481762 0 0.876302
    outer loop
      vertex -1.60748 29.4901 1.96702
      vertex -1.27734 23.5 1.78552
      vertex -1.27734 29.4901 1.78552
    endloop
  endfacet
  facet normal 0.481762 0 0.876302
    outer loop
      vertex -1.27734 23.5 1.78552
      vertex -1.60748 29.4901 1.96702
      vertex -1.60748 23.5 1.96702
    endloop
  endfacet
  facet normal -0.684541 0 0.728974
    outer loop
      vertex 1.91227 29.4901 2.18846
      vertex 2.18691 23.5 2.44636
      vertex 2.18691 29.4901 2.44636
    endloop
  endfacet
  facet normal -0.684541 0 0.728974
    outer loop
      vertex 2.18691 23.5 2.44636
      vertex 1.91227 29.4901 2.18846
      vertex 1.91227 23.5 2.18846
    endloop
  endfacet
  facet normal -0.770514 0 0.637423
    outer loop
      vertex 2.18691 23.5 2.44636
      vertex 2.42705 29.4901 2.73664
      vertex 2.18691 29.4901 2.44636
    endloop
  endfacet
  facet normal -0.770514 0 0.637423
    outer loop
      vertex 2.42705 29.4901 2.73664
      vertex 2.18691 23.5 2.44636
      vertex 2.42705 23.5 2.73664
    endloop
  endfacet
  facet normal 0.125337 0 0.992114
    outer loop
      vertex -0.562143 29.4901 1.55314
      vertex -0.188371 23.5 1.50592
      vertex -0.188371 29.4901 1.50592
    endloop
  endfacet
  facet normal 0.125337 0 0.992114
    outer loop
      vertex -0.188371 23.5 1.50592
      vertex -0.562143 29.4901 1.55314
      vertex -0.562143 23.5 1.55314
    endloop
  endfacet
  facet normal -0 0 1
    outer loop
      vertex -0.188371 29.4901 1.50592
      vertex 0.188371 23.5 1.50592
      vertex 0.188371 29.4901 1.50592
    endloop
  endfacet
  facet normal 0 0 1
    outer loop
      vertex 0.188371 23.5 1.50592
      vertex -0.188371 29.4901 1.50592
      vertex -0.188371 23.5 1.50592
    endloop
  endfacet
  facet normal 0 0 1
    outer loop
      vertex -3 29.4901 4.5
      vertex -30 23.5 4.5
      vertex -3 23.5 4.5
    endloop
  endfacet
  facet normal -0 0 1
    outer loop
      vertex -32.314 29.4901 4.5
      vertex -30 23.5 4.5
      vertex -3 29.4901 4.5
    endloop
  endfacet
  facet normal -0 0 1
    outer loop
      vertex -32.9369 29.4114 4.5
      vertex -30 23.5 4.5
      vertex -32.314 29.4901 4.5
    endloop
  endfacet
  facet normal -0 0 1
    outer loop
      vertex -33.5451 29.2553 4.5
      vertex -30 23.5 4.5
      vertex -32.9369 29.4114 4.5
    endloop
  endfacet
  facet normal -0 0 1
    outer loop
      vertex -34.1289 29.0241 4.5
      vertex -30 23.5 4.5
      vertex -33.5451 29.2553 4.5
    endloop
  endfacet
  facet normal -0 0 1
    outer loop
      vertex -34.6791 28.7216 4.5
      vertex -30 23.5 4.5
      vertex -34.1289 29.0241 4.5
    endloop
  endfacet
  facet normal -0 0 1
    outer loop
      vertex -35.1871 28.3526 4.5
      vertex -30 23.5 4.5
      vertex -34.6791 28.7216 4.5
    endloop
  endfacet
  facet normal -0 0 1
    outer loop
      vertex -35.6448 27.9227 4.5
      vertex -30 23.5 4.5
      vertex -35.1871 28.3526 4.5
    endloop
  endfacet
  facet normal -0 0 1
    outer loop
      vertex -36.0451 27.4389 4.5
      vertex -30 23.5 4.5
      vertex -35.6448 27.9227 4.5
    endloop
  endfacet
  facet normal -0 0 1
    outer loop
      vertex -36.3815 26.9088 4.5
      vertex -30 23.5 4.5
      vertex -36.0451 27.4389 4.5
    endloop
  endfacet
  facet normal -0 0 1
    outer loop
      vertex -36.6489 26.3406 4.5
      vertex -30 23.5 4.5
      vertex -36.3815 26.9088 4.5
    endloop
  endfacet
  facet normal -0 0 1
    outer loop
      vertex -36.8429 25.7435 4.5
      vertex -30 23.5 4.5
      vertex -36.6489 26.3406 4.5
    endloop
  endfacet
  facet normal -0 0 1
    outer loop
      vertex -36.9606 25.1267 4.5
      vertex -30 23.5 4.5
      vertex -36.8429 25.7435 4.5
    endloop
  endfacet
  facet normal -0 0 1
    outer loop
      vertex -37 24.5 4.5
      vertex -30 23.5 4.5
      vertex -36.9606 25.1267 4.5
    endloop
  endfacet
  facet normal 0 0 1
    outer loop
      vertex -37 19.5 4.5
      vertex -30 23.5 4.5
      vertex -37 24.5 4.5
    endloop
  endfacet
  facet normal 0 0 1
    outer loop
      vertex -30 23.5 4.5
      vertex -37 19.5 4.5
      vertex -30 19.5 4.5
    endloop
  endfacet
  facet normal -0 0 1
    outer loop
      vertex 3 29.4901 4.5
      vertex 30 23.5 4.5
      vertex 32.314 29.4901 4.5
    endloop
  endfacet
  facet normal 0 0 1
    outer loop
      vertex 30 23.5 4.5
      vertex 3 29.4901 4.5
      vertex 3 23.5 4.5
    endloop
  endfacet
  facet normal 0 0 1
    outer loop
      vertex 30 23.5 4.5
      vertex 37 24.5 4.5
      vertex 36.9606 25.1267 4.5
    endloop
  endfacet
  facet normal 0 0 1
    outer loop
      vertex 30 23.5 4.5
      vertex 36.9606 25.1267 4.5
      vertex 36.8429 25.7435 4.5
    endloop
  endfacet
  facet normal 0 0 1
    outer loop
      vertex 30 23.5 4.5
      vertex 36.8429 25.7435 4.5
      vertex 36.6489 26.3406 4.5
    endloop
  endfacet
  facet normal 0 0 1
    outer loop
      vertex 30 23.5 4.5
      vertex 36.6489 26.3406 4.5
      vertex 36.3815 26.9088 4.5
    endloop
  endfacet
  facet normal 0 0 1
    outer loop
      vertex 30 23.5 4.5
      vertex 36.3815 26.9088 4.5
      vertex 36.0451 27.4389 4.5
    endloop
  endfacet
  facet normal 0 0 1
    outer loop
      vertex 30 23.5 4.5
      vertex 36.0451 27.4389 4.5
      vertex 35.6448 27.9227 4.5
    endloop
  endfacet
  facet normal 0 0 1
    outer loop
      vertex 30 23.5 4.5
      vertex 35.6448 27.9227 4.5
      vertex 35.1871 28.3526 4.5
    endloop
  endfacet
  facet normal 0 0 1
    outer loop
      vertex 30 23.5 4.5
      vertex 35.1871 28.3526 4.5
      vertex 34.6791 28.7216 4.5
    endloop
  endfacet
  facet normal 0 0 1
    outer loop
      vertex 30 23.5 4.5
      vertex 34.6791 28.7216 4.5
      vertex 34.1289 29.0241 4.5
    endloop
  endfacet
  facet normal 0 0 1
    outer loop
      vertex 30 23.5 4.5
      vertex 34.1289 29.0241 4.5
      vertex 33.5451 29.2553 4.5
    endloop
  endfacet
  facet normal 0 0 1
    outer loop
      vertex 30 23.5 4.5
      vertex 33.5451 29.2553 4.5
      vertex 32.9369 29.4114 4.5
    endloop
  endfacet
  facet normal 0 0 1
    outer loop
      vertex 30 23.5 4.5
      vertex 32.9369 29.4114 4.5
      vertex 32.314 29.4901 4.5
    endloop
  endfacet
  facet normal 0 0 1
    outer loop
      vertex 37 24.5 4.5
      vertex 30 23.5 4.5
      vertex 37 19.5 4.5
    endloop
  endfacet
  facet normal 0 0 1
    outer loop
      vertex 37 19.5 4.5
      vertex 30 23.5 4.5
      vertex 30 19.5 4.5
    endloop
  endfacet
  facet normal -0.99803 -0.0627451 0
    outer loop
      vertex -36.9606 -25.1267 0
      vertex -37 -24.5 1.5
      vertex -37 -24.5 0
    endloop
  endfacet
  facet normal -0.99803 -0.0627451 0
    outer loop
      vertex -37 -24.5 1.5
      vertex -36.9606 -25.1267 0
      vertex -36.9606 -25.1267 1.5
    endloop
  endfacet
  facet normal 0.770462 0.637486 0
    outer loop
      vertex 36.0451 27.4389 4.5
      vertex 35.6448 27.9227 0
      vertex 35.6448 27.9227 4.5
    endloop
  endfacet
  facet normal 0.770462 0.637486 0
    outer loop
      vertex 35.6448 27.9227 0
      vertex 36.0451 27.4389 4.5
      vertex 36.0451 27.4389 0
    endloop
  endfacet
  facet normal 0 -1 0
    outer loop
      vertex -32.314 -29.4901 0
      vertex 32.314 -29.4901 1.5
      vertex -32.314 -29.4901 1.5
    endloop
  endfacet
  facet normal 0 -1 -0
    outer loop
      vertex 32.314 -29.4901 1.5
      vertex -32.314 -29.4901 0
      vertex 32.314 -29.4901 0
    endloop
  endfacet
  facet normal -0.125348 0.992113 0
    outer loop
      vertex -32.314 29.4901 0
      vertex -32.9369 29.4114 4.5
      vertex -32.314 29.4901 4.5
    endloop
  endfacet
  facet normal -0.125348 0.992113 0
    outer loop
      vertex -32.9369 29.4114 4.5
      vertex -32.314 29.4901 0
      vertex -32.9369 29.4114 0
    endloop
  endfacet
  facet normal 0 1 0
    outer loop
      vertex 32.314 29.4901 4.5
      vertex 2.97634 29.4901 4.124
      vertex 3 29.4901 4.5
    endloop
  endfacet
  facet normal 0 1 -0
    outer loop
      vertex 32.314 29.4901 0
      vertex 2.97634 29.4901 4.124
      vertex 32.314 29.4901 4.5
    endloop
  endfacet
  facet normal 0 1 0
    outer loop
      vertex 2.97634 29.4901 4.124
      vertex 32.314 29.4901 0
      vertex 2.90575 29.4901 3.75393
    endloop
  endfacet
  facet normal 0 1 0
    outer loop
      vertex 2.90575 29.4901 3.75393
      vertex 32.314 29.4901 0
      vertex 2.78933 29.4901 3.39563
    endloop
  endfacet
  facet normal 0 1 0
    outer loop
      vertex 2.78933 29.4901 3.39563
      vertex 32.314 29.4901 0
      vertex 2.62892 29.4901 3.05474
    endloop
  endfacet
  facet normal 0 1 0
    outer loop
      vertex 2.62892 29.4901 3.05474
      vertex 32.314 29.4901 0
      vertex 2.42705 29.4901 2.73664
    endloop
  endfacet
  facet normal 0 1 0
    outer loop
      vertex 2.42705 29.4901 2.73664
      vertex 32.314 29.4901 0
      vertex 2.18691 29.4901 2.44636
    endloop
  endfacet
  facet normal 0 1 0
    outer loop
      vertex 2.18691 29.4901 2.44636
      vertex 32.314 29.4901 0
      vertex 1.91227 29.4901 2.18846
    endloop
  endfacet
  facet normal 0 1 0
    outer loop
      vertex 1.91227 29.4901 2.18846
      vertex 32.314 29.4901 0
      vertex 1.60748 29.4901 1.96702
    endloop
  endfacet
  facet normal 0 1 0
    outer loop
      vertex 1.60748 29.4901 1.96702
      vertex 32.314 29.4901 0
      vertex 1.27734 29.4901 1.78552
    endloop
  endfacet
  facet normal 0 1 0
    outer loop
      vertex 1.27734 29.4901 1.78552
      vertex 32.314 29.4901 0
      vertex 0.927051 29.4901 1.64683
    endloop
  endfacet
  facet normal 0 1 0
    outer loop
      vertex 0.927051 29.4901 1.64683
      vertex 32.314 29.4901 0
      vertex 0.562143 29.4901 1.55314
    endloop
  endfacet
  facet normal 0 1 0
    outer loop
      vertex 0.188371 29.4901 1.50592
      vertex 32.314 29.4901 0
      vertex -0.188371 29.4901 1.50592
    endloop
  endfacet
  facet normal 0 1 0
    outer loop
      vertex 0.562143 29.4901 1.55314
      vertex 32.314 29.4901 0
      vertex 0.188371 29.4901 1.50592
    endloop
  endfacet
  facet normal 0 1 0
    outer loop
      vertex -2.97634 29.4901 4.124
      vertex -32.314 29.4901 4.5
      vertex -3 29.4901 4.5
    endloop
  endfacet
  facet normal 0 1 0
    outer loop
      vertex -32.314 29.4901 0
      vertex -2.97634 29.4901 4.124
      vertex -2.90575 29.4901 3.75393
    endloop
  endfacet
  facet normal 0 1 0
    outer loop
      vertex -32.314 29.4901 0
      vertex -2.90575 29.4901 3.75393
      vertex -2.78933 29.4901 3.39563
    endloop
  endfacet
  facet normal 0 1 0
    outer loop
      vertex -32.314 29.4901 0
      vertex -2.78933 29.4901 3.39563
      vertex -2.62892 29.4901 3.05474
    endloop
  endfacet
  facet normal 0 1 0
    outer loop
      vertex -32.314 29.4901 0
      vertex -2.62892 29.4901 3.05474
      vertex -2.42705 29.4901 2.73664
    endloop
  endfacet
  facet normal 0 1 0
    outer loop
      vertex -32.314 29.4901 0
      vertex -2.42705 29.4901 2.73664
      vertex -2.18691 29.4901 2.44636
    endloop
  endfacet
  facet normal 0 1 0
    outer loop
      vertex -32.314 29.4901 0
      vertex -2.18691 29.4901 2.44636
      vertex -1.91227 29.4901 2.18846
    endloop
  endfacet
  facet normal 0 1 0
    outer loop
      vertex -32.314 29.4901 0
      vertex -1.91227 29.4901 2.18846
      vertex -1.60748 29.4901 1.96702
    endloop
  endfacet
  facet normal 0 1 0
    outer loop
      vertex -32.314 29.4901 0
      vertex -1.60748 29.4901 1.96702
      vertex -1.27734 29.4901 1.78552
    endloop
  endfacet
  facet normal 0 1 0
    outer loop
      vertex -32.314 29.4901 0
      vertex -1.27734 29.4901 1.78552
      vertex -0.927051 29.4901 1.64683
    endloop
  endfacet
  facet normal 0 1 0
    outer loop
      vertex -32.314 29.4901 0
      vertex -0.927051 29.4901 1.64683
      vertex -0.562143 29.4901 1.55314
    endloop
  endfacet
  facet normal 0 1 0
    outer loop
      vertex -32.314 29.4901 0
      vertex -0.562143 29.4901 1.55314
      vertex -0.188371 29.4901 1.50592
    endloop
  endfacet
  facet normal 0 1 0
    outer loop
      vertex -2.97634 29.4901 4.124
      vertex -32.314 29.4901 0
      vertex -32.314 29.4901 4.5
    endloop
  endfacet
  facet normal 0 1 0
    outer loop
      vertex -32.314 29.4901 0
      vertex -0.188371 29.4901 1.50592
      vertex 32.314 29.4901 0
    endloop
  endfacet
  facet normal -0.99803 0.0627451 0
    outer loop
      vertex -37 24.5 0
      vertex -36.9606 25.1267 4.5
      vertex -36.9606 25.1267 0
    endloop
  endfacet
  facet normal -0.99803 0.0627451 0
    outer loop
      vertex -36.9606 25.1267 4.5
      vertex -37 24.5 0
      vertex -37 24.5 4.5
    endloop
  endfacet
  facet normal -0.368203 -0.929745 0
    outer loop
      vertex -34.1289 -29.0241 0
      vertex -33.5451 -29.2553 1.5
      vertex -34.1289 -29.0241 1.5
    endloop
  endfacet
  facet normal -0.368203 -0.929745 -0
    outer loop
      vertex -33.5451 -29.2553 1.5
      vertex -34.1289 -29.0241 0
      vertex -33.5451 -29.2553 0
    endloop
  endfacet
  facet normal -0.125348 -0.992113 0
    outer loop
      vertex -32.9369 -29.4114 0
      vertex -32.314 -29.4901 1.5
      vertex -32.9369 -29.4114 1.5
    endloop
  endfacet
  facet normal -0.125348 -0.992113 -0
    outer loop
      vertex -32.314 -29.4901 1.5
      vertex -32.9369 -29.4114 0
      vertex -32.314 -29.4901 0
    endloop
  endfacet
  facet normal -0.481784 -0.87629 0
    outer loop
      vertex -34.6791 -28.7216 0
      vertex -34.1289 -29.0241 1.5
      vertex -34.6791 -28.7216 1.5
    endloop
  endfacet
  facet normal -0.481784 -0.87629 -0
    outer loop
      vertex -34.1289 -29.0241 1.5
      vertex -34.6791 -28.7216 0
      vertex -34.1289 -29.0241 0
    endloop
  endfacet
  facet normal -0.684624 -0.728896 0
    outer loop
      vertex -35.6448 -27.9227 0
      vertex -35.1871 -28.3526 1.5
      vertex -35.6448 -27.9227 1.5
    endloop
  endfacet
  facet normal -0.684624 -0.728896 -0
    outer loop
      vertex -35.1871 -28.3526 1.5
      vertex -35.6448 -27.9227 0
      vertex -35.1871 -28.3526 0
    endloop
  endfacet
  facet normal 0.951061 0.309003 0
    outer loop
      vertex 36.8429 25.7435 4.5
      vertex 36.6489 26.3406 0
      vertex 36.6489 26.3406 4.5
    endloop
  endfacet
  facet normal 0.951061 0.309003 0
    outer loop
      vertex 36.6489 26.3406 0
      vertex 36.8429 25.7435 4.5
      vertex 36.8429 25.7435 0
    endloop
  endfacet
  facet normal 0.844336 0.535814 0
    outer loop
      vertex 36.3815 26.9088 4.5
      vertex 36.0451 27.4389 0
      vertex 36.0451 27.4389 4.5
    endloop
  endfacet
  facet normal 0.844336 0.535814 0
    outer loop
      vertex 36.0451 27.4389 0
      vertex 36.3815 26.9088 4.5
      vertex 36.3815 26.9088 0
    endloop
  endfacet
  facet normal 0.125348 0.992113 -0
    outer loop
      vertex 32.9369 29.4114 0
      vertex 32.314 29.4901 4.5
      vertex 32.9369 29.4114 4.5
    endloop
  endfacet
  facet normal 0.125348 0.992113 0
    outer loop
      vertex 32.314 29.4901 4.5
      vertex 32.9369 29.4114 0
      vertex 32.314 29.4901 0
    endloop
  endfacet
  facet normal -0.248601 0.968606 0
    outer loop
      vertex -32.9369 29.4114 0
      vertex -33.5451 29.2553 4.5
      vertex -32.9369 29.4114 4.5
    endloop
  endfacet
  facet normal -0.248601 0.968606 0
    outer loop
      vertex -33.5451 29.2553 4.5
      vertex -32.9369 29.4114 0
      vertex -33.5451 29.2553 0
    endloop
  endfacet
  facet normal -0.951061 0.309003 0
    outer loop
      vertex -36.8429 25.7435 0
      vertex -36.6489 26.3406 4.5
      vertex -36.6489 26.3406 0
    endloop
  endfacet
  facet normal -0.951061 0.309003 0
    outer loop
      vertex -36.6489 26.3406 4.5
      vertex -36.8429 25.7435 0
      vertex -36.8429 25.7435 4.5
    endloop
  endfacet
  facet normal 0 0 -1
    outer loop
      vertex 32.314 -29.4901 0
      vertex 37 -24.5 0
      vertex 36.9606 -25.1267 0
    endloop
  endfacet
  facet normal -0 0 -1
    outer loop
      vertex 37 -24.5 0
      vertex 32.314 -29.4901 0
      vertex 37 24.5 0
    endloop
  endfacet
  facet normal 0 0 -1
    outer loop
      vertex 32.314 -29.4901 0
      vertex 36.9606 -25.1267 0
      vertex 36.8429 -25.7435 0
    endloop
  endfacet
  facet normal 0 0 -1
    outer loop
      vertex 32.314 29.4901 0
      vertex 37 24.5 0
      vertex 32.314 -29.4901 0
    endloop
  endfacet
  facet normal 0 0 -1
    outer loop
      vertex 32.314 -29.4901 0
      vertex 36.8429 -25.7435 0
      vertex 36.6489 -26.3406 0
    endloop
  endfacet
  facet normal 0 0 -1
    outer loop
      vertex 37 24.5 0
      vertex 32.314 29.4901 0
      vertex 36.9606 25.1267 0
    endloop
  endfacet
  facet normal 0 0 -1
    outer loop
      vertex 32.314 -29.4901 0
      vertex 36.6489 -26.3406 0
      vertex 36.3815 -26.9088 0
    endloop
  endfacet
  facet normal 0 0 -1
    outer loop
      vertex 36.9606 25.1267 0
      vertex 32.314 29.4901 0
      vertex 36.8429 25.7435 0
    endloop
  endfacet
  facet normal 0 0 -1
    outer loop
      vertex 32.314 -29.4901 0
      vertex 36.3815 -26.9088 0
      vertex 36.0451 -27.4389 0
    endloop
  endfacet
  facet normal 0 0 -1
    outer loop
      vertex 36.8429 25.7435 0
      vertex 32.314 29.4901 0
      vertex 36.6489 26.3406 0
    endloop
  endfacet
  facet normal 0 0 -1
    outer loop
      vertex 32.314 -29.4901 0
      vertex 36.0451 -27.4389 0
      vertex 35.6448 -27.9227 0
    endloop
  endfacet
  facet normal 0 0 -1
    outer loop
      vertex 36.6489 26.3406 0
      vertex 32.314 29.4901 0
      vertex 36.3815 26.9088 0
    endloop
  endfacet
  facet normal 0 0 -1
    outer loop
      vertex 32.314 -29.4901 0
      vertex 35.6448 -27.9227 0
      vertex 35.1871 -28.3526 0
    endloop
  endfacet
  facet normal 0 0 -1
    outer loop
      vertex 36.3815 26.9088 0
      vertex 32.314 29.4901 0
      vertex 36.0451 27.4389 0
    endloop
  endfacet
  facet normal 0 0 -1
    outer loop
      vertex 32.314 -29.4901 0
      vertex 35.1871 -28.3526 0
      vertex 34.6791 -28.7216 0
    endloop
  endfacet
  facet normal 0 0 -1
    outer loop
      vertex 36.0451 27.4389 0
      vertex 32.314 29.4901 0
      vertex 35.6448 27.9227 0
    endloop
  endfacet
  facet normal 0 0 -1
    outer loop
      vertex 32.314 -29.4901 0
      vertex 34.6791 -28.7216 0
      vertex 34.1289 -29.0241 0
    endloop
  endfacet
  facet normal 0 0 -1
    outer loop
      vertex 35.6448 27.9227 0
      vertex 32.314 29.4901 0
      vertex 35.1871 28.3526 0
    endloop
  endfacet
  facet normal 0 0 -1
    outer loop
      vertex 32.314 -29.4901 0
      vertex 34.1289 -29.0241 0
      vertex 33.5451 -29.2553 0
    endloop
  endfacet
  facet normal 0 0 -1
    outer loop
      vertex 35.1871 28.3526 0
      vertex 32.314 29.4901 0
      vertex 34.6791 28.7216 0
    endloop
  endfacet
  facet normal 0 0 -1
    outer loop
      vertex 32.314 -29.4901 0
      vertex 33.5451 -29.2553 0
      vertex 32.9369 -29.4114 0
    endloop
  endfacet
  facet normal 0 0 -1
    outer loop
      vertex 34.6791 28.7216 0
      vertex 32.314 29.4901 0
      vertex 34.1289 29.0241 0
    endloop
  endfacet
  facet normal 0 0 -1
    outer loop
      vertex 34.1289 29.0241 0
      vertex 32.314 29.4901 0
      vertex 33.5451 29.2553 0
    endloop
  endfacet
  facet normal 0 0 -1
    outer loop
      vertex 33.5451 29.2553 0
      vertex 32.314 29.4901 0
      vertex 32.9369 29.4114 0
    endloop
  endfacet
  facet normal 0 0 -1
    outer loop
      vertex -32.314 -29.4901 0
      vertex 32.314 29.4901 0
      vertex 32.314 -29.4901 0
    endloop
  endfacet
  facet normal 0 0 -1
    outer loop
      vertex -32.314 -29.4901 0
      vertex -32.314 29.4901 0
      vertex 32.314 29.4901 0
    endloop
  endfacet
  facet normal 0 0 -1
    outer loop
      vertex -37 -24.5 0
      vertex -32.314 -29.4901 0
      vertex -32.9369 -29.4114 0
    endloop
  endfacet
  facet normal 0 0 -1
    outer loop
      vertex -32.314 -29.4901 0
      vertex -37 -24.5 0
      vertex -32.314 29.4901 0
    endloop
  endfacet
  facet normal 0 0 -1
    outer loop
      vertex -37 -24.5 0
      vertex -32.9369 -29.4114 0
      vertex -33.5451 -29.2553 0
    endloop
  endfacet
  facet normal 0 0 -1
    outer loop
      vertex -37 24.5 0
      vertex -32.314 29.4901 0
      vertex -37 -24.5 0
    endloop
  endfacet
  facet normal 0 0 -1
    outer loop
      vertex -37 -24.5 0
      vertex -33.5451 -29.2553 0
      vertex -34.1289 -29.0241 0
    endloop
  endfacet
  facet normal 0 0 -1
    outer loop
      vertex -32.314 29.4901 0
      vertex -37 24.5 0
      vertex -32.9369 29.4114 0
    endloop
  endfacet
  facet normal 0 0 -1
    outer loop
      vertex -37 -24.5 0
      vertex -34.1289 -29.0241 0
      vertex -34.6791 -28.7216 0
    endloop
  endfacet
  facet normal 0 0 -1
    outer loop
      vertex -32.9369 29.4114 0
      vertex -37 24.5 0
      vertex -33.5451 29.2553 0
    endloop
  endfacet
  facet normal 0 0 -1
    outer loop
      vertex -37 -24.5 0
      vertex -34.6791 -28.7216 0
      vertex -35.1871 -28.3526 0
    endloop
  endfacet
  facet normal 0 0 -1
    outer loop
      vertex -33.5451 29.2553 0
      vertex -37 24.5 0
      vertex -34.1289 29.0241 0
    endloop
  endfacet
  facet normal 0 0 -1
    outer loop
      vertex -37 -24.5 0
      vertex -35.1871 -28.3526 0
      vertex -35.6448 -27.9227 0
    endloop
  endfacet
  facet normal 0 0 -1
    outer loop
      vertex -34.1289 29.0241 0
      vertex -37 24.5 0
      vertex -34.6791 28.7216 0
    endloop
  endfacet
  facet normal 0 0 -1
    outer loop
      vertex -37 -24.5 0
      vertex -35.6448 -27.9227 0
      vertex -36.0451 -27.4389 0
    endloop
  endfacet
  facet normal 0 0 -1
    outer loop
      vertex -34.6791 28.7216 0
      vertex -37 24.5 0
      vertex -35.1871 28.3526 0
    endloop
  endfacet
  facet normal 0 0 -1
    outer loop
      vertex -37 -24.5 0
      vertex -36.0451 -27.4389 0
      vertex -36.3815 -26.9088 0
    endloop
  endfacet
  facet normal 0 0 -1
    outer loop
      vertex -35.1871 28.3526 0
      vertex -37 24.5 0
      vertex -35.6448 27.9227 0
    endloop
  endfacet
  facet normal 0 0 -1
    outer loop
      vertex -37 -24.5 0
      vertex -36.3815 -26.9088 0
      vertex -36.6489 -26.3406 0
    endloop
  endfacet
  facet normal 0 0 -1
    outer loop
      vertex -35.6448 27.9227 0
      vertex -37 24.5 0
      vertex -36.0451 27.4389 0
    endloop
  endfacet
  facet normal 0 0 -1
    outer loop
      vertex -37 -24.5 0
      vertex -36.6489 -26.3406 0
      vertex -36.8429 -25.7435 0
    endloop
  endfacet
  facet normal 0 0 -1
    outer loop
      vertex -36.0451 27.4389 0
      vertex -37 24.5 0
      vertex -36.3815 26.9088 0
    endloop
  endfacet
  facet normal 0 0 -1
    outer loop
      vertex -37 -24.5 0
      vertex -36.8429 -25.7435 0
      vertex -36.9606 -25.1267 0
    endloop
  endfacet
  facet normal 0 0 -1
    outer loop
      vertex -36.3815 26.9088 0
      vertex -37 24.5 0
      vertex -36.6489 26.3406 0
    endloop
  endfacet
  facet normal 0 0 -1
    outer loop
      vertex -36.6489 26.3406 0
      vertex -37 24.5 0
      vertex -36.8429 25.7435 0
    endloop
  endfacet
  facet normal 0 0 -1
    outer loop
      vertex -36.8429 25.7435 0
      vertex -37 24.5 0
      vertex -36.9606 25.1267 0
    endloop
  endfacet
  facet normal -0.951061 -0.309003 0
    outer loop
      vertex -36.6489 -26.3406 0
      vertex -36.8429 -25.7435 1.5
      vertex -36.8429 -25.7435 0
    endloop
  endfacet
  facet normal -0.951061 -0.309003 0
    outer loop
      vertex -36.8429 -25.7435 1.5
      vertex -36.6489 -26.3406 0
      vertex -36.6489 -26.3406 1.5
    endloop
  endfacet
  facet normal -0.904811 -0.425812 0
    outer loop
      vertex -36.3815 -26.9088 0
      vertex -36.6489 -26.3406 1.5
      vertex -36.6489 -26.3406 0
    endloop
  endfacet
  facet normal -0.904811 -0.425812 0
    outer loop
      vertex -36.6489 -26.3406 1.5
      vertex -36.3815 -26.9088 0
      vertex -36.3815 -26.9088 1.5
    endloop
  endfacet
  facet normal -0.770462 -0.637486 0
    outer loop
      vertex -35.6448 -27.9227 0
      vertex -36.0451 -27.4389 1.5
      vertex -36.0451 -27.4389 0
    endloop
  endfacet
  facet normal -0.770462 -0.637486 0
    outer loop
      vertex -36.0451 -27.4389 1.5
      vertex -35.6448 -27.9227 0
      vertex -35.6448 -27.9227 1.5
    endloop
  endfacet
  facet normal -0.248601 -0.968606 0
    outer loop
      vertex -33.5451 -29.2553 0
      vertex -32.9369 -29.4114 1.5
      vertex -33.5451 -29.2553 1.5
    endloop
  endfacet
  facet normal -0.248601 -0.968606 -0
    outer loop
      vertex -32.9369 -29.4114 1.5
      vertex -33.5451 -29.2553 0
      vertex -32.9369 -29.4114 0
    endloop
  endfacet
  facet normal -0.587698 -0.80908 0
    outer loop
      vertex -35.1871 -28.3526 0
      vertex -34.6791 -28.7216 1.5
      vertex -35.1871 -28.3526 1.5
    endloop
  endfacet
  facet normal -0.587698 -0.80908 -0
    outer loop
      vertex -34.6791 -28.7216 1.5
      vertex -35.1871 -28.3526 0
      vertex -34.6791 -28.7216 0
    endloop
  endfacet
  facet normal 0.481784 -0.87629 0
    outer loop
      vertex 34.1289 -29.0241 0
      vertex 34.6791 -28.7216 1.5
      vertex 34.1289 -29.0241 1.5
    endloop
  endfacet
  facet normal 0.481784 -0.87629 0
    outer loop
      vertex 34.6791 -28.7216 1.5
      vertex 34.1289 -29.0241 0
      vertex 34.6791 -28.7216 0
    endloop
  endfacet
  facet normal 0.904811 -0.425812 0
    outer loop
      vertex 36.3815 -26.9088 1.5
      vertex 36.6489 -26.3406 0
      vertex 36.6489 -26.3406 1.5
    endloop
  endfacet
  facet normal 0.904811 -0.425812 0
    outer loop
      vertex 36.6489 -26.3406 0
      vertex 36.3815 -26.9088 1.5
      vertex 36.3815 -26.9088 0
    endloop
  endfacet
  facet normal 0.99803 -0.0627451 0
    outer loop
      vertex 36.9606 -25.1267 1.5
      vertex 37 -24.5 0
      vertex 37 -24.5 1.5
    endloop
  endfacet
  facet normal 0.99803 -0.0627451 0
    outer loop
      vertex 37 -24.5 0
      vertex 36.9606 -25.1267 1.5
      vertex 36.9606 -25.1267 0
    endloop
  endfacet
  facet normal 0.982276 0.187441 0
    outer loop
      vertex 36.9606 25.1267 4.5
      vertex 36.8429 25.7435 0
      vertex 36.8429 25.7435 4.5
    endloop
  endfacet
  facet normal 0.982276 0.187441 0
    outer loop
      vertex 36.8429 25.7435 0
      vertex 36.9606 25.1267 4.5
      vertex 36.9606 25.1267 0
    endloop
  endfacet
  facet normal 0.99803 0.0627451 0
    outer loop
      vertex 37 24.5 4.5
      vertex 36.9606 25.1267 0
      vertex 36.9606 25.1267 4.5
    endloop
  endfacet
  facet normal 0.99803 0.0627451 0
    outer loop
      vertex 36.9606 25.1267 0
      vertex 37 24.5 4.5
      vertex 37 24.5 0
    endloop
  endfacet
  facet normal 0.904811 0.425812 0
    outer loop
      vertex 36.6489 26.3406 4.5
      vertex 36.3815 26.9088 0
      vertex 36.3815 26.9088 4.5
    endloop
  endfacet
  facet normal 0.904811 0.425812 0
    outer loop
      vertex 36.3815 26.9088 0
      vertex 36.6489 26.3406 4.5
      vertex 36.6489 26.3406 0
    endloop
  endfacet
  facet normal 0.587698 0.80908 -0
    outer loop
      vertex 35.1871 28.3526 0
      vertex 34.6791 28.7216 4.5
      vertex 35.1871 28.3526 4.5
    endloop
  endfacet
  facet normal 0.587698 0.80908 0
    outer loop
      vertex 34.6791 28.7216 4.5
      vertex 35.1871 28.3526 0
      vertex 34.6791 28.7216 0
    endloop
  endfacet
  facet normal 0.684624 0.728896 -0
    outer loop
      vertex 35.6448 27.9227 0
      vertex 35.1871 28.3526 4.5
      vertex 35.6448 27.9227 4.5
    endloop
  endfacet
  facet normal 0.684624 0.728896 0
    outer loop
      vertex 35.1871 28.3526 4.5
      vertex 35.6448 27.9227 0
      vertex 35.1871 28.3526 0
    endloop
  endfacet
  facet normal 0.368203 0.929745 -0
    outer loop
      vertex 34.1289 29.0241 0
      vertex 33.5451 29.2553 4.5
      vertex 34.1289 29.0241 4.5
    endloop
  endfacet
  facet normal 0.368203 0.929745 0
    outer loop
      vertex 33.5451 29.2553 4.5
      vertex 34.1289 29.0241 0
      vertex 33.5451 29.2553 0
    endloop
  endfacet
  facet normal -0.368203 0.929745 0
    outer loop
      vertex -33.5451 29.2553 0
      vertex -34.1289 29.0241 4.5
      vertex -33.5451 29.2553 4.5
    endloop
  endfacet
  facet normal -0.368203 0.929745 0
    outer loop
      vertex -34.1289 29.0241 4.5
      vertex -33.5451 29.2553 0
      vertex -34.1289 29.0241 0
    endloop
  endfacet
  facet normal -0.587698 0.80908 0
    outer loop
      vertex -34.6791 28.7216 0
      vertex -35.1871 28.3526 4.5
      vertex -34.6791 28.7216 4.5
    endloop
  endfacet
  facet normal -0.587698 0.80908 0
    outer loop
      vertex -35.1871 28.3526 4.5
      vertex -34.6791 28.7216 0
      vertex -35.1871 28.3526 0
    endloop
  endfacet
  facet normal -0.982276 0.187441 0
    outer loop
      vertex -36.9606 25.1267 0
      vertex -36.8429 25.7435 4.5
      vertex -36.8429 25.7435 0
    endloop
  endfacet
  facet normal -0.982276 0.187441 0
    outer loop
      vertex -36.8429 25.7435 4.5
      vertex -36.9606 25.1267 0
      vertex -36.9606 25.1267 4.5
    endloop
  endfacet
  facet normal -0.844336 0.535814 0
    outer loop
      vertex -36.3815 26.9088 0
      vertex -36.0451 27.4389 4.5
      vertex -36.0451 27.4389 0
    endloop
  endfacet
  facet normal -0.844336 0.535814 0
    outer loop
      vertex -36.0451 27.4389 4.5
      vertex -36.3815 26.9088 0
      vertex -36.3815 26.9088 4.5
    endloop
  endfacet
  facet normal -0.982276 -0.187441 0
    outer loop
      vertex -36.8429 -25.7435 0
      vertex -36.9606 -25.1267 1.5
      vertex -36.9606 -25.1267 0
    endloop
  endfacet
  facet normal -0.982276 -0.187441 0
    outer loop
      vertex -36.9606 -25.1267 1.5
      vertex -36.8429 -25.7435 0
      vertex -36.8429 -25.7435 1.5
    endloop
  endfacet
  facet normal -0.844336 -0.535814 0
    outer loop
      vertex -36.0451 -27.4389 0
      vertex -36.3815 -26.9088 1.5
      vertex -36.3815 -26.9088 0
    endloop
  endfacet
  facet normal -0.844336 -0.535814 0
    outer loop
      vertex -36.3815 -26.9088 1.5
      vertex -36.0451 -27.4389 0
      vertex -36.0451 -27.4389 1.5
    endloop
  endfacet
  facet normal 0.844336 -0.535814 0
    outer loop
      vertex 36.0451 -27.4389 1.5
      vertex 36.3815 -26.9088 0
      vertex 36.3815 -26.9088 1.5
    endloop
  endfacet
  facet normal 0.844336 -0.535814 0
    outer loop
      vertex 36.3815 -26.9088 0
      vertex 36.0451 -27.4389 1.5
      vertex 36.0451 -27.4389 0
    endloop
  endfacet
  facet normal 0.770462 -0.637486 0
    outer loop
      vertex 35.6448 -27.9227 1.5
      vertex 36.0451 -27.4389 0
      vertex 36.0451 -27.4389 1.5
    endloop
  endfacet
  facet normal 0.770462 -0.637486 0
    outer loop
      vertex 36.0451 -27.4389 0
      vertex 35.6448 -27.9227 1.5
      vertex 35.6448 -27.9227 0
    endloop
  endfacet
  facet normal 0.684624 -0.728896 0
    outer loop
      vertex 35.1871 -28.3526 0
      vertex 35.6448 -27.9227 1.5
      vertex 35.1871 -28.3526 1.5
    endloop
  endfacet
  facet normal 0.684624 -0.728896 0
    outer loop
      vertex 35.6448 -27.9227 1.5
      vertex 35.1871 -28.3526 0
      vertex 35.6448 -27.9227 0
    endloop
  endfacet
  facet normal 0.368203 -0.929745 0
    outer loop
      vertex 33.5451 -29.2553 0
      vertex 34.1289 -29.0241 1.5
      vertex 33.5451 -29.2553 1.5
    endloop
  endfacet
  facet normal 0.368203 -0.929745 0
    outer loop
      vertex 34.1289 -29.0241 1.5
      vertex 33.5451 -29.2553 0
      vertex 34.1289 -29.0241 0
    endloop
  endfacet
  facet normal 0.951061 -0.309003 0
    outer loop
      vertex 36.6489 -26.3406 1.5
      vertex 36.8429 -25.7435 0
      vertex 36.8429 -25.7435 1.5
    endloop
  endfacet
  facet normal 0.951061 -0.309003 0
    outer loop
      vertex 36.8429 -25.7435 0
      vertex 36.6489 -26.3406 1.5
      vertex 36.6489 -26.3406 0
    endloop
  endfacet
  facet normal 0.982276 -0.187441 0
    outer loop
      vertex 36.8429 -25.7435 1.5
      vertex 36.9606 -25.1267 0
      vertex 36.9606 -25.1267 1.5
    endloop
  endfacet
  facet normal 0.982276 -0.187441 0
    outer loop
      vertex 36.9606 -25.1267 0
      vertex 36.8429 -25.7435 1.5
      vertex 36.8429 -25.7435 0
    endloop
  endfacet
  facet normal 0.481784 0.87629 -0
    outer loop
      vertex 34.6791 28.7216 0
      vertex 34.1289 29.0241 4.5
      vertex 34.6791 28.7216 4.5
    endloop
  endfacet
  facet normal 0.481784 0.87629 0
    outer loop
      vertex 34.1289 29.0241 4.5
      vertex 34.6791 28.7216 0
      vertex 34.1289 29.0241 0
    endloop
  endfacet
  facet normal 0.248601 0.968606 -0
    outer loop
      vertex 33.5451 29.2553 0
      vertex 32.9369 29.4114 4.5
      vertex 33.5451 29.2553 4.5
    endloop
  endfacet
  facet normal 0.248601 0.968606 0
    outer loop
      vertex 32.9369 29.4114 4.5
      vertex 33.5451 29.2553 0
      vertex 32.9369 29.4114 0
    endloop
  endfacet
  facet normal -0.770462 0.637486 0
    outer loop
      vertex -36.0451 27.4389 0
      vertex -35.6448 27.9227 4.5
      vertex -35.6448 27.9227 0
    endloop
  endfacet
  facet normal -0.770462 0.637486 0
    outer loop
      vertex -35.6448 27.9227 4.5
      vertex -36.0451 27.4389 0
      vertex -36.0451 27.4389 4.5
    endloop
  endfacet
  facet normal -0.684624 0.728896 0
    outer loop
      vertex -35.1871 28.3526 0
      vertex -35.6448 27.9227 4.5
      vertex -35.1871 28.3526 4.5
    endloop
  endfacet
  facet normal -0.684624 0.728896 0
    outer loop
      vertex -35.6448 27.9227 4.5
      vertex -35.1871 28.3526 0
      vertex -35.6448 27.9227 0
    endloop
  endfacet
  facet normal -0.481784 0.87629 0
    outer loop
      vertex -34.1289 29.0241 0
      vertex -34.6791 28.7216 4.5
      vertex -34.1289 29.0241 4.5
    endloop
  endfacet
  facet normal -0.481784 0.87629 0
    outer loop
      vertex -34.6791 28.7216 4.5
      vertex -34.1289 29.0241 0
      vertex -34.6791 28.7216 0
    endloop
  endfacet
  facet normal -0.904811 0.425812 0
    outer loop
      vertex -36.6489 26.3406 0
      vertex -36.3815 26.9088 4.5
      vertex -36.3815 26.9088 0
    endloop
  endfacet
  facet normal -0.904811 0.425812 0
    outer loop
      vertex -36.3815 26.9088 4.5
      vertex -36.6489 26.3406 0
      vertex -36.6489 26.3406 4.5
    endloop
  endfacet
  facet normal 0.587698 -0.80908 0
    outer loop
      vertex 34.6791 -28.7216 0
      vertex 35.1871 -28.3526 1.5
      vertex 34.6791 -28.7216 1.5
    endloop
  endfacet
  facet normal 0.587698 -0.80908 0
    outer loop
      vertex 35.1871 -28.3526 1.5
      vertex 34.6791 -28.7216 0
      vertex 35.1871 -28.3526 0
    endloop
  endfacet
  facet normal 0.125348 -0.992113 0
    outer loop
      vertex 32.314 -29.4901 0
      vertex 32.9369 -29.4114 1.5
      vertex 32.314 -29.4901 1.5
    endloop
  endfacet
  facet normal 0.125348 -0.992113 0
    outer loop
      vertex 32.9369 -29.4114 1.5
      vertex 32.314 -29.4901 0
      vertex 32.9369 -29.4114 0
    endloop
  endfacet
  facet normal 0.248601 -0.968606 0
    outer loop
      vertex 32.9369 -29.4114 0
      vertex 33.5451 -29.2553 1.5
      vertex 32.9369 -29.4114 1.5
    endloop
  endfacet
  facet normal 0.248601 -0.968606 0
    outer loop
      vertex 33.5451 -29.2553 1.5
      vertex 32.9369 -29.4114 0
      vertex 33.5451 -29.2553 0
    endloop
  endfacet
endsolid OpenSCAD_Model
