  0
SECTION
  2
HEADER
  9
$ACADVER
  1
AC1021
  9
$ACADMAINTVER
 70
    25
  9
$DWGCODEPAGE
  3
ANSI_1252
  9
$INSBASE
 10
0.0
 20
0.0
 30
0.0
  9
$EXTMIN
 10
-4.43776
 20
-4.45646
 30
0.0
  9
$EXTMAX
 10
4.44262
 20
4.4316
 30
0.0
  9
$LIMMIN
 10
0.0
 20
0.0
  9
$LIMMAX
 10
12.0
 20
9.0
  9
$ORTHOMODE
 70
     0
  9
$REGENMODE
 70
     1
  9
$FILLMODE
 70
     1
  9
$QTEXTMODE
 70
     0
  9
$MIRRTEXT
 70
     1
  9
$LTSCALE
 40
1.0
  9
$ATTMODE
 70
     1
  9
$TEXTSIZE
 40
0.2
  9
$TRACEWID
 40
0.05
  9
$TEXTSTYLE
  7
Standard
  9
$CLAYER
  8
0
  9
$CELTYPE
  6
ByLayer
  9
$CECOLOR
 62
   256
  9
$CELTSCALE
 40
1.0
  9
$DISPSILH
 70
     0
  9
$DIMSCALE
 40
1.0
  9
$DIMASZ
 40
0.18
  9
$DIMEXO
 40
0.0625
  9
$DIMDLI
 40
0.38
  9
$DIMRND
 40
0.0
  9
$DIMDLE
 40
0.0
  9
$DIMEXE
 40
0.18
  9
$DIMTP
 40
0.0
  9
$DIMTM
 40
0.0
  9
$DIMTXT
 40
0.18
  9
$DIMCEN
 40
0.09
  9
$DIMTSZ
 40
0.0
  9
$DIMTOL
 70
     0
  9
$DIMLIM
 70
     0
  9
$DIMTIH
 70
     1
  9
$DIMTOH
 70
     1
  9
$DIMSE1
 70
     0
  9
$DIMSE2
 70
     0
  9
$DIMTAD
 70
     0
  9
$DIMZIN
 70
     0
  9
$DIMBLK
  1

  9
$DIMASO
 70
     1
  9
$DIMSHO
 70
     1
  9
$DIMPOST
  1

  9
$DIMAPOST
  1

  9
$DIMALT
 70
     0
  9
$DIMALTD
 70
     2
  9
$DIMALTF
 40
25.4
  9
$DIMLFAC
 40
1.0
  9
$DIMTOFL
 70
     0
  9
$DIMTVP
 40
0.0
  9
$DIMTIX
 70
     0
  9
$DIMSOXD
 70
     0
  9
$DIMSAH
 70
     0
  9
$DIMBLK1
  1

  9
$DIMBLK2
  1

  9
$DIMSTYLE
  2
Standard
  9
$DIMCLRD
 70
     0
  9
$DIMCLRE
 70
     0
  9
$DIMCLRT
 70
     0
  9
$DIMTFAC
 40
1.0
  9
$DIMGAP
 40
0.09
  9
$DIMJUST
 70
     0
  9
$DIMSD1
 70
     0
  9
$DIMSD2
 70
     0
  9
$DIMTOLJ
 70
     1
  9
$DIMTZIN
 70
     0
  9
$DIMALTZ
 70
     0
  9
$DIMALTTZ
 70
     0
  9
$DIMUPT
 70
     0
  9
$DIMDEC
 70
     4
  9
$DIMTDEC
 70
     4
  9
$DIMALTU
 70
     2
  9
$DIMALTTD
 70
     2
  9
$DIMTXSTY
  7
Standard
  9
$DIMAUNIT
 70
     0
  9
$DIMADEC
 70
     0
  9
$DIMALTRND
 40
0.0
  9
$DIMAZIN
 70
     0
  9
$DIMDSEP
 70
    46
  9
$DIMATFIT
 70
     3
  9
$DIMFRAC
 70
     0
  9
$DIMLDRBLK
  1

  9
$DIMLUNIT
 70
     2
  9
$DIMLWD
 70
    -2
  9
$DIMLWE
 70
    -2
  9
$DIMTMOVE
 70
     0
  9
$DIMFXL
 40
1.0
  9
$DIMFXLON
 70
     0
  9
$DIMJOGANG
 40
0.7853981633974483
  9
$DIMTFILL
 70
     0
  9
$DIMTFILLCLR
 70
     0
  9
$DIMARCSYM
 70
     0
  9
$DIMLTYPE
  6

  9
$DIMLTEX1
  6

  9
$DIMLTEX2
  6

  9
$LUNITS
 70
     2
  9
$LUPREC
 70
     4
  9
$SKETCHINC
 40
0.1
  9
$FILLETRAD
 40
0.5
  9
$AUNITS
 70
     0
  9
$AUPREC
 70
     0
  9
$MENU
  1
.
  9
$ELEVATION
 40
0.0
  9
$PELEVATION
 40
0.0
  9
$THICKNESS
 40
0.0
  9
$LIMCHECK
 70
     0
  9
$CHAMFERA
 40
0.5
  9
$CHAMFERB
 40
0.5
  9
$CHAMFERC
 40
1.0
  9
$CHAMFERD
 40
0.0
  9
$SKPOLY
 70
     0
  9
$TDCREATE
 40
2460801.840452222
  9
$TDUCREATE
 40
2460801.798785556
  9
$TDUPDATE
 40
2460801.840452245
  9
$TDUUPDATE
 40
2460801.798785579
  9
$TDINDWG
 40
0.0000000116
  9
$TDUSRTIMER
 40
0.0000000116
  9
$USRTIMER
 70
     1
  9
$ANGBASE
 50
0.0
  9
$ANGDIR
 70
     0
  9
$PDMODE
 70
     0
  9
$PDSIZE
 40
0.0
  9
$PLINEWID
 40
0.0
  9
$SPLFRAME
 70
     0
  9
$SPLINETYPE
 70
     6
  9
$SPLINESEGS
 70
     8
  9
$HANDSEED
  5
6C
  9
$SURFTAB1
 70
     6
  9
$SURFTAB2
 70
     6
  9
$SURFTYPE
 70
     6
  9
$SURFU
 70
     6
  9
$SURFV
 70
     6
  9
$UCSBASE
  2

  9
$UCSNAME
  2

  9
$UCSORG
 10
0.0
 20
0.0
 30
0.0
  9
$UCSXDIR
 10
1.0
 20
0.0
 30
0.0
  9
$UCSYDIR
 10
0.0
 20
1.0
 30
0.0
  9
$UCSORTHOREF
  2

  9
$UCSORTHOVIEW
 70
     0
  9
$UCSORGTOP
 10
0.0
 20
0.0
 30
0.0
  9
$UCSORGBOTTOM
 10
0.0
 20
0.0
 30
0.0
  9
$UCSORGLEFT
 10
0.0
 20
0.0
 30
0.0
  9
$UCSORGRIGHT
 10
0.0
 20
0.0
 30
0.0
  9
$UCSORGFRONT
 10
0.0
 20
0.0
 30
0.0
  9
$UCSORGBACK
 10
0.0
 20
0.0
 30
0.0
  9
$PUCSBASE
  2

  9
$PUCSNAME
  2

  9
$PUCSORG
 10
0.0
 20
0.0
 30
0.0
  9
$PUCSXDIR
 10
1.0
 20
0.0
 30
0.0
  9
$PUCSYDIR
 10
0.0
 20
1.0
 30
0.0
  9
$PUCSORTHOREF
  2

  9
$PUCSORTHOVIEW
 70
     0
  9
$PUCSORGTOP
 10
0.0
 20
0.0
 30
0.0
  9
$PUCSORGBOTTOM
 10
0.0
 20
0.0
 30
0.0
  9
$PUCSORGLEFT
 10
0.0
 20
0.0
 30
0.0
  9
$PUCSORGRIGHT
 10
0.0
 20
0.0
 30
0.0
  9
$PUCSORGFRONT
 10
0.0
 20
0.0
 30
0.0
  9
$PUCSORGBACK
 10
0.0
 20
0.0
 30
0.0
  9
$USERI1
 70
     0
  9
$USERI2
 70
     0
  9
$USERI3
 70
     0
  9
$USERI4
 70
     0
  9
$USERI5
 70
     0
  9
$USERR1
 40
0.0
  9
$USERR2
 40
0.0
  9
$USERR3
 40
0.0
  9
$USERR4
 40
0.0
  9
$USERR5
 40
0.0
  9
$WORLDVIEW
 70
     1
  9
$SHADEDGE
 70
     3
  9
$SHADEDIF
 70
    70
  9
$TILEMODE
 70
     1
  9
$MAXACTVP
 70
    64
  9
$PINSBASE
 10
0.0
 20
0.0
 30
0.0
  9
$PLIMCHECK
 70
     0
  9
$PEXTMIN
 10
1.000000000000000E+20
 20
1.000000000000000E+20
 30
1.000000000000000E+20
  9
$PEXTMAX
 10
-1.000000000000000E+20
 20
-1.000000000000000E+20
 30
-1.000000000000000E+20
  9
$PLIMMIN
 10
0.0
 20
0.0
  9
$PLIMMAX
 10
12.0
 20
9.0
  9
$UNITMODE
 70
     0
  9
$VISRETAIN
 70
     1
  9
$PLINEGEN
 70
     0
  9
$PSLTSCALE
 70
     1
  9
$TREEDEPTH
 70
  3020
  9
$CMLSTYLE
  2
Standard
  9
$CMLJUST
 70
     0
  9
$CMLSCALE
 40
1.0
  9
$PROXYGRAPHICS
 70
     1
  9
$MEASUREMENT
 70
     0
  9
$CELWEIGHT
370
    -1
  9
$ENDCAPS
280
     0
  9
$JOINSTYLE
280
     0
  9
$LWDISPLAY
290
     0
  9
$INSUNITS
 70
     5
  9
$HYPERLINKBASE
  1

  9
$STYLESHEET
  1

  9
$XEDIT
290
     1
  9
$CEPSNTYPE
380
     0
  9
$PSTYLEMODE
290
     1
  9
$FINGERPRINTGUID
  2
{65C15519-4650-48F1-A7C5-F1A593F418EC}
  9
$VERSIONGUID
  2
{FAEB1C32-E019-11D5-929B-00C0DF256EC4}
  9
$EXTNAMES
290
     1
  9
$PSVPSCALE
 40
0.0
  9
$OLESTARTUP
290
     0
  9
$SORTENTS
280
   127
  9
$INDEXCTL
280
     0
  9
$HIDETEXT
280
     1
  9
$XCLIPFRAME
290
     0
  9
$HALOGAP
280
     0
  9
$OBSCOLOR
 70
   257
  9
$OBSLTYPE
280
     0
  9
$INTERSECTIONDISPLAY
280
     0
  9
$INTERSECTIONCOLOR
 70
   257
  9
$DIMASSOC
280
     2
  9
$PROJECTNAME
  1

  9
$CAMERADISPLAY
290
     0
  9
$LENSLENGTH
 40
50.0
  9
$CAMERAHEIGHT
 40
0.0
  9
$STEPSPERSEC
 40
2.0
  9
$STEPSIZE
 40
6.0
  9
$3DDWFPREC
 40
2.0
  9
$PSOLWIDTH
 40
0.25
  9
$PSOLHEIGHT
 40
4.0
  9
$LOFTANG1
 40
1.570796326794897
  9
$LOFTANG2
 40
1.570796326794897
  9
$LOFTMAG1
 40
0.0
  9
$LOFTMAG2
 40
0.0
  9
$LOFTPARAM
 70
     7
  9
$LOFTNORMALS
280
     1
  9
$LATITUDE
 40
37.795
  9
$LONGITUDE
 40
-122.394
  9
$NORTHDIRECTION
 40
0.0
  9
$TIMEZONE
 70
 -8000
  9
$LIGHTGLYPHDISPLAY
280
     1
  9
$TILEMODELIGHTSYNCH
280
     1
  9
$SOLIDHIST
280
     1
  9
$SHOWHIST
280
     1
  9
$DWFFRAME
280
     2
  9
$DGNFRAME
280
     2
  9
$REALWORLDSCALE
290
     1
  9
$INTERFERECOLOR
 62
   256
  9
$CSHADOW
280
     0
  9
$SHADOWPLANELOCATION
 40
0.0
  0
ENDSEC
  0
SECTION
  2
CLASSES
  0
CLASS
  1
ACDBDICTIONARYWDFLT
  2
AcDbDictionaryWithDefault
  3
ObjectDBX Classes
 90
        0
 91
        4
280
     0
281
     0
  0
CLASS
  1
VISUALSTYLE
  2
AcDbVisualStyle
  3
ObjectDBX Classes
 90
     4095
 91
        4
280
     0
281
     0
  0
CLASS
  1
MATERIAL
  2
AcDbMaterial
  3
ObjectDBX Classes
 90
     1153
 91
        4
280
     0
281
     0
  0
ENDSEC
  0
SECTION
  2
TABLES
  0
TABLE
  2
VPORT
  5
8
330
0
100
AcDbSymbolTable
 70
     1
  0
VPORT
  5
29
330
8
100
AcDbSymbolTableRecord
100
AcDbViewportTableRecord
  2
*Active
 70
     0
 10
0.0
 20
0.0
 11
1.0
 21
1.0
 12
10.42990654205607
 22
4.5
 13
0.0
 23
0.0
 14
0.5
 24
0.5
 15
0.5
 25
0.5
 16
0.0
 26
0.0
 36
1.0
 17
0.0
 27
0.0
 37
0.0
 40
9.0
 41
1.972972972850329
 42
50.0
 43
0.0
 44
0.0
 50
0.0
 51
0.0
 71
     0
 72
   100
 73
     1
 74
     3
 75
     0
 76
     0
 77
     0
 78
     0
281
     0
 65
     1
110
0.0
120
0.0
130
0.0
111
1.0
121
0.0
131
0.0
112
0.0
122
1.0
132
0.0
 79
     0
146
0.0
 60
     3
 61
     5
292
     1
282
     1
141
0.0
142
0.0
 63
   250
  0
ENDTAB
  0
TABLE
  2
LTYPE
  5
5
330
0
100
AcDbSymbolTable
 70
     1
  0
LTYPE
  5
14
330
5
100
AcDbSymbolTableRecord
100
AcDbLinetypeTableRecord
  2
ByBlock
 70
     0
  3

 72
    65
 73
     0
 40
0.0
  0
LTYPE
  5
15
330
5
100
AcDbSymbolTableRecord
100
AcDbLinetypeTableRecord
  2
ByLayer
 70
     0
  3

 72
    65
 73
     0
 40
0.0
  0
LTYPE
  5
16
330
5
100
AcDbSymbolTableRecord
100
AcDbLinetypeTableRecord
  2
Continuous
 70
     0
  3
Solid line
 72
    65
 73
     0
 40
0.0
  0
ENDTAB
  0
TABLE
  2
LAYER
  5
2
330
0
100
AcDbSymbolTable
 70
     2
  0
LAYER
  5
10
330
2
100
AcDbSymbolTableRecord
100
AcDbLayerTableRecord
  2
0
 70
     0
 62
     7
  6
Continuous
370
    -3
390
F
347
3E
  0
LAYER
  5
40
330
2
100
AcDbSymbolTableRecord
100
AcDbLayerTableRecord
  2
Layer 1
 70
     0
 62
     7
  6
Continuous
370
    -3
390
F
347
3E
  0
ENDTAB
  0
TABLE
  2
STYLE
  5
3
330
0
100
AcDbSymbolTable
 70
     1
  0
STYLE
  5
11
330
3
100
AcDbSymbolTableRecord
100
AcDbTextStyleTableRecord
  2
Standard
 70
     0
 40
0.0
 41
1.0
 50
0.0
 71
     0
 42
0.2
  3
txt
  4

  0
ENDTAB
  0
TABLE
  2
VIEW
  5
6
330
0
100
AcDbSymbolTable
 70
     0
  0
ENDTAB
  0
TABLE
  2
UCS
  5
7
330
0
100
AcDbSymbolTable
 70
     0
  0
ENDTAB
  0
TABLE
  2
APPID
  5
9
330
0
100
AcDbSymbolTable
 70
     2
  0
APPID
  5
12
330
9
100
AcDbSymbolTableRecord
100
AcDbRegAppTableRecord
  2
ACAD
 70
     0
  0
APPID
  5
3F
330
9
100
AcDbSymbolTableRecord
100
AcDbRegAppTableRecord
  2
ODA
 70
     0
  0
ENDTAB
  0
TABLE
  2
DIMSTYLE
  5
A
330
0
100
AcDbSymbolTable
 70
     1
100
AcDbDimStyleTable
  0
DIMSTYLE
105
27
330
A
100
AcDbSymbolTableRecord
100
AcDbDimStyleTableRecord
  2
Standard
 70
     0
178
     0
340
11
  0
ENDTAB
  0
TABLE
  2
BLOCK_RECORD
  5
1
330
0
100
AcDbSymbolTable
 70
     1
  0
BLOCK_RECORD
  5
1F
330
1
100
AcDbSymbolTableRecord
100
AcDbBlockTableRecord
  2
*Model_Space
340
22
 70
     0
280
     1
281
     0
  0
BLOCK_RECORD
  5
1B
330
1
100
AcDbSymbolTableRecord
100
AcDbBlockTableRecord
  2
*Paper_Space
340
1E
 70
     0
280
     1
281
     0
  0
BLOCK_RECORD
  5
23
330
1
100
AcDbSymbolTableRecord
100
AcDbBlockTableRecord
  2
*Paper_Space0
340
26
 70
     0
280
     1
281
     0
  0
ENDTAB
  0
ENDSEC
  0
SECTION
  2
BLOCKS
  0
BLOCK
  5
20
330
1F
100
AcDbEntity
  8
0
100
AcDbBlockBegin
  2
*Model_Space
 70
     0
 10
0.0
 20
0.0
 30
0.0
  3
*Model_Space
  1

  0
ENDBLK
  5
21
330
1F
100
AcDbEntity
  8
0
100
AcDbBlockEnd
  0
BLOCK
  5
1C
330
1B
100
AcDbEntity
 67
     1
  8
0
100
AcDbBlockBegin
  2
*Paper_Space
 70
     0
 10
0.0
 20
0.0
 30
0.0
  3
*Paper_Space
  1

  0
ENDBLK
  5
1D
330
1B
100
AcDbEntity
 67
     1
  8
0
100
AcDbBlockEnd
  0
BLOCK
  5
24
330
23
100
AcDbEntity
  8
0
100
AcDbBlockBegin
  2
*Paper_Space0
 70
     0
 10
0.0
 20
0.0
 30
0.0
  3
*Paper_Space0
  1

  0
ENDBLK
  5
25
330
23
100
AcDbEntity
  8
0
100
AcDbBlockEnd
  0
ENDSEC
  0
SECTION
  2
ENTITIES
  0
SPLINE
  5
41
330
1F
100
AcDbEntity
  8
Layer 1
370
     9
100
AcDbSpline
210
0.0
220
0.0
230
1.0
 70
    11
 71
     3
 72
   132
 73
   128
 74
     0
 42
0.0000000001
 43
0.0000000001
 12
1.0
 22
0.0
 32
0.0
 13
1.0
 23
0.0
 33
0.0
 40
0.0
 40
0.0
 40
0.0
 40
0.0
 40
0.0303030303030303
 40
0.0303030303030303
 40
0.0303030303030303
 40
0.0303030303030303
 40
0.0606060606060606
 40
0.0606060606060606
 40
0.0606060606060606
 40
0.0606060606060606
 40
0.0909090909090909
 40
0.0909090909090909
 40
0.0909090909090909
 40
0.0909090909090909
 40
0.1212121212121212
 40
0.1212121212121212
 40
0.1212121212121212
 40
0.1212121212121212
 40
0.1515151515151515
 40
0.1515151515151515
 40
0.1515151515151515
 40
0.1515151515151515
 40
0.1818181818181818
 40
0.1818181818181818
 40
0.1818181818181818
 40
0.1818181818181818
 40
0.2121212121212121
 40
0.2121212121212121
 40
0.2121212121212121
 40
0.2121212121212121
 40
0.2424242424242424
 40
0.2424242424242424
 40
0.2424242424242424
 40
0.2424242424242424
 40
0.2727272727272727
 40
0.2727272727272727
 40
0.2727272727272727
 40
0.2727272727272727
 40
0.303030303030303
 40
0.303030303030303
 40
0.303030303030303
 40
0.303030303030303
 40
0.3333333333333333
 40
0.3333333333333333
 40
0.3333333333333333
 40
0.3333333333333333
 40
0.3636363636363636
 40
0.3636363636363636
 40
0.3636363636363636
 40
0.3636363636363636
 40
0.3939393939393939
 40
0.3939393939393939
 40
0.3939393939393939
 40
0.3939393939393939
 40
0.4242424242424243
 40
0.4242424242424243
 40
0.4242424242424243
 40
0.4242424242424243
 40
0.4545454545454545
 40
0.4545454545454545
 40
0.4545454545454545
 40
0.4545454545454545
 40
0.4848484848484849
 40
0.4848484848484849
 40
0.4848484848484849
 40
0.4848484848484849
 40
0.5151515151515151
 40
0.5151515151515151
 40
0.5151515151515151
 40
0.5151515151515151
 40
0.5454545454545454
 40
0.5454545454545454
 40
0.5454545454545454
 40
0.5454545454545454
 40
0.5757575757575758
 40
0.5757575757575758
 40
0.5757575757575758
 40
0.5757575757575758
 40
0.6060606060606061
 40
0.6060606060606061
 40
0.6060606060606061
 40
0.6060606060606061
 40
0.6363636363636364
 40
0.6363636363636364
 40
0.6363636363636364
 40
0.6363636363636364
 40
0.6666666666666666
 40
0.6666666666666666
 40
0.6666666666666666
 40
0.6666666666666666
 40
0.696969696969697
 40
0.696969696969697
 40
0.696969696969697
 40
0.696969696969697
 40
0.7272727272727273
 40
0.7272727272727273
 40
0.7272727272727273
 40
0.7272727272727273
 40
0.7575757575757576
 40
0.7575757575757576
 40
0.7575757575757576
 40
0.7575757575757576
 40
0.7878787878787878
 40
0.7878787878787878
 40
0.7878787878787878
 40
0.7878787878787878
 40
0.8181818181818182
 40
0.8181818181818182
 40
0.8181818181818182
 40
0.8181818181818182
 40
0.8484848484848485
 40
0.8484848484848485
 40
0.8484848484848485
 40
0.8484848484848485
 40
0.8787878787878788
 40
0.8787878787878788
 40
0.8787878787878788
 40
0.8787878787878788
 40
0.9090909090909091
 40
0.9090909090909091
 40
0.9090909090909091
 40
0.9090909090909091
 40
0.9393939393939394
 40
0.9393939393939394
 40
0.9393939393939394
 40
0.9393939393939394
 40
1.0
 40
1.0
 40
1.0
 40
1.0
 10
-0.85765
 20
-4.05146
 30
0.0
 10
-0.75058
 20
-3.89933
 30
0.0
 10
-0.52145
 20
-3.53925
 30
0.0
 10
-0.64272
 20
-3.32858
 30
0.0
 10
-0.64272
 20
-3.32858
 30
0.0
 10
-0.69001
 20
-3.24643
 30
0.0
 10
-0.74623
 20
-3.21824
 30
0.0
 10
-0.86827
 20
-3.21095
 30
0.0
 10
-0.86827
 20
-3.21095
 30
0.0
 10
-0.85935
 20
-3.17048
 30
0.0
 10
-0.82839
 20
-3.12462
 30
0.0
 10
-0.80957
 20
-3.08696
 30
0.0
 10
-0.80957
 20
-3.08696
 30
0.0
 10
-0.78847
 20
-3.04472
 30
0.0
 10
-0.76838
 20
-3.00361
 30
0.0
 10
-0.74803
 20
-2.95329
 30
0.0
 10
-0.74803
 20
-2.95329
 30
0.0
 10
-0.67486
 20
-2.77235
 30
0.0
 10
-0.60135
 20
-2.49551
 30
0.0
 10
-0.79674
 20
-2.36893
 30
0.0
 10
-0.79674
 20
-2.36893
 30
0.0
 10
-0.91086
 20
-2.29499
 30
0.0
 10
-0.99732
 20
-2.32465
 30
0.0
 10
-1.10709
 20
-2.36286
 30
0.0
 10
-1.10709
 20
-2.36286
 30
0.0
 10
-1.09895
 20
-2.31815
 30
0.0
 10
-1.0654
 20
-2.25378
 30
0.0
 10
-1.04998
 20
-2.21114
 30
0.0
 10
-1.04998
 20
-2.21114
 30
0.0
 10
-0.97063
 20
-1.99165
 30
0.0
 10
-0.87166
 20
-1.53935
 30
0.0
 10
-1.17822
 20
-1.45147
 30
0.0
 10
-1.17822
 20
-1.45147
 30
0.0
 10
-1.30672
 20
-1.41463
 30
0.0
 10
-1.40986
 20
-1.50011
 30
0.0
 10
-1.50312
 20
-1.53274
 30
0.0
 10
-1.50312
 20
-1.53274
 30
0.0
 10
-1.47867
 20
-1.28368
 30
0.0
 10
-1.47662
 20
-0.68271
 30
0.0
 10
-1.81637
 20
-0.68253
 30
0.0
 10
-1.81637
 20
-0.68253
 30
0.0
 10
-1.97601
 20
-0.68244
 30
0.0
 10
-2.0291
 20
-0.79843
 30
0.0
 10
-2.06872
 20
-0.82852
 30
0.0
 10
-2.06872
 20
-0.82852
 30
0.0
 10
-2.15042
 20
-0.61182
 30
0.0
 10
-2.38079
 20
-0.17921
 30
0.0
 10
-2.71065
 20
-0.27778
 30
0.0
 10
-2.71065
 20
-0.27778
 30
0.0
 10
-2.96539
 20
-0.35391
 30
0.0
 10
-2.97468
 20
-0.70863
 30
0.0
 10
-2.93037
 20
-0.93787
 30
0.0
 10
-2.93037
 20
-0.93787
 30
0.0
 10
-2.91378
 20
-1.02372
 30
0.0
 10
-2.88347
 20
-1.11091
 30
0.0
 10
-2.87152
 20
-1.19558
 30
0.0
 10
-2.87152
 20
-1.19558
 30
0.0
 10
-2.98182
 20
-1.17812
 30
0.0
 10
-3.06421
 20
-1.17063
 30
0.0
 10
-3.14841
 20
-1.22647
 30
0.0
 10
-3.14841
 20
-1.22647
 30
0.0
 10
-3.31624
 20
-1.33778
 30
0.0
 10
-3.28804
 20
-1.58471
 30
0.0
 10
-3.22896
 20
-1.74429
 30
0.0
 10
-3.22896
 20
-1.74429
 30
0.0
 10
-3.19793
 20
-1.82809
 30
0.0
 10
-3.1312
 20
-1.93817
 30
0.0
 10
-3.12775
 20
-1.97967
 30
0.0
 10
-3.12775
 20
-1.97967
 30
0.0
 10
-3.24662
 20
-1.98329
 30
0.0
 10
-3.26558
 20
-1.94628
 30
0.0
 10
-3.37247
 20
-2.01803
 30
0.0
 10
-3.37247
 20
-2.01803
 30
0.0
 10
-3.4593
 20
-2.07631
 30
0.0
 10
-3.45779
 20
-2.08562
 30
0.0
 10
-3.4929
 20
-2.17144
 30
0.0
 10
-3.4929
 20
-2.17144
 30
0.0
 10
-3.4929
 20
-2.17144
 30
0.0
 10
-3.50586
 20
-2.1997
 30
0.0
 10
-3.50586
 20
-2.1997
 30
0.0
 10
-3.50586
 20
-2.1997
 30
0.0
 10
-3.57675
 20
-2.13755
 30
0.0
 10
-3.77141
 20
-1.74858
 30
0.0
 10
-3.82264
 20
-1.62568
 30
0.0
 10
-3.82264
 20
-1.62568
 30
0.0
 10
-4.12151
 20
-0.90879
 30
0.0
 10
-4.21263
 20
-0.10437
 30
0.0
 10
-4.08514
 20
0.68696
 30
0.0
 10
-4.08514
 20
0.68696
 30
0.0
 10
-4.00299
 20
1.19686
 30
0.0
 10
-3.84193
 20
1.57507
 30
0.0
 10
-3.62475
 20
2.01373
 30
0.0
 10
-3.62475
 20
2.01373
 30
0.0
 10
-3.4964
 20
2.27295
 30
0.0
 10
-3.25269
 20
2.58419
 30
0.0
 10
-3.06173
 20
2.79763
 30
0.0
 10
-3.06173
 20
2.79763
 30
0.0
 10
-2.99146
 20
2.87616
 30
0.0
 10
-2.91559
 20
2.95218
 30
0.0
 10
-2.83837
 20
3.02417
 30
0.0
 10
-2.83837
 20
3.02417
 30
0.0
 10
-1.45171
 20
4.31686
 30
0.0
 10
0.73016
 20
4.55201
 30
0.0
 10
2.4312
 20
3.35859
 30
0.0
 10
2.4312
 20
3.35859
 30
0.0
 10
3.12851
 20
2.86936
 30
0.0
 10
3.68286
 20
2.11304
 30
0.0
 10
3.94767
 20
1.29214
 30
0.0
 10
3.94767
 20
1.29214
 30
0.0
 10
4.28329
 20
0.25171
 30
0.0
 10
4.18068
 20
-0.8098
 30
0.0
 10
3.78237
 20
-1.72203
 30
0.0
 10
3.78237
 20
-1.72203
 30
0.0
 10
3.59472
 20
-2.1518
 30
0.0
 10
3.34774
 20
-2.4879
 30
0.0
 10
3.06788
 20
-2.79424
 30
0.0
 10
3.06788
 20
-2.79424
 30
0.0
 10
2.8163
 20
-3.06962
 30
0.0
 10
2.45139
 20
-3.37977
 30
0.0
 10
2.06791
 20
-3.59142
 30
0.0
 10
2.06791
 20
-3.59142
 30
0.0
 10
1.68858
 20
-3.80077
 30
0.0
 10
1.27703
 20
-3.9847
 30
0.0
 10
0.76792
 20
-4.07822
 30
0.0
 10
0.76792
 20
-4.07822
 30
0.0
 10
0.25162
 20
-4.17306
 30
0.0
 10
-0.35687
 20
-4.17073
 30
0.0
 10
-0.85765
 20
-4.05146
 30
0.0
  0
SPLINE
  5
42
330
1F
100
AcDbEntity
  8
Layer 1
370
     9
100
AcDbSpline
210
0.0
220
0.0
230
1.0
 70
    11
 71
     3
 72
   236
 73
   232
 74
     0
 42
0.0000000001
 43
0.0000000001
 12
1.0
 22
0.0
 32
0.0
 13
1.0
 23
0.0
 33
0.0
 40
0.0
 40
0.0
 40
0.0
 40
0.0
 40
0.0169491525423729
 40
0.0169491525423729
 40
0.0169491525423729
 40
0.0169491525423729
 40
0.0338983050847458
 40
0.0338983050847458
 40
0.0338983050847458
 40
0.0338983050847458
 40
0.0508474576271186
 40
0.0508474576271186
 40
0.0508474576271186
 40
0.0508474576271186
 40
0.0677966101694915
 40
0.0677966101694915
 40
0.0677966101694915
 40
0.0677966101694915
 40
0.0847457627118644
 40
0.0847457627118644
 40
0.0847457627118644
 40
0.0847457627118644
 40
0.1016949152542373
 40
0.1016949152542373
 40
0.1016949152542373
 40
0.1016949152542373
 40
0.1186440677966102
 40
0.1186440677966102
 40
0.1186440677966102
 40
0.1186440677966102
 40
0.1355932203389831
 40
0.1355932203389831
 40
0.1355932203389831
 40
0.1355932203389831
 40
0.1525423728813559
 40
0.1525423728813559
 40
0.1525423728813559
 40
0.1525423728813559
 40
0.1694915254237288
 40
0.1694915254237288
 40
0.1694915254237288
 40
0.1694915254237288
 40
0.1864406779661017
 40
0.1864406779661017
 40
0.1864406779661017
 40
0.1864406779661017
 40
0.2033898305084746
 40
0.2033898305084746
 40
0.2033898305084746
 40
0.2033898305084746
 40
0.2203389830508475
 40
0.2203389830508475
 40
0.2203389830508475
 40
0.2203389830508475
 40
0.2372881355932203
 40
0.2372881355932203
 40
0.2372881355932203
 40
0.2372881355932203
 40
0.2542372881355932
 40
0.2542372881355932
 40
0.2542372881355932
 40
0.2542372881355932
 40
0.2711864406779661
 40
0.2711864406779661
 40
0.2711864406779661
 40
0.2711864406779661
 40
0.288135593220339
 40
0.288135593220339
 40
0.288135593220339
 40
0.288135593220339
 40
0.3050847457627119
 40
0.3050847457627119
 40
0.3050847457627119
 40
0.3050847457627119
 40
0.3220338983050847
 40
0.3220338983050847
 40
0.3220338983050847
 40
0.3220338983050847
 40
0.3389830508474576
 40
0.3389830508474576
 40
0.3389830508474576
 40
0.3389830508474576
 40
0.3559322033898305
 40
0.3559322033898305
 40
0.3559322033898305
 40
0.3559322033898305
 40
0.3728813559322034
 40
0.3728813559322034
 40
0.3728813559322034
 40
0.3728813559322034
 40
0.3898305084745763
 40
0.3898305084745763
 40
0.3898305084745763
 40
0.3898305084745763
 40
0.4067796610169492
 40
0.4067796610169492
 40
0.4067796610169492
 40
0.4067796610169492
 40
0.423728813559322
 40
0.423728813559322
 40
0.423728813559322
 40
0.423728813559322
 40
0.4406779661016949
 40
0.4406779661016949
 40
0.4406779661016949
 40
0.4406779661016949
 40
0.4576271186440678
 40
0.4576271186440678
 40
0.4576271186440678
 40
0.4576271186440678
 40
0.4745762711864407
 40
0.4745762711864407
 40
0.4745762711864407
 40
0.4745762711864407
 40
0.4915254237288136
 40
0.4915254237288136
 40
0.4915254237288136
 40
0.4915254237288136
 40
0.5084745762711864
 40
0.5084745762711864
 40
0.5084745762711864
 40
0.5084745762711864
 40
0.5254237288135594
 40
0.5254237288135594
 40
0.5254237288135594
 40
0.5254237288135594
 40
0.5423728813559322
 40
0.5423728813559322
 40
0.5423728813559322
 40
0.5423728813559322
 40
0.559322033898305
 40
0.559322033898305
 40
0.559322033898305
 40
0.559322033898305
 40
0.576271186440678
 40
0.576271186440678
 40
0.576271186440678
 40
0.576271186440678
 40
0.5932203389830508
 40
0.5932203389830508
 40
0.5932203389830508
 40
0.5932203389830508
 40
0.6101694915254238
 40
0.6101694915254238
 40
0.6101694915254238
 40
0.6101694915254238
 40
0.6271186440677966
 40
0.6271186440677966
 40
0.6271186440677966
 40
0.6271186440677966
 40
0.6440677966101694
 40
0.6440677966101694
 40
0.6440677966101694
 40
0.6440677966101694
 40
0.6610169491525424
 40
0.6610169491525424
 40
0.6610169491525424
 40
0.6610169491525424
 40
0.6779661016949152
 40
0.6779661016949152
 40
0.6779661016949152
 40
0.6779661016949152
 40
0.6949152542372882
 40
0.6949152542372882
 40
0.6949152542372882
 40
0.6949152542372882
 40
0.711864406779661
 40
0.711864406779661
 40
0.711864406779661
 40
0.711864406779661
 40
0.7288135593220338
 40
0.7288135593220338
 40
0.7288135593220338
 40
0.7288135593220338
 40
0.7457627118644068
 40
0.7457627118644068
 40
0.7457627118644068
 40
0.7457627118644068
 40
0.7627118644067796
 40
0.7627118644067796
 40
0.7627118644067796
 40
0.7627118644067796
 40
0.7796610169491526
 40
0.7796610169491526
 40
0.7796610169491526
 40
0.7796610169491526
 40
0.7966101694915254
 40
0.7966101694915254
 40
0.7966101694915254
 40
0.7966101694915254
 40
0.8135593220338984
 40
0.8135593220338984
 40
0.8135593220338984
 40
0.8135593220338984
 40
0.8305084745762712
 40
0.8305084745762712
 40
0.8305084745762712
 40
0.8305084745762712
 40
0.847457627118644
 40
0.847457627118644
 40
0.847457627118644
 40
0.847457627118644
 40
0.864406779661017
 40
0.864406779661017
 40
0.864406779661017
 40
0.864406779661017
 40
0.8813559322033898
 40
0.8813559322033898
 40
0.8813559322033898
 40
0.8813559322033898
 40
0.8983050847457628
 40
0.8983050847457628
 40
0.8983050847457628
 40
0.8983050847457628
 40
0.9152542372881356
 40
0.9152542372881356
 40
0.9152542372881356
 40
0.9152542372881356
 40
0.9322033898305084
 40
0.9322033898305084
 40
0.9322033898305084
 40
0.9322033898305084
 40
0.9491525423728814
 40
0.9491525423728814
 40
0.9491525423728814
 40
0.9491525423728814
 40
0.9661016949152542
 40
0.9661016949152542
 40
0.9661016949152542
 40
0.9661016949152542
 40
1.0
 40
1.0
 40
1.0
 40
1.0
 10
-3.36905
 20
-2.88046
 30
0.0
 10
-3.57907
 20
-2.94003
 30
0.0
 10
-3.64025
 20
-3.10422
 30
0.0
 10
-3.55257
 20
-3.33761
 30
0.0
 10
-3.55257
 20
-3.33761
 30
0.0
 10
-3.48002
 20
-3.53073
 30
0.0
 10
-3.36091
 20
-3.63886
 30
0.0
 10
-3.25318
 20
-3.75976
 30
0.0
 10
-3.25318
 20
-3.75976
 30
0.0
 10
-3.31744
 20
-3.80997
 30
0.0
 10
-3.34914
 20
-3.78977
 30
0.0
 10
-3.39348
 20
-3.87198
 30
0.0
 10
-3.39348
 20
-3.87198
 30
0.0
 10
-3.42901
 20
-3.93788
 30
0.0
 10
-3.43494
 20
-4.00724
 30
0.0
 10
-3.40313
 20
-4.07703
 30
0.0
 10
-3.40313
 20
-4.07703
 30
0.0
 10
-3.34012
 20
-4.2153
 30
0.0
 10
-3.13307
 20
-4.4215
 30
0.0
 10
-2.99396
 20
-4.45012
 30
0.0
 10
-2.99396
 20
-4.45012
 30
0.0
 10
-2.91599
 20
-4.46616
 30
0.0
 10
-2.85115
 20
-4.40488
 30
0.0
 10
-2.84891
 20
-4.33559
 30
0.0
 10
-2.84891
 20
-4.33559
 30
0.0
 10
-2.84526
 20
-4.22322
 30
0.0
 10
-3.06422
 20
-4.12662
 30
0.0
 10
-3.08434
 20
-4.04459
 30
0.0
 10
-3.08434
 20
-4.04459
 30
0.0
 10
-3.05269
 20
-4.05932
 30
0.0
 10
-2.92605
 20
-4.06687
 30
0.0
 10
-2.87955
 20
-4.07165
 30
0.0
 10
-2.87955
 20
-4.07165
 30
0.0
 10
-2.75965
 20
-4.08396
 30
0.0
 10
-2.65998
 20
-3.95641
 30
0.0
 10
-2.80453
 20
-3.82024
 30
0.0
 10
-2.80453
 20
-3.82024
 30
0.0
 10
-2.84598
 20
-3.78119
 30
0.0
 10
-2.89695
 20
-3.74407
 30
0.0
 10
-2.93543
 20
-3.7066
 30
0.0
 10
-2.93543
 20
-3.7066
 30
0.0
 10
-3.00356
 20
-3.64025
 30
0.0
 10
-3.32952
 20
-3.31421
 30
0.0
 10
-3.31877
 20
-3.18378
 30
0.0
 10
-3.31877
 20
-3.18378
 30
0.0
 10
-3.30991
 20
-3.07627
 30
0.0
 10
-3.09685
 20
-3.19202
 30
0.0
 10
-3.07214
 20
-3.2091
 30
0.0
 10
-3.07214
 20
-3.2091
 30
0.0
 10
-3.00634
 20
-3.25456
 30
0.0
 10
-2.94456
 20
-3.29355
 30
0.0
 10
-2.87
 20
-3.32951
 30
0.0
 10
-2.87
 20
-3.32951
 30
0.0
 10
-2.78013
 20
-3.37285
 30
0.0
 10
-2.68685
 20
-3.33925
 30
0.0
 10
-2.66095
 20
-3.25693
 30
0.0
 10
-2.66095
 20
-3.25693
 30
0.0
 10
-2.62953
 20
-3.15705
 30
0.0
 10
-2.72395
 20
-3.09081
 30
0.0
 10
-2.76581
 20
-3.04899
 30
0.0
 10
-2.76581
 20
-3.04899
 30
0.0
 10
-2.8851
 20
-2.92983
 30
0.0
 10
-3.30728
 20
-2.52413
 30
0.0
 10
-3.21845
 20
-2.24054
 30
0.0
 10
-3.21845
 20
-2.24054
 30
0.0
 10
-2.98135
 20
-2.20146
 30
0.0
 10
-2.81373
 20
-2.65493
 30
0.0
 10
-2.62212
 20
-2.54419
 30
0.0
 10
-2.62212
 20
-2.54419
 30
0.0
 10
-2.54074
 20
-2.49716
 30
0.0
 10
-2.54147
 20
-2.39687
 30
0.0
 10
-2.59623
 20
-2.32269
 30
0.0
 10
-2.59623
 20
-2.32269
 30
0.0
 10
-2.73418
 20
-2.13581
 30
0.0
 10
-3.00538
 20
-1.784
 30
0.0
 10
-3.00765
 20
-1.47497
 30
0.0
 10
-3.00765
 20
-1.47497
 30
0.0
 10
-2.91355
 20
-1.51255
 30
0.0
 10
-2.89662
 20
-1.51398
 30
0.0
 10
-2.82433
 20
-1.57456
 30
0.0
 10
-2.82433
 20
-1.57456
 30
0.0
 10
-2.772
 20
-1.61843
 30
0.0
 10
-2.71952
 20
-1.68206
 30
0.0
 10
-2.67765
 20
-1.71129
 30
0.0
 10
-2.67765
 20
-1.71129
 30
0.0
 10
-2.60394
 20
-1.76273
 30
0.0
 10
-2.50793
 20
-1.71323
 30
0.0
 10
-2.48147
 20
-1.65841
 30
0.0
 10
-2.48147
 20
-1.65841
 30
0.0
 10
-2.45149
 20
-1.5963
 30
0.0
 10
-2.49551
 20
-1.47495
 30
0.0
 10
-2.51418
 20
-1.4202
 30
0.0
 10
-2.51418
 20
-1.4202
 30
0.0
 10
-2.57113
 20
-1.25317
 30
0.0
 10
-2.80838
 20
-0.66214
 30
0.0
 10
-2.60742
 20
-0.52874
 30
0.0
 10
-2.60742
 20
-0.52874
 30
0.0
 10
-2.49208
 20
-0.5648
 30
0.0
 10
-2.4213
 20
-0.70719
 30
0.0
 10
-2.37472
 20
-0.82185
 30
0.0
 10
-2.37472
 20
-0.82185
 30
0.0
 10
-2.32369
 20
-0.94746
 30
0.0
 10
-2.27834
 20
-1.07699
 30
0.0
 10
-2.24115
 20
-1.21569
 30
0.0
 10
-2.24115
 20
-1.21569
 30
0.0
 10
-2.22203
 20
-1.28697
 30
0.0
 10
-2.2113
 20
-1.36979
 30
0.0
 10
-2.1626
 20
-1.40067
 30
0.0
 10
-2.1626
 20
-1.40067
 30
0.0
 10
-1.9613
 20
-1.5283
 30
0.0
 10
-1.95892
 20
-1.05566
 30
0.0
 10
-1.82374
 20
-0.97189
 30
0.0
 10
-1.82374
 20
-0.97189
 30
0.0
 10
-1.7313
 20
-1.23595
 30
0.0
 10
-1.75278
 20
-1.4755
 30
0.0
 10
-1.78705
 20
-1.75806
 30
0.0
 10
-1.78705
 20
-1.75806
 30
0.0
 10
-1.80316
 20
-1.89089
 30
0.0
 10
-1.89672
 20
-2.17729
 30
0.0
 10
-1.69903
 20
-2.17893
 30
0.0
 10
-1.69903
 20
-2.17893
 30
0.0
 10
-1.52899
 20
-2.18034
 30
0.0
 10
-1.51706
 20
-1.84979
 30
0.0
 10
-1.26953
 20
-1.72893
 30
0.0
 10
-1.26953
 20
-1.72893
 30
0.0
 10
-1.192
 20
-1.83464
 30
0.0
 10
-1.29534
 20
-2.14512
 30
0.0
 10
-1.33513
 20
-2.24914
 30
0.0
 10
-1.33513
 20
-2.24914
 30
0.0
 10
-1.40047
 20
-2.41993
 30
0.0
 10
-1.46964
 20
-2.54581
 30
0.0
 10
-1.54469
 20
-2.69329
 30
0.0
 10
-1.54469
 20
-2.69329
 30
0.0
 10
-1.64869
 20
-2.89768
 30
0.0
 10
-1.52864
 20
-2.97313
 30
0.0
 10
-1.42969
 20
-2.95579
 30
0.0
 10
-1.42969
 20
-2.95579
 30
0.0
 10
-1.37488
 20
-2.94619
 30
0.0
 10
-1.35847
 20
-2.91913
 30
0.0
 10
-1.33022
 20
-2.88856
 30
0.0
 10
-1.33022
 20
-2.88856
 30
0.0
 10
-1.27391
 20
-2.82764
 30
0.0
 10
-1.07099
 20
-2.61507
 30
0.0
 10
-0.95744
 20
-2.60555
 30
0.0
 10
-0.95744
 20
-2.60555
 30
0.0
 10
-0.95681
 20
-2.9141
 30
0.0
 10
-1.15042
 20
-3.15363
 30
0.0
 10
-1.32341
 20
-3.37411
 30
0.0
 10
-1.32341
 20
-3.37411
 30
0.0
 10
-1.36028
 20
-3.4211
 30
0.0
 10
-1.42347
 20
-3.48336
 30
0.0
 10
-1.42668
 20
-3.55511
 30
0.0
 10
-1.42668
 20
-3.55511
 30
0.0
 10
-1.43065
 20
-3.64398
 30
0.0
 10
-1.36784
 20
-3.70469
 30
0.0
 10
-1.27127
 20
-3.68218
 30
0.0
 10
-1.27127
 20
-3.68218
 30
0.0
 10
-1.22619
 20
-3.67167
 30
0.0
 10
-1.1293
 20
-3.60688
 30
0.0
 10
-1.08701
 20
-3.58142
 30
0.0
 10
-1.08701
 20
-3.58142
 30
0.0
 10
-1.01031
 20
-3.53525
 30
0.0
 10
-0.96808
 20
-3.52022
 30
0.0
 10
-0.88958
 20
-3.48718
 30
0.0
 10
-0.88958
 20
-3.48718
 30
0.0
 10
-0.90936
 20
-3.84033
 30
0.0
 10
-1.40524
 20
-4.14435
 30
0.0
 10
-1.3418
 20
-4.31988
 30
0.0
 10
-1.3418
 20
-4.31988
 30
0.0
 10
-1.31811
 20
-4.38542
 30
0.0
 10
-1.19719
 20
-4.45129
 30
0.0
 10
-1.0912
 20
-4.34778
 30
0.0
 10
-1.0912
 20
-4.34778
 30
0.0
 10
-1.05526
 20
-4.31268
 30
0.0
 10
-1.065
 20
-4.31662
 30
0.0
 10
-1.00148
 20
-4.33127
 30
0.0
 10
-1.00148
 20
-4.33127
 30
0.0
 10
-0.92919
 20
-4.34793
 30
0.0
 10
-0.85252
 20
-4.3606
 30
0.0
 10
-0.77901
 20
-4.37288
 30
0.0
 10
-0.77901
 20
-4.37288
 30
0.0
 10
-0.11558
 20
-4.48372
 30
0.0
 10
0.48278
 20
-4.46197
 30
0.0
 10
1.10684
 20
-4.30042
 30
0.0
 10
1.10684
 20
-4.30042
 30
0.0
 10
2.21199
 20
-4.01433
 30
0.0
 10
3.05841
 20
-3.33494
 30
0.0
 10
3.60022
 20
-2.60385
 30
0.0
 10
3.60022
 20
-2.60385
 30
0.0
 10
4.18488
 20
-1.81497
 30
0.0
 10
4.58672
 20
-0.6502
 30
0.0
 10
4.38729
 20
0.68584
 30
0.0
 10
4.38729
 20
0.68584
 30
0.0
 10
4.18799
 20
2.02102
 30
0.0
 10
3.39996
 20
3.12808
 30
0.0
 10
2.27494
 20
3.80791
 30
0.0
 10
2.27494
 20
3.80791
 30
0.0
 10
1.17769
 20
4.47096
 30
0.0
 10
-0.29606
 20
4.62491
 30
0.0
 10
-1.53337
 20
4.16023
 30
0.0
 10
-1.53337
 20
4.16023
 30
0.0
 10
-1.79352
 20
4.06253
 30
0.0
 10
-2.01293
 20
3.96399
 30
0.0
 10
-2.24513
 20
3.82739
 30
0.0
 10
-2.24513
 20
3.82739
 30
0.0
 10
-2.35813
 20
3.76092
 30
0.0
 10
-2.45836
 20
3.69541
 30
0.0
 10
-2.56472
 20
3.61979
 30
0.0
 10
-2.56472
 20
3.61979
 30
0.0
 10
-2.78388
 20
3.46397
 30
0.0
 10
-2.96179
 20
3.30947
 30
0.0
 10
-3.13757
 20
3.13755
 30
0.0
 10
-3.13757
 20
3.13755
 30
0.0
 10
-3.39686
 20
2.88397
 30
0.0
 10
-3.63455
 20
2.5717
 30
0.0
 10
-3.82061
 20
2.25812
 30
0.0
 10
-3.82061
 20
2.25812
 30
0.0
 10
-4.21677
 20
1.59046
 30
0.0
 10
-4.4341
 20
0.77649
 30
0.0
 10
-4.43395
 20
-0.00977
 30
0.0
 10
-4.43395
 20
-0.00977
 30
0.0
 10
-4.43385
 20
-0.54255
 30
0.0
 10
-4.33258
 20
-1.07964
 30
0.0
 10
-4.15535
 20
-1.56693
 30
0.0
 10
-4.15535
 20
-1.56693
 30
0.0
 10
-4.03453
 20
-1.8991
 30
0.0
 10
-3.8097
 20
-2.30943
 30
0.0
 10
-3.60322
 20
-2.58788
 30
0.0
 10
-3.60322
 20
-2.58788
 30
0.0
 10
-3.60322
 20
-2.58788
 30
0.0
 10
-3.36905
 20
-2.88046
 30
0.0
 10
-3.36905
 20
-2.88046
 30
0.0
  0
SPLINE
  5
43
330
1F
100
AcDbEntity
  8
Layer 1
370
     9
100
AcDbSpline
210
0.0
220
0.0
230
1.0
 70
    11
 71
     3
 72
   104
 73
   100
 74
     0
 42
0.0000000001
 43
0.0000000001
 12
1.0
 22
0.0
 32
0.0
 13
1.0
 23
0.0
 33
0.0
 40
0.0
 40
0.0
 40
0.0
 40
0.0
 40
0.0384615384615385
 40
0.0384615384615385
 40
0.0384615384615385
 40
0.0384615384615385
 40
0.0769230769230769
 40
0.0769230769230769
 40
0.0769230769230769
 40
0.0769230769230769
 40
0.1153846153846154
 40
0.1153846153846154
 40
0.1153846153846154
 40
0.1153846153846154
 40
0.1538461538461539
 40
0.1538461538461539
 40
0.1538461538461539
 40
0.1538461538461539
 40
0.1923076923076923
 40
0.1923076923076923
 40
0.1923076923076923
 40
0.1923076923076923
 40
0.2307692307692308
 40
0.2307692307692308
 40
0.2307692307692308
 40
0.2307692307692308
 40
0.2692307692307692
 40
0.2692307692307692
 40
0.2692307692307692
 40
0.2692307692307692
 40
0.3076923076923077
 40
0.3076923076923077
 40
0.3076923076923077
 40
0.3076923076923077
 40
0.3461538461538461
 40
0.3461538461538461
 40
0.3461538461538461
 40
0.3461538461538461
 40
0.3846153846153846
 40
0.3846153846153846
 40
0.3846153846153846
 40
0.3846153846153846
 40
0.4230769230769231
 40
0.4230769230769231
 40
0.4230769230769231
 40
0.4230769230769231
 40
0.4615384615384616
 40
0.4615384615384616
 40
0.4615384615384616
 40
0.4615384615384616
 40
0.5
 40
0.5
 40
0.5
 40
0.5
 40
0.5384615384615384
 40
0.5384615384615384
 40
0.5384615384615384
 40
0.5384615384615384
 40
0.5769230769230769
 40
0.5769230769230769
 40
0.5769230769230769
 40
0.5769230769230769
 40
0.6153846153846154
 40
0.6153846153846154
 40
0.6153846153846154
 40
0.6153846153846154
 40
0.6538461538461539
 40
0.6538461538461539
 40
0.6538461538461539
 40
0.6538461538461539
 40
0.6923076923076923
 40
0.6923076923076923
 40
0.6923076923076923
 40
0.6923076923076923
 40
0.7307692307692307
 40
0.7307692307692307
 40
0.7307692307692307
 40
0.7307692307692307
 40
0.7692307692307693
 40
0.7692307692307693
 40
0.7692307692307693
 40
0.7692307692307693
 40
0.8076923076923077
 40
0.8076923076923077
 40
0.8076923076923077
 40
0.8076923076923077
 40
0.8461538461538461
 40
0.8461538461538461
 40
0.8461538461538461
 40
0.8461538461538461
 40
0.8846153846153846
 40
0.8846153846153846
 40
0.8846153846153846
 40
0.8846153846153846
 40
0.9230769230769231
 40
0.9230769230769231
 40
0.9230769230769231
 40
0.9230769230769231
 40
1.0
 40
1.0
 40
1.0
 40
1.0
 10
1.01937
 20
2.32422
 30
0.0
 10
1.01937
 20
2.32422
 30
0.0
 10
1.02505
 20
0.12695
 30
0.0
 10
1.02505
 20
0.12695
 30
0.0
 10
1.02505
 20
0.12695
 30
0.0
 10
1.02503
 20
0.0526
 30
0.0
 10
1.05143
 20
0.00941
 30
0.0
 10
1.12305
 20
0.00941
 30
0.0
 10
1.12305
 20
0.00941
 30
0.0
 10
1.12305
 20
0.00941
 30
0.0
 10
1.47461
 20
0.0094
 30
0.0
 10
1.47461
 20
0.0094
 30
0.0
 10
1.47461
 20
0.0094
 30
0.0
 10
1.59573
 20
0.00941
 30
0.0
 10
1.56294
 20
0.18212
 30
0.0
 10
1.56278
 20
0.35156
 30
0.0
 10
1.56278
 20
0.35156
 30
0.0
 10
1.56278
 20
0.35156
 30
0.0
 10
1.56125
 20
1.40751
 30
0.0
 10
1.56125
 20
1.40751
 30
0.0
 10
1.56125
 20
1.40751
 30
0.0
 10
1.56125
 20
1.40751
 30
0.0
 10
1.79957
 20
0.85256
 30
0.0
 10
1.79957
 20
0.85256
 30
0.0
 10
1.79957
 20
0.85256
 30
0.0
 10
1.83887
 20
0.75624
 30
0.0
 10
1.87627
 20
0.66831
 30
0.0
 10
1.91404
 20
0.5763
 30
0.0
 10
1.91404
 20
0.5763
 30
0.0
 10
1.96761
 20
0.44578
 30
0.0
 10
1.97855
 20
0.37995
 30
0.0
 10
2.13867
 20
0.38046
 30
0.0
 10
2.13867
 20
0.38046
 30
0.0
 10
2.27449
 20
0.38087
 30
0.0
 10
2.28758
 20
0.48843
 30
0.0
 10
2.32907
 20
0.59136
 30
0.0
 10
2.32907
 20
0.59136
 30
0.0
 10
2.36795
 20
0.68785
 30
0.0
 10
2.40896
 20
0.77972
 30
0.0
 10
2.44695
 20
0.87362
 30
0.0
 10
2.44695
 20
0.87362
 30
0.0
 10
2.44695
 20
0.87362
 30
0.0
 10
2.62251
 20
1.29389
 30
0.0
 10
2.62251
 20
1.29389
 30
0.0
 10
2.62251
 20
1.29389
 30
0.0
 10
2.64081
 20
1.3365
 30
0.0
 10
2.66378
 20
1.40363
 30
0.0
 10
2.68382
 20
1.43661
 30
0.0
 10
2.68382
 20
1.43661
 30
0.0
 10
2.68382
 20
1.43661
 30
0.0
 10
2.68518
 20
0.10742
 30
0.0
 10
2.68518
 20
0.10742
 30
0.0
 10
2.68518
 20
0.10742
 30
0.0
 10
2.68518
 20
-0.02843
 30
0.0
 10
2.837
 20
0.0093
 30
0.0
 10
2.95899
 20
0.00941
 30
0.0
 10
2.95899
 20
0.00941
 30
0.0
 10
3.27339
 20
0.0095
 30
0.0
 10
3.21641
 20
-0.04766
 30
0.0
 10
3.21656
 20
0.54687
 30
0.0
 10
3.21656
 20
0.54687
 30
0.0
 10
3.21656
 20
0.54687
 30
0.0
 10
3.21328
 20
2.46094
 30
0.0
 10
3.21328
 20
2.46094
 30
0.0
 10
3.21328
 20
2.46094
 30
0.0
 10
3.21325
 20
2.54812
 30
0.0
 10
3.18277
 20
2.56872
 30
0.0
 10
3.0957
 20
2.56872
 30
0.0
 10
3.0957
 20
2.56872
 30
0.0
 10
2.41657
 20
2.56872
 30
0.0
 10
2.57799
 20
2.6506
 30
0.0
 10
2.34664
 20
2.03804
 30
0.0
 10
2.34664
 20
2.03804
 30
0.0
 10
2.34664
 20
2.03804
 30
0.0
 10
2.17469
 20
1.56568
 30
0.0
 10
2.17469
 20
1.56568
 30
0.0
 10
2.17469
 20
1.56568
 30
0.0
 10
2.15887
 20
1.52183
 30
0.0
 10
2.13294
 20
1.43771
 30
0.0
 10
2.10938
 20
1.40147
 30
0.0
 10
2.10938
 20
1.40147
 30
0.0
 10
2.08535
 20
1.43452
 30
0.0
 10
2.06509
 20
1.51178
 30
0.0
 10
2.05135
 20
1.55353
 30
0.0
 10
2.05135
 20
1.55353
 30
0.0
 10
2.03363
 20
1.60737
 30
0.0
 10
2.01412
 20
1.65487
 30
0.0
 10
1.99494
 20
1.71119
 30
0.0
 10
1.99494
 20
1.71119
 30
0.0
 10
1.99494
 20
1.71119
 30
0.0
 10
1.77968
 20
2.33635
 30
0.0
 10
1.77968
 20
2.33635
 30
0.0
 10
1.77968
 20
2.33635
 30
0.0
 10
1.69894
 20
2.55875
 30
0.0
 10
1.69492
 20
2.5687
 30
0.0
 10
1.50391
 20
2.56878
 30
0.0
 10
1.50391
 20
2.56878
 30
0.0
 10
0.98814
 20
2.56901
 30
0.0
 10
1.02024
 20
2.60717
 30
0.0
 10
1.01937
 20
2.32422
 30
0.0
  0
SPLINE
  5
44
330
1F
100
AcDbEntity
  8
Layer 1
370
     9
100
AcDbSpline
210
0.0
220
0.0
230
1.0
 70
    11
 71
     3
 72
    16
 73
    12
 74
     0
 42
0.0000000001
 43
0.0000000001
 12
1.0
 22
0.0
 32
0.0
 13
1.0
 23
0.0
 33
0.0
 40
0.0
 40
0.0
 40
0.0
 40
0.0
 40
0.25
 40
0.25
 40
0.25
 40
0.25
 40
0.5
 40
0.5
 40
0.5
 40
0.5
 40
1.0
 40
1.0
 40
1.0
 40
1.0
 10
-0.01062
 20
0.5957
 30
0.0
 10
-0.04491
 20
0.5424
 30
0.0
 10
-0.15891
 20
0.47991
 30
0.0
 10
-0.24448
 20
0.46835
 30
0.0
 10
-0.24448
 20
0.46835
 30
0.0
 10
-0.57307
 20
0.42396
 30
0.0
 10
-0.71918
 20
0.84373
 30
0.0
 10
-0.3711
 20
1.02364
 30
0.0
 10
-0.3711
 20
1.02364
 30
0.0
 10
-0.3711
 20
1.02364
 30
0.0
 10
-0.01062
 20
0.5957
 30
0.0
 10
-0.01062
 20
0.5957
 30
0.0
  0
SPLINE
  5
45
330
1F
100
AcDbEntity
  8
Layer 1
370
     9
100
AcDbSpline
210
0.0
220
0.0
230
1.0
 70
    11
 71
     3
 72
    24
 73
    20
 74
     0
 42
0.0000000001
 43
0.0000000001
 12
1.0
 22
0.0
 32
0.0
 13
1.0
 23
0.0
 33
0.0
 40
0.0
 40
0.0
 40
0.0
 40
0.0
 40
0.1666666666666667
 40
0.1666666666666667
 40
0.1666666666666667
 40
0.1666666666666667
 40
0.3333333333333333
 40
0.3333333333333333
 40
0.3333333333333333
 40
0.3333333333333333
 40
0.5
 40
0.5
 40
0.5
 40
0.5
 40
0.6666666666666666
 40
0.6666666666666666
 40
0.6666666666666666
 40
0.6666666666666666
 40
1.0
 40
1.0
 40
1.0
 40
1.0
 10
-0.3707
 20
1.94336
 30
0.0
 10
-0.37017
 20
2.13741
 30
0.0
 10
-0.11653
 20
2.19005
 30
0.0
 10
-0.04448
 20
2.02627
 30
0.0
 10
-0.04448
 20
2.02627
 30
0.0
 10
-0.00481
 20
1.93611
 30
0.0
 10
-0.02842
 20
1.84551
 30
0.0
 10
-0.07473
 20
1.78363
 30
0.0
 10
-0.07473
 20
1.78363
 30
0.0
 10
-0.14275
 20
1.69274
 30
0.0
 10
-0.17621
 20
1.6913
 30
0.0
 10
-0.22437
 20
1.64222
 30
0.0
 10
-0.22437
 20
1.64222
 30
0.0
 10
-0.26895
 20
1.68537
 30
0.0
 10
-0.37095
 20
1.85036
 30
0.0
 10
-0.37072
 20
1.93359
 30
0.0
 10
-0.37072
 20
1.93359
 30
0.0
 10
-0.37072
 20
1.93359
 30
0.0
 10
-0.3707
 20
1.94336
 30
0.0
 10
-0.3707
 20
1.94336
 30
0.0
  0
SPLINE
  5
46
330
1F
100
AcDbEntity
  8
Layer 1
370
     9
100
AcDbSpline
210
0.0
220
0.0
230
1.0
 70
    11
 71
     3
 72
    80
 73
    76
 74
     0
 42
0.0000000001
 43
0.0000000001
 12
1.0
 22
0.0
 32
0.0
 13
1.0
 23
0.0
 33
0.0
 40
0.0
 40
0.0
 40
0.0
 40
0.0
 40
0.05
 40
0.05
 40
0.05
 40
0.05
 40
0.1
 40
0.1
 40
0.1
 40
0.1
 40
0.15
 40
0.15
 40
0.15
 40
0.15
 40
0.2
 40
0.2
 40
0.2
 40
0.2
 40
0.25
 40
0.25
 40
0.25
 40
0.25
 40
0.3
 40
0.3
 40
0.3
 40
0.3
 40
0.35
 40
0.35
 40
0.35
 40
0.35
 40
0.4
 40
0.4
 40
0.4
 40
0.4
 40
0.45
 40
0.45
 40
0.45
 40
0.45
 40
0.5
 40
0.5
 40
0.5
 40
0.5
 40
0.55
 40
0.55
 40
0.55
 40
0.55
 40
0.6
 40
0.6
 40
0.6
 40
0.6
 40
0.65
 40
0.65
 40
0.65
 40
0.65
 40
0.7
 40
0.7
 40
0.7
 40
0.7
 40
0.75
 40
0.75
 40
0.75
 40
0.75
 40
0.8
 40
0.8
 40
0.8
 40
0.8
 40
0.85
 40
0.85
 40
0.85
 40
0.85
 40
0.9
 40
0.9
 40
0.9
 40
0.9
 40
1.0
 40
1.0
 40
1.0
 40
1.0
 10
-0.6937
 20
1.39653
 30
0.0
 10
-1.13677
 20
1.1383
 30
0.0
 10
-1.21834
 20
0.5372
 30
0.0
 10
-0.92663
 20
0.22539
 30
0.0
 10
-0.92663
 20
0.22539
 30
0.0
 10
-0.8814
 20
0.17703
 30
0.0
 10
-0.86464
 20
0.15826
 30
0.0
 10
-0.81507
 20
0.12232
 30
0.0
 10
-0.81507
 20
0.12232
 30
0.0
 10
-0.5685
 20
-0.05649
 30
0.0
 10
-0.24636
 20
-0.09036
 30
0.0
 10
0.03427
 20
0.04394
 30
0.0
 10
0.03427
 20
0.04394
 30
0.0
 10
0.09177
 20
0.07146
 30
0.0
 10
0.12498
 20
0.09005
 30
0.0
 10
0.17177
 20
0.12103
 30
0.0
 10
0.17177
 20
0.12103
 30
0.0
 10
0.21944
 20
0.15259
 30
0.0
 10
0.25556
 20
0.18859
 30
0.0
 10
0.30252
 20
0.21527
 30
0.0
 10
0.30252
 20
0.21527
 30
0.0
 10
0.45913
 20
-0.04482
 30
0.0
 10
0.43415
 20
0.01151
 30
0.0
 10
0.73248
 20
0.00933
 30
0.0
 10
0.73248
 20
0.00933
 30
0.0
 10
0.89516
 20
0.00814
 30
0.0
 10
0.86934
 20
0.03231
 30
0.0
 10
0.86962
 20
0.18556
 30
0.0
 10
0.86962
 20
0.18556
 30
0.0
 10
0.8699
 20
0.338
 30
0.0
 10
0.86108
 20
0.33669
 30
0.0
 10
0.79105
 20
0.42957
 30
0.0
 10
0.79105
 20
0.42957
 30
0.0
 10
0.62187
 20
0.65392
 30
0.0
 10
0.63264
 20
0.57496
 30
0.0
 10
0.73726
 20
0.84484
 30
0.0
 10
0.73726
 20
0.84484
 30
0.0
 10
0.76644
 20
0.92013
 30
0.0
 10
0.79502
 20
0.99274
 30
0.0
 10
0.82548
 20
1.06905
 30
0.0
 10
0.82548
 20
1.06905
 30
0.0
 10
0.93814
 20
1.3513
 30
0.0
 10
0.91786
 20
1.34705
 30
0.0
 10
0.6836
 20
1.34584
 30
0.0
 10
0.6836
 20
1.34584
 30
0.0
 10
0.42828
 20
1.34452
 30
0.0
 10
0.45963
 20
1.38069
 30
0.0
 10
0.38474
 20
1.19705
 30
0.0
 10
0.38474
 20
1.19705
 30
0.0
 10
0.36067
 20
1.13803
 30
0.0
 10
0.34306
 20
1.09194
 30
0.0
 10
0.32172
 20
1.03323
 30
0.0
 10
0.32172
 20
1.03323
 30
0.0
 10
0.32172
 20
1.03323
 30
0.0
 10
0.06935
 20
1.32813
 30
0.0
 10
0.06935
 20
1.32813
 30
0.0
 10
0.06935
 20
1.32813
 30
0.0
 10
0.15568
 20
1.39887
 30
0.0
 10
0.24795
 20
1.4262
 30
0.0
 10
0.34942
 20
1.58452
 30
0.0
 10
0.34942
 20
1.58452
 30
0.0
 10
0.60383
 20
1.98149
 30
0.0
 10
0.35986
 20
2.52813
 30
0.0
 10
-0.0888
 20
2.57671
 30
0.0
 10
-0.0888
 20
2.57671
 30
0.0
 10
-0.4542
 20
2.61628
 30
0.0
 10
-0.6855
 20
2.43171
 30
0.0
 10
-0.80864
 20
2.21504
 30
0.0
 10
-0.80864
 20
2.21504
 30
0.0
 10
-0.92937
 20
2.00263
 30
0.0
 10
-0.90774
 20
1.78784
 30
0.0
 10
-0.79323
 20
1.56984
 30
0.0
 10
-0.79323
 20
1.56984
 30
0.0
 10
-0.7662
 20
1.51837
 30
0.0
 10
-0.71136
 20
1.44307
 30
0.0
 10
-0.6937
 20
1.39653
 30
0.0
  0
SPLINE
  5
47
330
1F
100
AcDbEntity
  8
Layer 1
370
     9
100
AcDbSpline
210
0.0
220
0.0
230
1.0
 70
    11
 71
     3
 72
    72
 73
    68
 74
     0
 42
0.0000000001
 43
0.0000000001
 12
1.0
 22
0.0
 32
0.0
 13
1.0
 23
0.0
 33
0.0
 40
0.0
 40
0.0
 40
0.0
 40
0.0
 40
0.0555555555555556
 40
0.0555555555555556
 40
0.0555555555555556
 40
0.0555555555555556
 40
0.1111111111111111
 40
0.1111111111111111
 40
0.1111111111111111
 40
0.1111111111111111
 40
0.1666666666666667
 40
0.1666666666666667
 40
0.1666666666666667
 40
0.1666666666666667
 40
0.2222222222222222
 40
0.2222222222222222
 40
0.2222222222222222
 40
0.2222222222222222
 40
0.2777777777777778
 40
0.2777777777777778
 40
0.2777777777777778
 40
0.2777777777777778
 40
0.3333333333333333
 40
0.3333333333333333
 40
0.3333333333333333
 40
0.3333333333333333
 40
0.3888888888888889
 40
0.3888888888888889
 40
0.3888888888888889
 40
0.3888888888888889
 40
0.4444444444444444
 40
0.4444444444444444
 40
0.4444444444444444
 40
0.4444444444444444
 40
0.5
 40
0.5
 40
0.5
 40
0.5
 40
0.5555555555555556
 40
0.5555555555555556
 40
0.5555555555555556
 40
0.5555555555555556
 40
0.6111111111111112
 40
0.6111111111111112
 40
0.6111111111111112
 40
0.6111111111111112
 40
0.6666666666666666
 40
0.6666666666666666
 40
0.6666666666666666
 40
0.6666666666666666
 40
0.7222222222222222
 40
0.7222222222222222
 40
0.7222222222222222
 40
0.7222222222222222
 40
0.7777777777777778
 40
0.7777777777777778
 40
0.7777777777777778
 40
0.7777777777777778
 40
0.8333333333333334
 40
0.8333333333333334
 40
0.8333333333333334
 40
0.8333333333333334
 40
0.8888888888888888
 40
0.8888888888888888
 40
0.8888888888888888
 40
0.8888888888888888
 40
1.0
 40
1.0
 40
1.0
 40
1.0
 10
-2.05147
 20
1.9521
 30
0.0
 10
-2.05147
 20
1.9521
 30
0.0
 10
-2.21453
 20
1.71625
 30
0.0
 10
-2.21453
 20
1.71625
 30
0.0
 10
-2.21453
 20
1.71625
 30
0.0
 10
-2.3396
 20
1.54502
 30
0.0
 10
-3.00692
 20
0.60923
 30
0.0
 10
-3.02997
 20
0.52978
 30
0.0
 10
-3.02997
 20
0.52978
 30
0.0
 10
-3.04468
 20
0.47909
 30
0.0
 10
-3.04002
 20
0.20906
 30
0.0
 10
-3.03746
 20
0.13628
 30
0.0
 10
-3.03746
 20
0.13628
 30
0.0
 10
-3.03166
 20
-0.02869
 30
0.0
 10
-2.91608
 20
0.012
 30
0.0
 10
-2.76367
 20
0.00894
 30
0.0
 10
-2.76367
 20
0.00894
 30
0.0
 10
-2.49985
 20
0.00362
 30
0.0
 10
-2.23704
 20
0.00235
 30
0.0
 10
-1.97266
 20
0.00272
 30
0.0
 10
-1.97266
 20
0.00272
 30
0.0
 10
-1.8392
 20
0.00291
 30
0.0
 10
-1.70573
 20
0.00253
 30
0.0
 10
-1.57227
 20
0.00276
 30
0.0
 10
-1.57227
 20
0.00276
 30
0.0
 10
-1.13743
 20
0.00353
 30
0.0
 10
-1.21247
 20
-0.03953
 30
0.0
 10
-1.21047
 20
0.43946
 30
0.0
 10
-1.21047
 20
0.43946
 30
0.0
 10
-1.20972
 20
0.61687
 30
0.0
 10
-1.19956
 20
0.60582
 30
0.0
 10
-1.44531
 20
0.60582
 30
0.0
 10
-1.44531
 20
0.60582
 30
0.0
 10
-1.70456
 20
0.60581
 30
0.0
 10
-1.98636
 20
0.60292
 30
0.0
 10
-2.24384
 20
0.61392
 30
0.0
 10
-2.24384
 20
0.61392
 30
0.0
 10
-2.13916
 20
0.80202
 30
0.0
 10
-1.25936
 20
1.96152
 30
0.0
 10
-1.23552
 20
2.00696
 30
0.0
 10
-1.23552
 20
2.00696
 30
0.0
 10
-1.20462
 20
2.06585
 30
0.0
 10
-1.22056
 20
2.30344
 30
0.0
 10
-1.22032
 20
2.39259
 30
0.0
 10
-1.22032
 20
2.39259
 30
0.0
 10
-1.21977
 20
2.59901
 30
0.0
 10
-1.24851
 20
2.56858
 30
0.0
 10
-1.44531
 20
2.56868
 30
0.0
 10
-1.44531
 20
2.56868
 30
0.0
 10
-1.44531
 20
2.56868
 30
0.0
 10
-2.64649
 20
2.56868
 30
0.0
 10
-2.64649
 20
2.56868
 30
0.0
 10
-2.64649
 20
2.56868
 30
0.0
 10
-2.75391
 20
2.56881
 30
0.0
 10
-2.94788
 20
2.59039
 30
0.0
 10
-3.00555
 20
2.52713
 30
0.0
 10
-3.00555
 20
2.52713
 30
0.0
 10
-3.06207
 20
2.46514
 30
0.0
 10
-3.04692
 20
2.27097
 30
0.0
 10
-3.04733
 20
2.16795
 30
0.0
 10
-3.04733
 20
2.16795
 30
0.0
 10
-3.04796
 20
2.01033
 30
0.0
 10
-3.02468
 20
1.95533
 30
0.0
 10
-2.86172
 20
1.95302
 30
0.0
 10
-2.86172
 20
1.95302
 30
0.0
 10
-2.59236
 20
1.94922
 30
0.0
 10
-2.3204
 20
1.95831
 30
0.0
 10
-2.05147
 20
1.9521
 30
0.0
  0
SPLINE
  5
48
330
1F
100
AcDbEntity
  8
Layer 1
370
     9
100
AcDbSpline
210
0.0
220
0.0
230
1.0
 70
    11
 71
     3
 72
    16
 73
    12
 74
     0
 42
0.0000000001
 43
0.0000000001
 12
1.0
 22
0.0
 32
0.0
 13
1.0
 23
0.0
 33
0.0
 40
0.0
 40
0.0
 40
0.0
 40
0.0
 40
0.25
 40
0.25
 40
0.25
 40
0.25
 40
0.5
 40
0.5
 40
0.5
 40
0.5
 40
1.0
 40
1.0
 40
1.0
 40
1.0
 10
-0.01062
 20
0.5957
 30
0.0
 10
-0.01062
 20
0.5957
 30
0.0
 10
-0.3711
 20
1.02364
 30
0.0
 10
-0.3711
 20
1.02364
 30
0.0
 10
-0.3711
 20
1.02364
 30
0.0
 10
-0.71918
 20
0.84373
 30
0.0
 10
-0.57307
 20
0.42396
 30
0.0
 10
-0.24448
 20
0.46835
 30
0.0
 10
-0.24448
 20
0.46835
 30
0.0
 10
-0.15891
 20
0.47991
 30
0.0
 10
-0.04491
 20
0.5424
 30
0.0
 10
-0.01062
 20
0.5957
 30
0.0
  0
SPLINE
  5
49
330
1F
100
AcDbEntity
  8
Layer 1
370
     9
100
AcDbSpline
210
0.0
220
0.0
230
1.0
 70
    11
 71
     3
 72
    24
 73
    20
 74
     0
 42
0.0000000001
 43
0.0000000001
 12
1.0
 22
0.0
 32
0.0
 13
1.0
 23
0.0
 33
0.0
 40
0.0
 40
0.0
 40
0.0
 40
0.0
 40
0.1666666666666667
 40
0.1666666666666667
 40
0.1666666666666667
 40
0.1666666666666667
 40
0.3333333333333333
 40
0.3333333333333333
 40
0.3333333333333333
 40
0.3333333333333333
 40
0.5
 40
0.5
 40
0.5
 40
0.5
 40
0.6666666666666666
 40
0.6666666666666666
 40
0.6666666666666666
 40
0.6666666666666666
 40
1.0
 40
1.0
 40
1.0
 40
1.0
 10
-0.3707
 20
1.94336
 30
0.0
 10
-0.3707
 20
1.94336
 30
0.0
 10
-0.37072
 20
1.93359
 30
0.0
 10
-0.37072
 20
1.93359
 30
0.0
 10
-0.37072
 20
1.93359
 30
0.0
 10
-0.37095
 20
1.85036
 30
0.0
 10
-0.26895
 20
1.68537
 30
0.0
 10
-0.22437
 20
1.64222
 30
0.0
 10
-0.22437
 20
1.64222
 30
0.0
 10
-0.17621
 20
1.6913
 30
0.0
 10
-0.14275
 20
1.69274
 30
0.0
 10
-0.07473
 20
1.78363
 30
0.0
 10
-0.07473
 20
1.78363
 30
0.0
 10
-0.02842
 20
1.84551
 30
0.0
 10
-0.00481
 20
1.93611
 30
0.0
 10
-0.04448
 20
2.02627
 30
0.0
 10
-0.04448
 20
2.02627
 30
0.0
 10
-0.11653
 20
2.19005
 30
0.0
 10
-0.37017
 20
2.13741
 30
0.0
 10
-0.3707
 20
1.94336
 30
0.0
  0
ENDSEC
  0
SECTION
  2
OBJECTS
  0
DICTIONARY
  5
C
330
0
100
AcDbDictionary
281
     1
  3
ACAD_GROUP
350
D
  3
ACAD_LAYOUT
350
1A
  3
ACAD_MATERIAL
350
3B
  3
ACAD_MLEADERSTYLE
350
6B
  3
ACAD_MLINESTYLE
350
17
  3
ACAD_PLOTSETTINGS
350
19
  3
ACAD_PLOTSTYLENAME
350
E
  3
ACAD_TABLESTYLE
350
6A
  3
ACAD_VISUALSTYLE
350
2A
  0
DICTIONARY
  5
D
102
{ACAD_REACTORS
330
C
102
}
330
C
100
AcDbDictionary
281
     1
  0
DICTIONARY
  5
1A
102
{ACAD_REACTORS
330
C
102
}
330
C
100
AcDbDictionary
281
     1
  3
Layout1
350
1E
  3
Layout2
350
26
  3
Model
350
22
  0
DICTIONARY
  5
3B
102
{ACAD_REACTORS
330
C
102
}
330
C
100
AcDbDictionary
281
     1
  3
ByBlock
350
3D
  3
ByLayer
350
3C
  3
Global
350
3E
  0
DICTIONARY
  5
6B
102
{ACAD_REACTORS
330
C
102
}
330
C
100
AcDbDictionary
281
     1
  0
DICTIONARY
  5
17
102
{ACAD_REACTORS
330
C
102
}
330
C
100
AcDbDictionary
281
     1
  3
Standard
350
18
  0
DICTIONARY
  5
19
102
{ACAD_REACTORS
330
C
102
}
330
C
100
AcDbDictionary
281
     1
  0
ACDBDICTIONARYWDFLT
  5
E
102
{ACAD_REACTORS
330
C
102
}
330
C
100
AcDbDictionary
281
     1
  3
Normal
350
F
100
AcDbDictionaryWithDefault
340
F
  0
DICTIONARY
  5
6A
102
{ACAD_REACTORS
330
C
102
}
330
C
100
AcDbDictionary
281
     1
  0
DICTIONARY
  5
2A
102
{ACAD_REACTORS
330
C
102
}
330
C
100
AcDbDictionary
281
     1
  3
2dWireframe
350
2F
  3
3D Hidden
350
31
  3
3dWireframe
350
30
  3
Basic
350
32
  3
Brighten
350
36
  3
ColorChange
350
3A
  3
Conceptual
350
34
  3
Dim
350
35
  3
Facepattern
350
39
  3
Flat
350
2B
  3
FlatWithEdges
350
2C
  3
Gouraud
350
2D
  3
GouraudWithEdges
350
2E
  3
Linepattern
350
38
  3
Realistic
350
33
  3
Thicken
350
37
  0
LAYOUT
  5
1E
102
{ACAD_REACTORS
330
1A
102
}
330
1A
100
AcDbPlotSettings
  1

  2
none_device
  4

  6

 40
0.0
 41
0.0
 42
0.0
 43
0.0
 44
0.0
 45
0.0
 46
0.0
 47
0.0
 48
0.0
 49
0.0
140
0.0
141
0.0
142
1.0
143
1.0
 70
   688
 72
     0
 73
     0
 74
     5
  7

 75
    16
 76
     0
 77
     2
 78
   300
147
1.0
148
0.0
149
0.0
100
AcDbLayout
  1
Layout1
 70
     1
 71
     1
 10
0.0
 20
0.0
 11
12.0
 21
9.0
 12
0.0
 22
0.0
 32
0.0
 14
1.000000000000000E+20
 24
1.000000000000000E+20
 34
1.000000000000000E+20
 15
-1.000000000000000E+20
 25
-1.000000000000000E+20
 35
-1.000000000000000E+20
146
0.0
 13
0.0
 23
0.0
 33
0.0
 16
1.0
 26
0.0
 36
0.0
 17
0.0
 27
1.0
 37
0.0
 76
     0
330
1B
  0
LAYOUT
  5
26
102
{ACAD_REACTORS
330
1A
102
}
330
1A
100
AcDbPlotSettings
  1

  2
none_device
  4

  6

 40
0.0
 41
0.0
 42
0.0
 43
0.0
 44
0.0
 45
0.0
 46
0.0
 47
0.0
 48
0.0
 49
0.0
140
0.0
141
0.0
142
1.0
143
1.0
 70
   688
 72
     0
 73
     0
 74
     5
  7

 75
    16
 76
     0
 77
     2
 78
   300
147
1.0
148
0.0
149
0.0
100
AcDbLayout
  1
Layout2
 70
     1
 71
     2
 10
0.0
 20
0.0
 11
0.0
 21
0.0
 12
0.0
 22
0.0
 32
0.0
 14
0.0
 24
0.0
 34
0.0
 15
0.0
 25
0.0
 35
0.0
146
0.0
 13
0.0
 23
0.0
 33
0.0
 16
1.0
 26
0.0
 36
0.0
 17
0.0
 27
1.0
 37
0.0
 76
     0
330
23
  0
LAYOUT
  5
22
102
{ACAD_REACTORS
330
1A
102
}
330
1A
100
AcDbPlotSettings
  1

  2
none_device
  4

  6

 40
0.0
 41
0.0
 42
0.0
 43
0.0
 44
0.0
 45
0.0
 46
0.0
 47
0.0
 48
0.0
 49
0.0
140
0.0
141
0.0
142
1.0
143
1.0
 70
  1712
 72
     0
 73
     0
 74
     0
  7

 75
     0
 76
     0
 77
     2
 78
   300
147
1.0
148
0.0
149
0.0
100
AcDbLayout
  1
Model
 70
     1
 71
     0
 10
0.0
 20
0.0
 11
12.0
 21
9.0
 12
0.0
 22
0.0
 32
0.0
 14
-4.43776
 24
-4.45646
 34
0.0
 15
4.44262
 25
4.4316
 35
0.0
146
0.0
 13
0.0
 23
0.0
 33
0.0
 16
1.0
 26
0.0
 36
0.0
 17
0.0
 27
1.0
 37
0.0
 76
     0
330
1F
331
29
  0
MATERIAL
  5
3D
102
{ACAD_REACTORS
330
3B
102
}
330
3B
100
AcDbMaterial
  1
ByBlock
 72
     1
 94
      127
  0
MATERIAL
  5
3C
102
{ACAD_REACTORS
330
3B
102
}
330
3B
100
AcDbMaterial
  1
ByLayer
 72
     1
 94
      127
  0
MATERIAL
  5
3E
102
{ACAD_REACTORS
330
3B
102
}
330
3B
100
AcDbMaterial
  1
Global
 72
     1
 94
      127
  0
MLINESTYLE
  5
18
102
{ACAD_REACTORS
330
17
102
}
330
17
100
AcDbMlineStyle
  2
Standard
 70
     0
  3

 62
   256
 51
90.0
 52
90.0
 71
     2
 49
0.5
 62
   256
  6
BYLAYER
 49
-0.5
 62
   256
  6
BYLAYER
  0
ACDBPLACEHOLDER
  5
F
102
{ACAD_REACTORS
330
E
102
}
330
E
  0
VISUALSTYLE
  5
2F
102
{ACAD_REACTORS
330
2A
102
}
102
{ACAD_XDICTIONARY
360
52
102
}
330
2A
100
AcDbVisualStyle
  2
2dWireframe
 70
     4
 71
     0
 72
     2
 73
     0
 90
        0
 40
-0.6
 41
-30.0
 62
     5
 63
     7
421
 16777215
 74
     1
 91
        4
 64
     7
 65
   257
 75
     1
175
     1
 42
1.0
 92
        0
 66
   257
 43
1.0
 76
     1
 77
     6
 78
     2
 67
     7
 79
     5
170
     0
171
     0
290
     0
174
     0
 93
        1
 44
0.0
173
     0
291
     0
 45
0.0
  0
VISUALSTYLE
  5
31
102
{ACAD_REACTORS
330
2A
102
}
102
{ACAD_XDICTIONARY
360
56
102
}
330
2A
100
AcDbVisualStyle
  2
3D Hidden
 70
     6
 71
     1
 72
     2
 73
     2
 90
        0
 40
-0.6
 41
-30.0
 62
     5
 63
     7
421
 16777215
 74
     2
 91
        2
 64
     7
 65
   257
 75
     2
175
     1
 42
40.0
 92
        0
 66
   257
 43
1.0
 76
     1
 77
     6
 78
     2
 67
     7
 79
     3
170
     0
171
     0
290
     0
174
     0
 93
        1
 44
0.0
173
     0
291
     0
 45
0.0
  0
VISUALSTYLE
  5
30
102
{ACAD_REACTORS
330
2A
102
}
102
{ACAD_XDICTIONARY
360
54
102
}
330
2A
100
AcDbVisualStyle
  2
3dWireframe
 70
     5
 71
     0
 72
     2
 73
     0
 90
        0
 40
-0.6
 41
-30.0
 62
     5
 63
     7
421
 16777215
 74
     1
 91
        4
 64
     7
 65
   257
 75
     1
175
     1
 42
1.0
 92
        0
 66
   257
 43
1.0
 76
     1
 77
     6
 78
     2
 67
     7
 79
     5
170
     0
171
     0
290
     0
174
     0
 93
        1
 44
0.0
173
     0
291
     0
 45
0.0
  0
VISUALSTYLE
  5
32
102
{ACAD_REACTORS
330
2A
102
}
102
{ACAD_XDICTIONARY
360
58
102
}
330
2A
100
AcDbVisualStyle
  2
Basic
 70
     7
 71
     1
 72
     0
 73
     1
 90
        0
 40
-0.6
 41
-30.0
 62
     5
 63
     7
421
 16777215
 74
     0
 91
        4
 64
     7
 65
   257
 75
     1
175
     1
 42
1.0
 92
        8
 66
     7
 43
1.0
 76
     1
 77
     6
 78
     2
 67
     7
 79
     5
170
     0
171
     0
290
     0
174
     0
 93
        1
 44
0.0
173
     0
291
     1
 45
0.0
  0
VISUALSTYLE
  5
36
102
{ACAD_REACTORS
330
2A
102
}
102
{ACAD_XDICTIONARY
360
60
102
}
330
2A
100
AcDbVisualStyle
  2
Brighten
 70
    12
 71
     2
 72
     2
 73
     0
 90
        0
 40
-0.6
 41
-30.0
 62
     5
 63
     7
421
 16777215
 74
     1
 91
        4
 64
     7
 65
   257
 75
     1
175
     1
 42
1.0
 92
        8
 66
     7
 43
1.0
 76
     1
 77
     6
 78
     2
 67
     7
 79
     5
170
     0
171
     0
290
     0
174
     0
 93
        1
 44
50.0
173
     0
291
     1
 45
0.0
  0
VISUALSTYLE
  5
3A
102
{ACAD_REACTORS
330
2A
102
}
102
{ACAD_XDICTIONARY
360
68
102
}
330
2A
100
AcDbVisualStyle
  2
ColorChange
 70
    16
 71
     2
 72
     2
 73
     3
 90
        0
 40
-0.6
 41
-30.0
 62
     5
 63
     8
421
  8421504
 74
     1
 91
        4
 64
     7
 65
   257
 75
     1
175
     1
 42
1.0
 92
        8
 66
     8
424
  8421504
 43
1.0
 76
     1
 77
     6
 78
     2
 67
     7
 79
     5
170
     0
171
     0
290
     0
174
     0
 93
        1
 44
0.0
173
     0
291
     1
 45
0.0
  0
VISUALSTYLE
  5
34
102
{ACAD_REACTORS
330
2A
102
}
102
{ACAD_XDICTIONARY
360
5C
102
}
330
2A
100
AcDbVisualStyle
  2
Conceptual
 70
     9
 71
     3
 72
     2
 73
     0
 90
        0
 40
-0.6
 41
-30.0
 62
     5
 63
     7
421
 16777215
 74
     2
 91
        2
 64
     7
 65
   257
 75
     1
175
     1
 42
40.0
 92
        8
 66
     7
 43
1.0
 76
     1
 77
     6
 78
     2
 67
     7
 79
     3
170
     0
171
     0
290
     0
174
     0
 93
        1
 44
0.0
173
     0
291
     0
 45
0.0
  0
VISUALSTYLE
  5
35
102
{ACAD_REACTORS
330
2A
102
}
102
{ACAD_XDICTIONARY
360
5E
102
}
330
2A
100
AcDbVisualStyle
  2
Dim
 70
    11
 71
     2
 72
     2
 73
     0
 90
        0
 40
-0.6
 41
-30.0
 62
     5
 63
     7
421
 16777215
 74
     1
 91
        4
 64
     7
 65
   257
 75
     1
175
     1
 42
1.0
 92
        8
 66
     7
 43
1.0
 76
     1
 77
     6
 78
     2
 67
     7
 79
     5
170
     0
171
     0
290
     0
174
     0
 93
        1
 44
-50.0
173
     0
291
     1
 45
0.0
  0
VISUALSTYLE
  5
39
102
{ACAD_REACTORS
330
2A
102
}
102
{ACAD_XDICTIONARY
360
66
102
}
330
2A
100
AcDbVisualStyle
  2
Facepattern
 70
    15
 71
     2
 72
     2
 73
     0
 90
        0
 40
-0.6
 41
-30.0
 62
     5
 63
     7
421
 16777215
 74
     1
 91
        4
 64
     7
 65
   257
 75
     1
175
     1
 42
1.0
 92
        8
 66
     7
 43
1.0
 76
     1
 77
     6
 78
     2
 67
     7
 79
     5
170
     0
171
     0
290
     0
174
     0
 93
        1
 44
0.0
173
     0
291
     1
 45
0.0
  0
VISUALSTYLE
  5
2B
102
{ACAD_REACTORS
330
2A
102
}
102
{ACAD_XDICTIONARY
360
4A
102
}
330
2A
100
AcDbVisualStyle
  2
Flat
 70
     0
 71
     2
 72
     1
 73
     1
 90
        2
 40
-0.6
 41
30.0
 62
     5
 63
     7
421
 16777215
 74
     0
 91
        4
 64
     7
 65
   257
 75
     1
175
     1
 42
1.0
 92
        8
 66
     7
 43
1.0
 76
     1
 77
     6
 78
     2
 67
     7
 79
     5
170
     0
171
     0
290
     0
174
     0
 93
       13
 44
0.0
173
     0
291
     1
 45
0.0
  0
VISUALSTYLE
  5
2C
102
{ACAD_REACTORS
330
2A
102
}
102
{ACAD_XDICTIONARY
360
4C
102
}
330
2A
100
AcDbVisualStyle
  2
FlatWithEdges
 70
     1
 71
     2
 72
     1
 73
     1
 90
        2
 40
-0.6
 41
30.0
 62
     5
 63
     7
421
 16777215
 74
     1
 91
        4
 64
     7
 65
   257
 75
     1
175
     1
 42
1.0
 92
        0
 66
   257
 43
1.0
 76
     1
 77
     6
 78
     2
 67
     7
 79
     5
170
     0
171
     0
290
     0
174
     0
 93
       13
 44
0.0
173
     0
291
     1
 45
0.0
  0
VISUALSTYLE
  5
2D
102
{ACAD_REACTORS
330
2A
102
}
102
{ACAD_XDICTIONARY
360
4E
102
}
330
2A
100
AcDbVisualStyle
  2
Gouraud
 70
     2
 71
     2
 72
     2
 73
     1
 90
        2
 40
-0.6
 41
30.0
 62
     5
 63
     7
421
 16777215
 74
     0
 91
        4
 64
     7
 65
   257
 75
     1
175
     1
 42
1.0
 92
        0
 66
     7
 43
1.0
 76
     1
 77
     6
 78
     2
 67
     7
 79
     5
170
     0
171
     0
290
     0
174
     0
 93
       13
 44
0.0
173
     0
291
     1
 45
0.0
  0
VISUALSTYLE
  5
2E
102
{ACAD_REACTORS
330
2A
102
}
102
{ACAD_XDICTIONARY
360
50
102
}
330
2A
100
AcDbVisualStyle
  2
GouraudWithEdges
 70
     3
 71
     2
 72
     2
 73
     1
 90
        2
 40
-0.6
 41
30.0
 62
     5
 63
     7
421
 16777215
 74
     1
 91
        4
 64
     7
 65
   257
 75
     1
175
     1
 42
1.0
 92
        0
 66
   257
 43
1.0
 76
     1
 77
     6
 78
     2
 67
     7
 79
     5
170
     0
171
     0
290
     0
174
     0
 93
       13
 44
0.0
173
     0
291
     1
 45
0.0
  0
VISUALSTYLE
  5
38
102
{ACAD_REACTORS
330
2A
102
}
102
{ACAD_XDICTIONARY
360
64
102
}
330
2A
100
AcDbVisualStyle
  2
Linepattern
 70
    14
 71
     2
 72
     2
 73
     0
 90
        0
 40
-0.6
 41
-30.0
 62
     5
 63
     7
421
 16777215
 74
     1
 91
        4
 64
     7
 65
   257
 75
     7
175
     7
 42
1.0
 92
        8
 66
     7
 43
1.0
 76
     1
 77
     6
 78
     2
 67
     7
 79
     5
170
     0
171
     0
290
     0
174
     0
 93
        1
 44
0.0
173
     0
291
     1
 45
0.0
  0
VISUALSTYLE
  5
33
102
{ACAD_REACTORS
330
2A
102
}
102
{ACAD_XDICTIONARY
360
5A
102
}
330
2A
100
AcDbVisualStyle
  2
Realistic
 70
     8
 71
     2
 72
     2
 73
     0
 90
        0
 40
-0.6
 41
-30.0
 62
     5
 63
     7
421
 16777215
 74
     1
 91
        0
 64
     7
 65
   257
 75
     1
175
     1
 42
1.0
 92
        8
 66
     8
424
  7895160
 43
1.0
 76
     1
 77
     6
 78
     2
 67
     7
 79
     5
170
     0
171
     0
290
     0
174
     0
 93
       13
 44
0.0
173
     0
291
     0
 45
0.0
  0
VISUALSTYLE
  5
37
102
{ACAD_REACTORS
330
2A
102
}
102
{ACAD_XDICTIONARY
360
62
102
}
330
2A
100
AcDbVisualStyle
  2
Thicken
 70
    13
 71
     2
 72
     2
 73
     0
 90
        0
 40
-0.6
 41
-30.0
 62
     5
 63
     7
421
 16777215
 74
     1
 91
        4
 64
     7
 65
   257
 75
     1
175
     1
 42
1.0
 92
       12
 66
     7
 43
1.0
 76
     1
 77
     6
 78
     2
 67
     7
 79
     5
170
     0
171
     0
290
     0
174
     0
 93
        1
 44
0.0
173
     0
291
     1
 45
0.0
  0
DICTIONARY
  5
52
330
2F
100
AcDbDictionary
280
     1
281
     1
  3
ACAD_XREC_ROUNDTRIP
360
53
  0
DICTIONARY
  5
56
330
31
100
AcDbDictionary
280
     1
281
     1
  3
ACAD_XREC_ROUNDTRIP
360
57
  0
DICTIONARY
  5
54
330
30
100
AcDbDictionary
280
     1
281
     1
  3
ACAD_XREC_ROUNDTRIP
360
55
  0
DICTIONARY
  5
58
330
32
100
AcDbDictionary
280
     1
281
     1
  3
ACAD_XREC_ROUNDTRIP
360
59
  0
DICTIONARY
  5
60
330
36
100
AcDbDictionary
280
     1
281
     1
  3
ACAD_XREC_ROUNDTRIP
360
61
  0
DICTIONARY
  5
68
330
3A
100
AcDbDictionary
280
     1
281
     1
  3
ACAD_XREC_ROUNDTRIP
360
69
  0
DICTIONARY
  5
5C
330
34
100
AcDbDictionary
280
     1
281
     1
  3
ACAD_XREC_ROUNDTRIP
360
5D
  0
DICTIONARY
  5
5E
330
35
100
AcDbDictionary
280
     1
281
     1
  3
ACAD_XREC_ROUNDTRIP
360
5F
  0
DICTIONARY
  5
66
330
39
100
AcDbDictionary
280
     1
281
     1
  3
ACAD_XREC_ROUNDTRIP
360
67
  0
DICTIONARY
  5
4A
330
2B
100
AcDbDictionary
280
     1
281
     1
  3
ACAD_XREC_ROUNDTRIP
360
4B
  0
DICTIONARY
  5
4C
330
2C
100
AcDbDictionary
280
     1
281
     1
  3
ACAD_XREC_ROUNDTRIP
360
4D
  0
DICTIONARY
  5
4E
330
2D
100
AcDbDictionary
280
     1
281
     1
  3
ACAD_XREC_ROUNDTRIP
360
4F
  0
DICTIONARY
  5
50
330
2E
100
AcDbDictionary
280
     1
281
     1
  3
ACAD_XREC_ROUNDTRIP
360
51
  0
DICTIONARY
  5
64
330
38
100
AcDbDictionary
280
     1
281
     1
  3
ACAD_XREC_ROUNDTRIP
360
65
  0
DICTIONARY
  5
5A
330
33
100
AcDbDictionary
280
     1
281
     1
  3
ACAD_XREC_ROUNDTRIP
360
5B
  0
DICTIONARY
  5
62
330
37
100
AcDbDictionary
280
     1
281
     1
  3
ACAD_XREC_ROUNDTRIP
360
63
  0
XRECORD
  5
53
102
{ACAD_REACTORS
330
52
102
}
330
52
100
AcDbXrecord
280
     1
102
RTVSPropertyOp0
 70
     1
102
RTVSPropertyOp1
 70
     1
102
RTVSPropertyOp2
 70
     1
102
RTVSPropertyOp3
 70
     1
102
RTVSPropertyOp4
 70
     1
102
RTVSPropertyOp5
 70
     1
102
RTVSPropertyOp6
 70
     1
102
RTVSPropertyOp7
 70
     1
102
RTVSPropertyOp8
 70
     1
102
RTVSPropertyOp9
 70
     1
102
RTVSPropertyOp10
 70
     1
102
RTVSPropertyOp11
 70
     1
102
RTVSPropertyOp12
 70
     1
102
RTVSPropertyOp13
 70
     1
102
RTVSPropertyOp14
 70
     1
102
RTVSPropertyOp15
 70
     1
102
RTVSPropertyOp16
 70
     1
102
RTVSPropertyOp17
 70
     1
102
RTVSPropertyOp18
 70
     1
102
RTVSPropertyOp19
 70
     1
102
RTVSPropertyOp20
 70
     1
102
RTVSPropertyOp21
 70
     1
102
RTVSPropertyOp22
 70
     1
102
RTVSPropertyOp23
 70
     1
102
RTVSPropertyOp24
 70
     1
102
RTVSPropertyOp25
 70
     1
102
RTVSPropertyOp26
 70
     1
102
RTVSPropertyOp27
 70
     1
102
RTVSPropertyOp28
 70
     1
102
RTVSPropertyOp29
 70
     1
102
RTVSPropertyOp30
 70
     1
102
RTVSPropertyOp31
 70
     1
102
RTVSPropertyOp32
 70
     1
  0
XRECORD
  5
57
102
{ACAD_REACTORS
330
56
102
}
330
56
100
AcDbXrecord
280
     1
102
RTVSPropertyOp0
 70
     1
102
RTVSPropertyOp1
 70
     1
102
RTVSPropertyOp2
 70
     1
102
RTVSPropertyOp3
 70
     1
102
RTVSPropertyOp4
 70
     1
102
RTVSPropertyOp5
 70
     1
102
RTVSPropertyOp6
 70
     1
102
RTVSPropertyOp7
 70
     1
102
RTVSPropertyOp8
 70
     1
102
RTVSPropertyOp9
 70
     1
102
RTVSPropertyOp10
 70
     1
102
RTVSPropertyOp11
 70
     1
102
RTVSPropertyOp12
 70
     1
102
RTVSPropertyOp13
 70
     1
102
RTVSPropertyOp14
 70
     1
102
RTVSPropertyOp15
 70
     1
102
RTVSPropertyOp16
 70
     1
102
RTVSPropertyOp17
 70
     1
102
RTVSPropertyOp18
 70
     1
102
RTVSPropertyOp19
 70
     1
102
RTVSPropertyOp20
 70
     1
102
RTVSPropertyOp21
 70
     1
102
RTVSPropertyOp22
 70
     1
102
RTVSPropertyOp23
 70
     1
102
RTVSPropertyOp24
 70
     1
102
RTVSPropertyOp25
 70
     1
102
RTVSPropertyOp26
 70
     1
102
RTVSPropertyOp27
 70
     1
102
RTVSPropertyOp28
 70
     1
102
RTVSPropertyOp29
 70
     1
102
RTVSPropertyOp30
 70
     1
102
RTVSPropertyOp31
 70
     1
102
RTVSPropertyOp32
 70
     1
  0
XRECORD
  5
55
102
{ACAD_REACTORS
330
54
102
}
330
54
100
AcDbXrecord
280
     1
102
RTVSPropertyOp0
 70
     1
102
RTVSPropertyOp1
 70
     1
102
RTVSPropertyOp2
 70
     1
102
RTVSPropertyOp3
 70
     1
102
RTVSPropertyOp4
 70
     1
102
RTVSPropertyOp5
 70
     1
102
RTVSPropertyOp6
 70
     1
102
RTVSPropertyOp7
 70
     1
102
RTVSPropertyOp8
 70
     1
102
RTVSPropertyOp9
 70
     1
102
RTVSPropertyOp10
 70
     1
102
RTVSPropertyOp11
 70
     1
102
RTVSPropertyOp12
 70
     1
102
RTVSPropertyOp13
 70
     1
102
RTVSPropertyOp14
 70
     1
102
RTVSPropertyOp15
 70
     1
102
RTVSPropertyOp16
 70
     1
102
RTVSPropertyOp17
 70
     1
102
RTVSPropertyOp18
 70
     1
102
RTVSPropertyOp19
 70
     1
102
RTVSPropertyOp20
 70
     1
102
RTVSPropertyOp21
 70
     1
102
RTVSPropertyOp22
 70
     1
102
RTVSPropertyOp23
 70
     1
102
RTVSPropertyOp24
 70
     1
102
RTVSPropertyOp25
 70
     1
102
RTVSPropertyOp26
 70
     1
102
RTVSPropertyOp27
 70
     1
102
RTVSPropertyOp28
 70
     1
102
RTVSPropertyOp29
 70
     1
102
RTVSPropertyOp30
 70
     1
102
RTVSPropertyOp31
 70
     1
102
RTVSPropertyOp32
 70
     1
  0
XRECORD
  5
59
102
{ACAD_REACTORS
330
58
102
}
330
58
100
AcDbXrecord
280
     1
102
RTVSPropertyOp0
 70
     1
102
RTVSPropertyOp1
 70
     1
102
RTVSPropertyOp2
 70
     1
102
RTVSPropertyOp3
 70
     1
102
RTVSPropertyOp4
 70
     1
102
RTVSPropertyOp5
 70
     1
102
RTVSPropertyOp6
 70
     1
102
RTVSPropertyOp7
 70
     1
102
RTVSPropertyOp8
 70
     1
102
RTVSPropertyOp9
 70
     1
102
RTVSPropertyOp10
 70
     1
102
RTVSPropertyOp11
 70
     1
102
RTVSPropertyOp12
 70
     1
102
RTVSPropertyOp13
 70
     1
102
RTVSPropertyOp14
 70
     1
102
RTVSPropertyOp15
 70
     1
102
RTVSPropertyOp16
 70
     1
102
RTVSPropertyOp17
 70
     1
102
RTVSPropertyOp18
 70
     1
102
RTVSPropertyOp19
 70
     1
102
RTVSPropertyOp20
 70
     1
102
RTVSPropertyOp21
 70
     1
102
RTVSPropertyOp22
 70
     1
102
RTVSPropertyOp23
 70
     1
102
RTVSPropertyOp24
 70
     1
102
RTVSPropertyOp25
 70
     1
102
RTVSPropertyOp26
 70
     1
102
RTVSPropertyOp27
 70
     1
102
RTVSPropertyOp28
 70
     1
102
RTVSPropertyOp29
 70
     1
102
RTVSPropertyOp30
 70
     1
102
RTVSPropertyOp31
 70
     1
102
RTVSPropertyOp32
 70
     1
  0
XRECORD
  5
61
102
{ACAD_REACTORS
330
60
102
}
330
60
100
AcDbXrecord
280
     1
102
RTVSPropertyOp0
 70
     1
102
RTVSPropertyOp1
 70
     1
102
RTVSPropertyOp2
 70
     1
102
RTVSPropertyOp3
 70
     1
102
RTVSPropertyOp4
 70
     1
102
RTVSPropertyOp5
 70
     1
102
RTVSPropertyOp6
 70
     1
102
RTVSPropertyOp7
 70
     1
102
RTVSPropertyOp8
 70
     1
102
RTVSPropertyOp9
 70
     1
102
RTVSPropertyOp10
 70
     1
102
RTVSPropertyOp11
 70
     1
102
RTVSPropertyOp12
 70
     1
102
RTVSPropertyOp13
 70
     1
102
RTVSPropertyOp14
 70
     1
102
RTVSPropertyOp15
 70
     1
102
RTVSPropertyOp16
 70
     1
102
RTVSPropertyOp17
 70
     1
102
RTVSPropertyOp18
 70
     1
102
RTVSPropertyOp19
 70
     1
102
RTVSPropertyOp20
 70
     1
102
RTVSPropertyOp21
 70
     1
102
RTVSPropertyOp22
 70
     1
102
RTVSPropertyOp23
 70
     1
102
RTVSPropertyOp24
 70
     1
102
RTVSPropertyOp25
 70
     1
102
RTVSPropertyOp26
 70
     1
102
RTVSPropertyOp27
 70
     1
102
RTVSPropertyOp28
 70
     1
102
RTVSPropertyOp29
 70
     1
102
RTVSPropertyOp30
 70
     1
102
RTVSPropertyOp31
 70
     1
102
RTVSPropertyOp32
 70
     1
  0
XRECORD
  5
69
102
{ACAD_REACTORS
330
68
102
}
330
68
100
AcDbXrecord
280
     1
102
RTVSPropertyOp0
 70
     1
102
RTVSPropertyOp1
 70
     1
102
RTVSPropertyOp2
 70
     1
102
RTVSPropertyOp3
 70
     1
102
RTVSPropertyOp4
 70
     1
102
RTVSPropertyOp5
 70
     1
102
RTVSPropertyOp6
 70
     1
102
RTVSPropertyOp7
 70
     1
102
RTVSPropertyOp8
 70
     1
102
RTVSPropertyOp9
 70
     1
102
RTVSPropertyOp10
 70
     1
102
RTVSPropertyOp11
 70
     1
102
RTVSPropertyOp12
 70
     1
102
RTVSPropertyOp13
 70
     1
102
RTVSPropertyOp14
 70
     1
102
RTVSPropertyOp15
 70
     1
102
RTVSPropertyOp16
 70
     1
102
RTVSPropertyOp17
 70
     1
102
RTVSPropertyOp18
 70
     1
102
RTVSPropertyOp19
 70
     1
102
RTVSPropertyOp20
 70
     1
102
RTVSPropertyOp21
 70
     1
102
RTVSPropertyOp22
 70
     1
102
RTVSPropertyOp23
 70
     1
102
RTVSPropertyOp24
 70
     1
102
RTVSPropertyOp25
 70
     1
102
RTVSPropertyOp26
 70
     1
102
RTVSPropertyOp27
 70
     1
102
RTVSPropertyOp28
 70
     1
102
RTVSPropertyOp29
 70
     1
102
RTVSPropertyOp30
 70
     1
102
RTVSPropertyOp31
 70
     1
102
RTVSPropertyOp32
 70
     1
  0
XRECORD
  5
5D
102
{ACAD_REACTORS
330
5C
102
}
330
5C
100
AcDbXrecord
280
     1
102
RTVSPropertyOp0
 70
     1
102
RTVSPropertyOp1
 70
     1
102
RTVSPropertyOp2
 70
     1
102
RTVSPropertyOp3
 70
     1
102
RTVSPropertyOp4
 70
     1
102
RTVSPropertyOp5
 70
     1
102
RTVSPropertyOp6
 70
     1
102
RTVSPropertyOp7
 70
     1
102
RTVSPropertyOp8
 70
     1
102
RTVSPropertyOp9
 70
     1
102
RTVSPropertyOp10
 70
     1
102
RTVSPropertyOp11
 70
     1
102
RTVSPropertyOp12
 70
     1
102
RTVSPropertyOp13
 70
     1
102
RTVSPropertyOp14
 70
     1
102
RTVSPropertyOp15
 70
     1
102
RTVSPropertyOp16
 70
     1
102
RTVSPropertyOp17
 70
     1
102
RTVSPropertyOp18
 70
     1
102
RTVSPropertyOp19
 70
     1
102
RTVSPropertyOp20
 70
     1
102
RTVSPropertyOp21
 70
     1
102
RTVSPropertyOp22
 70
     1
102
RTVSPropertyOp23
 70
     1
102
RTVSPropertyOp24
 70
     1
102
RTVSPropertyOp25
 70
     1
102
RTVSPropertyOp26
 70
     1
102
RTVSPropertyOp27
 70
     1
102
RTVSPropertyOp28
 70
     1
102
RTVSPropertyOp29
 70
     1
102
RTVSPropertyOp30
 70
     1
102
RTVSPropertyOp31
 70
     1
102
RTVSPropertyOp32
 70
     1
  0
XRECORD
  5
5F
102
{ACAD_REACTORS
330
5E
102
}
330
5E
100
AcDbXrecord
280
     1
102
RTVSPropertyOp0
 70
     1
102
RTVSPropertyOp1
 70
     1
102
RTVSPropertyOp2
 70
     1
102
RTVSPropertyOp3
 70
     1
102
RTVSPropertyOp4
 70
     1
102
RTVSPropertyOp5
 70
     1
102
RTVSPropertyOp6
 70
     1
102
RTVSPropertyOp7
 70
     1
102
RTVSPropertyOp8
 70
     1
102
RTVSPropertyOp9
 70
     1
102
RTVSPropertyOp10
 70
     1
102
RTVSPropertyOp11
 70
     1
102
RTVSPropertyOp12
 70
     1
102
RTVSPropertyOp13
 70
     1
102
RTVSPropertyOp14
 70
     1
102
RTVSPropertyOp15
 70
     1
102
RTVSPropertyOp16
 70
     1
102
RTVSPropertyOp17
 70
     1
102
RTVSPropertyOp18
 70
     1
102
RTVSPropertyOp19
 70
     1
102
RTVSPropertyOp20
 70
     1
102
RTVSPropertyOp21
 70
     1
102
RTVSPropertyOp22
 70
     1
102
RTVSPropertyOp23
 70
     1
102
RTVSPropertyOp24
 70
     1
102
RTVSPropertyOp25
 70
     1
102
RTVSPropertyOp26
 70
     1
102
RTVSPropertyOp27
 70
     1
102
RTVSPropertyOp28
 70
     1
102
RTVSPropertyOp29
 70
     1
102
RTVSPropertyOp30
 70
     1
102
RTVSPropertyOp31
 70
     1
102
RTVSPropertyOp32
 70
     1
  0
XRECORD
  5
67
102
{ACAD_REACTORS
330
66
102
}
330
66
100
AcDbXrecord
280
     1
102
RTVSPropertyOp0
 70
     1
102
RTVSPropertyOp1
 70
     1
102
RTVSPropertyOp2
 70
     1
102
RTVSPropertyOp3
 70
     1
102
RTVSPropertyOp4
 70
     1
102
RTVSPropertyOp5
 70
     1
102
RTVSPropertyOp6
 70
     1
102
RTVSPropertyOp7
 70
     1
102
RTVSPropertyOp8
 70
     1
102
RTVSPropertyOp9
 70
     1
102
RTVSPropertyOp10
 70
     1
102
RTVSPropertyOp11
 70
     1
102
RTVSPropertyOp12
 70
     1
102
RTVSPropertyOp13
 70
     1
102
RTVSPropertyOp14
 70
     1
102
RTVSPropertyOp15
 70
     1
102
RTVSPropertyOp16
 70
     1
102
RTVSPropertyOp17
 70
     1
102
RTVSPropertyOp18
 70
     1
102
RTVSPropertyOp19
 70
     1
102
RTVSPropertyOp20
 70
     1
102
RTVSPropertyOp21
 70
     1
102
RTVSPropertyOp22
 70
     1
102
RTVSPropertyOp23
 70
     1
102
RTVSPropertyOp24
 70
     1
102
RTVSPropertyOp25
 70
     1
102
RTVSPropertyOp26
 70
     1
102
RTVSPropertyOp27
 70
     1
102
RTVSPropertyOp28
 70
     1
102
RTVSPropertyOp29
 70
     1
102
RTVSPropertyOp30
 70
     1
102
RTVSPropertyOp31
 70
     1
102
RTVSPropertyOp32
 70
     1
  0
XRECORD
  5
4B
102
{ACAD_REACTORS
330
4A
102
}
330
4A
100
AcDbXrecord
280
     1
102
RTVSPropertyOp0
 70
     1
102
RTVSPropertyOp1
 70
     1
102
RTVSPropertyOp2
 70
     1
102
RTVSPropertyOp3
 70
     1
102
RTVSPropertyOp4
 70
     1
102
RTVSPropertyOp5
 70
     1
102
RTVSPropertyOp6
 70
     1
102
RTVSPropertyOp7
 70
     1
102
RTVSPropertyOp8
 70
     1
102
RTVSPropertyOp9
 70
     1
102
RTVSPropertyOp10
 70
     1
102
RTVSPropertyOp11
 70
     1
102
RTVSPropertyOp12
 70
     1
102
RTVSPropertyOp13
 70
     1
102
RTVSPropertyOp14
 70
     1
102
RTVSPropertyOp15
 70
     1
102
RTVSPropertyOp16
 70
     1
102
RTVSPropertyOp17
 70
     1
102
RTVSPropertyOp18
 70
     1
102
RTVSPropertyOp19
 70
     1
102
RTVSPropertyOp20
 70
     1
102
RTVSPropertyOp21
 70
     1
102
RTVSPropertyOp22
 70
     1
102
RTVSPropertyOp23
 70
     1
102
RTVSPropertyOp24
 70
     1
102
RTVSPropertyOp25
 70
     1
102
RTVSPropertyOp26
 70
     1
102
RTVSPropertyOp27
 70
     1
102
RTVSPropertyOp28
 70
     1
102
RTVSPropertyOp29
 70
     1
102
RTVSPropertyOp30
 70
     1
102
RTVSPropertyOp31
 70
     1
102
RTVSPropertyOp32
 70
     1
  0
XRECORD
  5
4D
102
{ACAD_REACTORS
330
4C
102
}
330
4C
100
AcDbXrecord
280
     1
102
RTVSPropertyOp0
 70
     1
102
RTVSPropertyOp1
 70
     1
102
RTVSPropertyOp2
 70
     1
102
RTVSPropertyOp3
 70
     1
102
RTVSPropertyOp4
 70
     1
102
RTVSPropertyOp5
 70
     1
102
RTVSPropertyOp6
 70
     1
102
RTVSPropertyOp7
 70
     1
102
RTVSPropertyOp8
 70
     1
102
RTVSPropertyOp9
 70
     1
102
RTVSPropertyOp10
 70
     1
102
RTVSPropertyOp11
 70
     1
102
RTVSPropertyOp12
 70
     1
102
RTVSPropertyOp13
 70
     1
102
RTVSPropertyOp14
 70
     1
102
RTVSPropertyOp15
 70
     1
102
RTVSPropertyOp16
 70
     1
102
RTVSPropertyOp17
 70
     1
102
RTVSPropertyOp18
 70
     1
102
RTVSPropertyOp19
 70
     1
102
RTVSPropertyOp20
 70
     1
102
RTVSPropertyOp21
 70
     1
102
RTVSPropertyOp22
 70
     1
102
RTVSPropertyOp23
 70
     1
102
RTVSPropertyOp24
 70
     1
102
RTVSPropertyOp25
 70
     1
102
RTVSPropertyOp26
 70
     1
102
RTVSPropertyOp27
 70
     1
102
RTVSPropertyOp28
 70
     1
102
RTVSPropertyOp29
 70
     1
102
RTVSPropertyOp30
 70
     1
102
RTVSPropertyOp31
 70
     1
102
RTVSPropertyOp32
 70
     1
  0
XRECORD
  5
4F
102
{ACAD_REACTORS
330
4E
102
}
330
4E
100
AcDbXrecord
280
     1
102
RTVSPropertyOp0
 70
     1
102
RTVSPropertyOp1
 70
     1
102
RTVSPropertyOp2
 70
     1
102
RTVSPropertyOp3
 70
     1
102
RTVSPropertyOp4
 70
     1
102
RTVSPropertyOp5
 70
     1
102
RTVSPropertyOp6
 70
     1
102
RTVSPropertyOp7
 70
     1
102
RTVSPropertyOp8
 70
     1
102
RTVSPropertyOp9
 70
     1
102
RTVSPropertyOp10
 70
     1
102
RTVSPropertyOp11
 70
     1
102
RTVSPropertyOp12
 70
     1
102
RTVSPropertyOp13
 70
     1
102
RTVSPropertyOp14
 70
     1
102
RTVSPropertyOp15
 70
     1
102
RTVSPropertyOp16
 70
     1
102
RTVSPropertyOp17
 70
     1
102
RTVSPropertyOp18
 70
     1
102
RTVSPropertyOp19
 70
     1
102
RTVSPropertyOp20
 70
     1
102
RTVSPropertyOp21
 70
     1
102
RTVSPropertyOp22
 70
     1
102
RTVSPropertyOp23
 70
     1
102
RTVSPropertyOp24
 70
     1
102
RTVSPropertyOp25
 70
     1
102
RTVSPropertyOp26
 70
     1
102
RTVSPropertyOp27
 70
     1
102
RTVSPropertyOp28
 70
     1
102
RTVSPropertyOp29
 70
     1
102
RTVSPropertyOp30
 70
     1
102
RTVSPropertyOp31
 70
     1
102
RTVSPropertyOp32
 70
     1
  0
XRECORD
  5
51
102
{ACAD_REACTORS
330
50
102
}
330
50
100
AcDbXrecord
280
     1
102
RTVSPropertyOp0
 70
     1
102
RTVSPropertyOp1
 70
     1
102
RTVSPropertyOp2
 70
     1
102
RTVSPropertyOp3
 70
     1
102
RTVSPropertyOp4
 70
     1
102
RTVSPropertyOp5
 70
     1
102
RTVSPropertyOp6
 70
     1
102
RTVSPropertyOp7
 70
     1
102
RTVSPropertyOp8
 70
     1
102
RTVSPropertyOp9
 70
     1
102
RTVSPropertyOp10
 70
     1
102
RTVSPropertyOp11
 70
     1
102
RTVSPropertyOp12
 70
     1
102
RTVSPropertyOp13
 70
     1
102
RTVSPropertyOp14
 70
     1
102
RTVSPropertyOp15
 70
     1
102
RTVSPropertyOp16
 70
     1
102
RTVSPropertyOp17
 70
     1
102
RTVSPropertyOp18
 70
     1
102
RTVSPropertyOp19
 70
     1
102
RTVSPropertyOp20
 70
     1
102
RTVSPropertyOp21
 70
     1
102
RTVSPropertyOp22
 70
     1
102
RTVSPropertyOp23
 70
     1
102
RTVSPropertyOp24
 70
     1
102
RTVSPropertyOp25
 70
     1
102
RTVSPropertyOp26
 70
     1
102
RTVSPropertyOp27
 70
     1
102
RTVSPropertyOp28
 70
     1
102
RTVSPropertyOp29
 70
     1
102
RTVSPropertyOp30
 70
     1
102
RTVSPropertyOp31
 70
     1
102
RTVSPropertyOp32
 70
     1
  0
XRECORD
  5
65
102
{ACAD_REACTORS
330
64
102
}
330
64
100
AcDbXrecord
280
     1
102
RTVSPropertyOp0
 70
     1
102
RTVSPropertyOp1
 70
     1
102
RTVSPropertyOp2
 70
     1
102
RTVSPropertyOp3
 70
     1
102
RTVSPropertyOp4
 70
     1
102
RTVSPropertyOp5
 70
     1
102
RTVSPropertyOp6
 70
     1
102
RTVSPropertyOp7
 70
     1
102
RTVSPropertyOp8
 70
     1
102
RTVSPropertyOp9
 70
     1
102
RTVSPropertyOp10
 70
     1
102
RTVSPropertyOp11
 70
     1
102
RTVSPropertyOp12
 70
     1
102
RTVSPropertyOp13
 70
     1
102
RTVSPropertyOp14
 70
     1
102
RTVSPropertyOp15
 70
     1
102
RTVSPropertyOp16
 70
     1
102
RTVSPropertyOp17
 70
     1
102
RTVSPropertyOp18
 70
     1
102
RTVSPropertyOp19
 70
     1
102
RTVSPropertyOp20
 70
     1
102
RTVSPropertyOp21
 70
     1
102
RTVSPropertyOp22
 70
     1
102
RTVSPropertyOp23
 70
     1
102
RTVSPropertyOp24
 70
     1
102
RTVSPropertyOp25
 70
     1
102
RTVSPropertyOp26
 70
     1
102
RTVSPropertyOp27
 70
     1
102
RTVSPropertyOp28
 70
     1
102
RTVSPropertyOp29
 70
     1
102
RTVSPropertyOp30
 70
     1
102
RTVSPropertyOp31
 70
     1
102
RTVSPropertyOp32
 70
     1
  0
XRECORD
  5
5B
102
{ACAD_REACTORS
330
5A
102
}
330
5A
100
AcDbXrecord
280
     1
102
RTVSPropertyOp0
 70
     1
102
RTVSPropertyOp1
 70
     1
102
RTVSPropertyOp2
 70
     1
102
RTVSPropertyOp3
 70
     1
102
RTVSPropertyOp4
 70
     1
102
RTVSPropertyOp5
 70
     1
102
RTVSPropertyOp6
 70
     1
102
RTVSPropertyOp7
 70
     1
102
RTVSPropertyOp8
 70
     1
102
RTVSPropertyOp9
 70
     1
102
RTVSPropertyOp10
 70
     1
102
RTVSPropertyOp11
 70
     1
102
RTVSPropertyOp12
 70
     1
102
RTVSPropertyOp13
 70
     1
102
RTVSPropertyOp14
 70
     1
102
RTVSPropertyOp15
 70
     1
102
RTVSPropertyOp16
 70
     1
102
RTVSPropertyOp17
 70
     1
102
RTVSPropertyOp18
 70
     1
102
RTVSPropertyOp19
 70
     1
102
RTVSPropertyOp20
 70
     1
102
RTVSPropertyOp21
 70
     1
102
RTVSPropertyOp22
 70
     1
102
RTVSPropertyOp23
 70
     1
102
RTVSPropertyOp24
 70
     1
102
RTVSPropertyOp25
 70
     1
102
RTVSPropertyOp26
 70
     1
102
RTVSPropertyOp27
 70
     1
102
RTVSPropertyOp28
 70
     1
102
RTVSPropertyOp29
 70
     1
102
RTVSPropertyOp30
 70
     1
102
RTVSPropertyOp31
 70
     1
102
RTVSPropertyOp32
 70
     1
  0
XRECORD
  5
63
102
{ACAD_REACTORS
330
62
102
}
330
62
100
AcDbXrecord
280
     1
102
RTVSPropertyOp0
 70
     1
102
RTVSPropertyOp1
 70
     1
102
RTVSPropertyOp2
 70
     1
102
RTVSPropertyOp3
 70
     1
102
RTVSPropertyOp4
 70
     1
102
RTVSPropertyOp5
 70
     1
102
RTVSPropertyOp6
 70
     1
102
RTVSPropertyOp7
 70
     1
102
RTVSPropertyOp8
 70
     1
102
RTVSPropertyOp9
 70
     1
102
RTVSPropertyOp10
 70
     1
102
RTVSPropertyOp11
 70
     1
102
RTVSPropertyOp12
 70
     1
102
RTVSPropertyOp13
 70
     1
102
RTVSPropertyOp14
 70
     1
102
RTVSPropertyOp15
 70
     1
102
RTVSPropertyOp16
 70
     1
102
RTVSPropertyOp17
 70
     1
102
RTVSPropertyOp18
 70
     1
102
RTVSPropertyOp19
 70
     1
102
RTVSPropertyOp20
 70
     1
102
RTVSPropertyOp21
 70
     1
102
RTVSPropertyOp22
 70
     1
102
RTVSPropertyOp23
 70
     1
102
RTVSPropertyOp24
 70
     1
102
RTVSPropertyOp25
 70
     1
102
RTVSPropertyOp26
 70
     1
102
RTVSPropertyOp27
 70
     1
102
RTVSPropertyOp28
 70
     1
102
RTVSPropertyOp29
 70
     1
102
RTVSPropertyOp30
 70
     1
102
RTVSPropertyOp31
 70
     1
102
RTVSPropertyOp32
 70
     1
  0
ENDSEC
  0
EOF
