<?xml version="1.0" encoding="UTF-8"?>
<!DOCTYPE svg PUBLIC "-//W3C//DTD SVG 1.1//EN" "http://www.w3.org/Graphics/SVG/1.1/DTD/svg11.dtd">
<!-- Creator: CorelDRAW X6 -->
<svg xmlns="http://www.w3.org/2000/svg" xml:space="preserve" width="100mm" height="100mm" version="1.1" style="shape-rendering:geometricPrecision; text-rendering:geometricPrecision; image-rendering:optimizeQuality; fill-rule:evenodd; clip-rule:evenodd"
viewBox="0 0 10000 10000"
 xmlns:xlink="http://www.w3.org/1999/xlink">
 <defs>
  <style type="text/css">
   <![CDATA[
    .str0 {stroke:black;stroke-width:7.62;stroke-linecap:round;stroke-linejoin:round}
    .fil0 {fill:none}
   ]]>
  </style>
 </defs>
 <g id="Layer_x0020_1">
  <metadata id="CorelCorpID_0Corel-Layer"/>
  <path class="fil0 str0" d="M4142 9051c107,-152 336,-512 215,-723 -47,-82 -104,-110 -226,-118 9,-40 40,-86 59,-124 21,-42 41,-83 62,-134 73,-181 147,-458 -49,-584 -114,-74 -201,-44 -310,-6 8,-45 42,-109 57,-152 79,-219 178,-672 -128,-760 -129,-37 -232,49 -325,81 24,-249 27,-850 -313,-850 -160,0 -213,116 -252,146 -82,-217 -312,-649 -642,-551 -255,76 -264,431 -220,660 17,86 47,173 59,258 -110,-17 -193,-25 -277,31 -168,111 -140,358 -81,518 31,84 98,194 101,235 -119,4 -138,-33 -245,38 -87,58 -85,68 -120,153l-13 28c-71,-62 -266,-451 -317,-574 -299,-717 -390,-1521 -263,-2313 82,-510 243,-888 460,-1327 128,-259 372,-570 563,-784 70,-79 146,-155 223,-227 1387,-1293 3569,-1528 5270,-334 697,489 1252,1246 1516,2066 336,1040 233,2102 -165,3014 -188,430 -435,766 -714,1072 -252,275 -616,586 -1000,797 -379,209 -791,393 -1300,487 -516,95 -1125,93 -1626,-27zm-2511 -1171c-210,60 -271,224 -184,457 73,193 192,301 299,422 -64,50 -96,30 -140,112 -36,66 -41,135 -10,205 63,138 270,344 409,373 78,16 143,-45 145,-115 4,-112 -215,-209 -235,-291 32,15 158,22 205,27 120,12 220,-115 75,-251 -41,-39 -92,-76 -131,-114 -68,-66 -394,-392 -383,-523 9,-108 222,8 247,25 66,45 128,84 202,120 90,43 183,10 209,-73 31,-100 -63,-166 -105,-208 -119,-119 -541,-525 -453,-808 237,-39 405,414 596,304 81,-47 81,-147 26,-222 -138,-187 -409,-539 -411,-848 94,38 111,39 183,100 52,44 105,108 147,137 74,51 170,2 196,-53 30,-62 -14,-183 -33,-238 -57,-167 -294,-758 -93,-891 115,36 186,178 233,293 51,126 96,255 134,394 19,71 30,154 79,185 201,128 204,-345 339,-429 92,264 71,504 37,786 -16,133 -110,419 88,421 170,1 182,-329 430,-450 78,106 -26,416 -66,520 -65,171 -135,297 -210,444 -104,204 16,280 115,263 55,-10 71,-37 99,-67 56,-61 259,-273 373,-283 1,309 -193,548 -366,769 -37,47 -100,109 -103,181 -4,89 59,150 155,127 45,-11 142,-75 184,-101 77,-46 119,-61 197,-94 -20,353 -516,657 -452,833 24,66 145,131 251,28 36,-35 26,-31 90,-17 72,17 149,29 222,42 663,111 1262,89 1886,-72 1105,-286 1952,-965 2493,-1697 585,-789 987,-1954 787,-3290 -199,-1335 -987,-2442 -2112,-3122 -1097,-663 -2571,-817 -3808,-352 -260,98 -480,196 -712,333 -113,66 -213,132 -320,208 -219,156 -397,310 -573,482 -259,254 -497,566 -683,879 -396,668 -613,1482 -613,2268 0,533 101,1070 279,1557 121,332 346,743 552,1021l234 293z"/>
  <path class="fil0 str0" d="M6019 2676l6 2197c0,74 26,118 98,118l352 0c121,0 88,-173 88,-342l-2 -1056 238 555c39,96 77,184 114,276 54,131 65,196 225,196 136,0 149,-108 190,-211 39,-96 80,-188 118,-282l176 -420c18,-43 41,-110 61,-143l1 1329c0,136 152,98 274,98 314,0 257,57 258,-537l-3 -1914c0,-87 -31,-108 -118,-108 -679,0 -518,-82 -749,531l-172 472c-16,44 -42,128 -65,164 -24,-33 -44,-110 -58,-152 -18,-54 -37,-101 -56,-158l-215 -625c-81,-222 -85,-232 -276,-232 -516,0 -484,-38 -485,245z"/>
  <path class="fil0 str0" d="M4989 4404c-34,53 -148,116 -234,127 -329,44 -475,-375 -127,-555l360 428zm-360 -1348c1,-194 254,-247 326,-83 40,90 16,181 -30,243 -68,91 -101,92 -150,141 -45,-43 -147,-208 -146,-291l0 -10zm-323 547c-443,258 -525,859 -233,1171 45,48 62,67 112,103 247,179 569,213 849,78 58,-28 91,-46 138,-77 48,-32 84,-68 131,-94 157,260 132,204 430,206 163,1 137,-23 137,-176 0,-152 -9,-151 -79,-244 -169,-224 -158,-145 -54,-415 29,-75 58,-148 88,-224 113,-282 92,-278 -142,-277 -255,1 -224,-35 -299,149 -24,59 -42,105 -63,164l-252 -295c86,-71 179,-98 280,-256 254,-397 10,-944 -438,-992 -365,-40 -597,145 -720,362 -121,212 -99,427 15,645 27,51 82,127 100,173z"/>
  <path class="fil0 str0" d="M2949 3048l-163 236c-125,171 -792,1107 -815,1186 -15,51 -10,321 -7,394 6,165 121,124 274,127 264,5 527,7 791,6 133,0 267,0 400,0 435,-1 360,42 362,-437 1,-177 11,-166 -235,-166 -259,0 -541,3 -799,-8 105,-188 984,-1348 1008,-1393 31,-59 15,-296 15,-386 1,-206 -28,-176 -225,-176l-1201 0c-107,0 -301,-22 -359,42 -57,62 -41,256 -42,359 -1,158 23,213 186,215 269,4 541,-5 810,1z"/>
  <path class="fil0 str0" d="M4989 4404l-360 -428c-348,180 -202,600 127,555 86,-12 200,-74 234,-127z"/>
  <path class="fil0 str0" d="M4629 3057l0 10c0,83 102,248 146,291 48,-49 82,-51 150,-141 46,-62 70,-152 30,-243 -72,-164 -326,-111 -326,83z"/>
 </g>
</svg>
